<svg width="53" height="53" viewBox="0 0 53 53" fill="none" xmlns="http://www.w3.org/2000/svg">
<g id="pills_127655" clip-path="url(#clip0_1633_606)">
<g id="Group">
<g id="group-4svg">
<path id="path-1_24_" d="M49.4816 27.8099H30.9842C30.288 27.8099 30.082 27.2441 30.082 26.5479V10.5561C30.082 4.73533 34.7963 0 40.5919 0C46.3866 0 51.1018 4.73533 51.1018 10.5561V26.5479C51.1018 27.2441 50.1777 27.8099 49.4816 27.8099ZM32.6044 25.2859H48.5794V10.5561C48.5794 6.12683 44.996 2.52405 40.5919 2.52405C36.187 2.52405 32.6044 6.12683 32.6044 10.5561V25.2859Z" fill="#10C08E"/>
<path id="path-2_24_" d="M15.9929 45.0938C15.6701 45.0938 15.3472 44.971 15.1009 44.7247L3.7561 33.3732C-0.3562 29.2567 -0.3562 22.5606 3.7561 18.4441C5.74877 16.4506 8.3981 15.3525 11.2164 15.3525C14.0348 15.3525 16.6832 16.4506 18.6759 18.4441L30.0215 29.7956C30.5134 30.2892 30.5134 31.0871 30.0215 31.5806L16.8842 44.7247C16.6378 44.971 16.3158 45.0938 15.9929 45.0938ZM11.2164 17.8766C9.07157 17.8766 7.0562 18.7123 5.53941 20.2291C2.41084 23.3611 2.41084 28.4571 5.53941 31.5882L15.9929 42.0476L27.3461 30.6885L16.8926 20.2291C15.3758 18.7123 13.3604 17.8766 11.2164 17.8766Z" fill="#10C08E"/>
<path id="path-3_20_" d="M38.9897 42.5521C36.4606 42.5521 34.4023 40.4938 34.4023 37.9631C34.4023 35.4323 36.4606 33.374 38.9897 33.374C41.5188 33.374 43.577 35.4323 43.577 37.9631C43.577 40.4938 41.5188 42.5521 38.9897 42.5521ZM38.9897 35.8981C37.8513 35.8981 36.9247 36.8246 36.9247 37.9631C36.9247 39.1015 37.8513 40.0289 38.9897 40.0289C40.1281 40.0289 41.0547 39.1015 41.0547 37.9631C41.0547 36.8246 40.1281 35.8981 38.9897 35.8981Z" fill="#10C08E"/>
<path id="path-4_17_" d="M28.0119 50.4654C25.7779 50.4654 23.9609 48.6476 23.9609 46.412C23.9609 44.1772 25.7779 42.3594 28.0119 42.3594C30.245 42.3594 32.0619 44.1772 32.0619 46.412C32.0619 48.6476 30.245 50.4654 28.0119 50.4654ZM28.0119 44.8826C27.1686 44.8826 26.4825 45.5687 26.4825 46.412C26.4825 47.2553 27.1686 47.9414 28.0119 47.9414C28.8543 47.9414 29.5396 47.2553 29.5396 46.412C29.5396 45.5687 28.8543 44.8826 28.0119 44.8826Z" fill="#10C08E"/>
<path id="path-5_15_" d="M48.2775 52.9996C46.0435 52.9996 44.2266 51.1818 44.2266 48.9462C44.2266 46.7113 46.0435 44.8936 48.2775 44.8936C50.5115 44.8936 52.3284 46.7113 52.3284 48.9462C52.3284 51.1818 50.5115 52.9996 48.2775 52.9996ZM48.2775 47.4176C47.4342 47.4176 46.7489 48.1037 46.7489 48.9462C46.7489 49.7903 47.4342 50.4764 48.2775 50.4764C49.12 50.4764 49.806 49.7903 49.806 48.9462C49.806 48.1037 49.12 47.4176 48.2775 47.4176Z" fill="#10C08E"/>
</g>
</g>
</g>
<defs>
<clipPath id="clip0_1633_606">
<rect width="53" height="53" fill="white"/>
</clipPath>
</defs>
</svg>
