<svg width="57" height="57" viewBox="0 0 57 57" fill="none" xmlns="http://www.w3.org/2000/svg">
<g id="machine_8150404">
<path id="Vector" d="M13.3097 44.6635C13.0696 44.6635 12.8393 44.5681 12.6695 44.3983C12.4997 44.2285 12.4043 43.9982 12.4043 43.7581V15.8029C12.4043 15.5628 12.4997 15.3325 12.6695 15.1627C12.8393 14.9929 13.0696 14.8975 13.3097 14.8975C13.5499 14.8975 13.7802 14.9929 13.95 15.1627C14.1198 15.3325 14.2152 15.5628 14.2152 15.8029V43.7581C14.2152 43.9982 14.1198 44.2285 13.95 44.3983C13.7802 44.5681 13.5499 44.6635 13.3097 44.6635Z" fill="#10C08E"/>
<path id="Vector_2" d="M21.8644 44.6637C21.6243 44.6637 21.394 44.5683 21.2242 44.3985C21.0544 44.2287 20.959 43.9984 20.959 43.7583V15.8088C20.959 15.5686 21.0544 15.3383 21.2242 15.1685C21.394 14.9987 21.6243 14.9033 21.8644 14.9033C22.1046 14.9033 22.3348 14.9987 22.5047 15.1685C22.6745 15.3383 22.7698 15.5686 22.7698 15.8088V43.7583C22.7698 43.9984 22.6745 44.2287 22.5047 44.3985C22.3348 44.5683 22.1046 44.6637 21.8644 44.6637Z" fill="#10C08E"/>
<path id="Vector_3" d="M41.6326 21.3919H33.2902C33.0501 21.3919 32.8198 21.2965 32.65 21.1267C32.4802 20.9569 32.3848 20.7266 32.3848 20.4864V15.8088C32.3848 15.5686 32.4802 15.3383 32.65 15.1685C32.8198 14.9987 33.0501 14.9033 33.2902 14.9033C33.5303 14.9033 33.7606 14.9987 33.9304 15.1685C34.1002 15.3383 34.1956 15.5686 34.1956 15.8088V19.581H40.7272V15.8088C40.7272 15.5686 40.8226 15.3383 40.9924 15.1685C41.1622 14.9987 41.3925 14.9033 41.6326 14.9033C41.8727 14.9033 42.103 14.9987 42.2728 15.1685C42.4426 15.3383 42.538 15.5686 42.538 15.8088V20.4864C42.538 20.7266 42.4426 20.9569 42.2728 21.1267C42.103 21.2965 41.8727 21.3919 41.6326 21.3919Z" fill="#10C08E"/>
<path id="Vector_4" d="M39.3649 41.7069H35.5553C30.3564 41.7069 26.127 37.4774 26.127 32.2786V25.4923C26.127 25.2522 26.2223 25.0219 26.3921 24.8521C26.5619 24.6823 26.7922 24.5869 27.0324 24.5869H47.8879C48.128 24.5869 48.3583 24.6823 48.5281 24.8521C48.6979 25.0219 48.7933 25.2522 48.7933 25.4923V32.2757C48.7933 37.4746 44.5638 41.7069 39.3649 41.7069ZM27.9378 26.3978V32.2757C27.9378 36.4758 31.3553 39.8961 35.5553 39.8961H39.3649C43.5656 39.8961 46.9824 36.4786 46.9824 32.2786V26.3978H27.9378Z" fill="#10C08E"/>
<path id="Vector_5" d="M47.8879 29.9857H27.0324C26.7922 29.9857 26.5619 29.8903 26.3921 29.7205C26.2223 29.5507 26.127 29.3204 26.127 29.0802C26.127 28.8401 26.2223 28.6098 26.3921 28.44C26.5619 28.2702 26.7922 28.1748 27.0324 28.1748H47.8879C48.128 28.1748 48.3583 28.2702 48.5281 28.44C48.6979 28.6098 48.7933 28.8401 48.7933 29.0802C48.7933 29.3204 48.6979 29.5507 48.5281 29.7205C48.3583 29.8903 48.128 29.9857 47.8879 29.9857Z" fill="#10C08E"/>
<path id="Vector_6" d="M47.1475 51.8369H9.44192C8.51587 51.8357 7.6281 51.4673 6.97333 50.8124C6.31857 50.1575 5.95027 49.2697 5.94922 48.3437V46.3478C5.95027 45.4217 6.31857 44.5339 6.97333 43.879C7.6281 43.2241 8.51587 42.8557 9.44192 42.8545H47.1475C48.0735 42.8557 48.9613 43.2241 49.6161 43.879C50.2708 44.5339 50.6391 45.4217 50.6402 46.3478V48.3454C50.6387 49.2711 50.2702 50.1585 49.6155 50.813C48.9607 51.4675 48.0732 51.8357 47.1475 51.8369ZM9.44192 44.6637C8.99561 44.6641 8.56775 44.8418 8.25238 45.1576C7.937 45.4733 7.75993 45.9015 7.76008 46.3478V48.3454C7.76083 48.7911 7.9383 49.2183 8.25358 49.5334C8.56885 49.8484 8.9962 50.0256 9.44192 50.0261H47.1475C47.5935 50.0256 48.0211 49.8482 48.3364 49.5328C48.6517 49.2173 48.829 48.7897 48.8293 48.3437V46.3478C48.829 45.9017 48.6517 45.4741 48.3364 45.1586C48.0211 44.8432 47.5935 44.6658 47.1475 44.6654L9.44192 44.6637Z" fill="#10C08E"/>
<path id="Vector_7" d="M34.9367 26.3984C34.6965 26.3984 34.4662 26.303 34.2964 26.1332C34.1266 25.9634 34.0312 25.7331 34.0312 25.493V20.4865C34.0312 20.2464 34.1266 20.016 34.2964 19.8462C34.4662 19.6764 34.6965 19.5811 34.9367 19.5811C35.1768 19.5811 35.4071 19.6764 35.5769 19.8462C35.7467 20.016 35.8421 20.2464 35.8421 20.4865V25.4941C35.8418 25.734 35.7463 25.964 35.5765 26.1336C35.4067 26.3031 35.1766 26.3984 34.9367 26.3984Z" fill="#10C08E"/>
<path id="Vector_8" d="M39.9836 26.3984C39.7434 26.3984 39.5131 26.303 39.3433 26.1332C39.1735 25.9634 39.0781 25.7331 39.0781 25.493V20.4865C39.0781 20.2464 39.1735 20.016 39.3433 19.8462C39.5131 19.6764 39.7434 19.5811 39.9836 19.5811C40.2237 19.5811 40.454 19.6764 40.6238 19.8462C40.7936 20.016 40.889 20.2464 40.889 20.4865V25.4941C40.8887 25.734 40.7932 25.964 40.6234 26.1336C40.4536 26.3031 40.2235 26.3984 39.9836 26.3984Z" fill="#10C08E"/>
<path id="Vector_9" d="M33.2902 44.6635C33.0501 44.6635 32.8198 44.5681 32.65 44.3983C32.4802 44.2285 32.3848 43.9982 32.3848 43.7581V40.7453C32.3848 40.5051 32.4802 40.2748 32.65 40.105C32.8198 39.9352 33.0501 39.8398 33.2902 39.8398C33.5303 39.8398 33.7606 39.9352 33.9304 40.105C34.1002 40.2748 34.1956 40.5051 34.1956 40.7453V43.7564C34.1959 43.8754 34.1726 43.9934 34.1272 44.1034C34.0818 44.2135 34.0151 44.3135 33.931 44.3977C33.8469 44.482 33.747 44.5488 33.6371 44.5944C33.5271 44.6401 33.4092 44.6635 33.2902 44.6635Z" fill="#10C08E"/>
<path id="Vector_10" d="M41.632 44.6635C41.3919 44.6635 41.1616 44.5681 40.9918 44.3983C40.822 44.2285 40.7266 43.9982 40.7266 43.7581V40.7453C40.7266 40.5051 40.822 40.2748 40.9918 40.105C41.1616 39.9352 41.3919 39.8398 41.632 39.8398C41.8721 39.8398 42.1024 39.9352 42.2722 40.105C42.442 40.2748 42.5374 40.5051 42.5374 40.7453V43.7564C42.5376 43.8754 42.5144 43.9934 42.469 44.1034C42.4236 44.2135 42.3569 44.3135 42.2728 44.3977C42.1887 44.482 42.0888 44.5488 41.9789 44.5944C41.8689 44.6401 41.751 44.6635 41.632 44.6635Z" fill="#10C08E"/>
<path id="Vector_11" d="M43.0937 16.7145H13.4974C11.9114 16.7145 10.3905 16.0845 9.26902 14.9631C8.14759 13.8416 7.51758 12.3206 7.51758 10.7347C7.51758 9.14875 8.14759 7.62776 9.26902 6.50633C10.3905 5.3849 11.9114 4.75488 13.4974 4.75488H43.0937C44.6796 4.75488 46.2006 5.3849 47.322 6.50633C48.4435 7.62776 49.0735 9.14875 49.0735 10.7347C49.0735 12.3206 48.4435 13.8416 47.322 14.9631C46.2006 16.0845 44.6796 16.7145 43.0937 16.7145ZM13.4974 6.56574C12.3917 6.56574 11.3313 7.00497 10.5495 7.7868C9.76767 8.56863 9.32844 9.62902 9.32844 10.7347C9.32844 11.8404 9.76767 12.9007 10.5495 13.6826C11.3313 14.4644 12.3917 14.9036 13.4974 14.9036H43.0937C44.1993 14.9036 45.2597 14.4644 46.0415 13.6826C46.8234 12.9007 47.2626 11.8404 47.2626 10.7347C47.2626 9.62902 46.8234 8.56863 46.0415 7.7868C45.2597 7.00497 44.1993 6.56574 43.0937 6.56574H13.4974Z" fill="#10C08E"/>
<path id="Vector_12" d="M17.5886 13.8403C16.9743 13.8403 16.3737 13.6581 15.8629 13.3168C15.3521 12.9755 14.954 12.4904 14.7189 11.9228C14.4838 11.3552 14.4223 10.7307 14.5421 10.1281C14.662 9.52559 14.9578 8.97212 15.3922 8.53771C15.8266 8.1033 16.3801 7.80747 16.9826 7.68762C17.5852 7.56776 18.2097 7.62928 18.7773 7.86438C19.3449 8.09948 19.83 8.4976 20.1713 9.00842C20.5126 9.51923 20.6948 10.1198 20.6948 10.7341C20.6939 11.5577 20.3664 12.3472 19.784 12.9295C19.2017 13.5119 18.4122 13.8394 17.5886 13.8403ZM17.5886 9.43879C17.3324 9.43879 17.082 9.51476 16.869 9.6571C16.656 9.79943 16.4899 10.0017 16.3919 10.2384C16.2938 10.4751 16.2682 10.7356 16.3182 10.9868C16.3682 11.2381 16.4915 11.4689 16.6727 11.6501C16.8538 11.8312 17.0846 11.9546 17.3359 12.0046C17.5872 12.0545 17.8476 12.0289 18.0843 11.9309C18.321 11.8328 18.5233 11.6668 18.6656 11.4538C18.808 11.2408 18.884 10.9903 18.884 10.7341C18.8835 10.3907 18.7469 10.0615 18.5041 9.81868C18.2612 9.57586 17.932 9.43924 17.5886 9.43879Z" fill="#10C08E"/>
</g>
</svg>
