<svg width="50" height="50" viewBox="0 0 50 50" fill="none" xmlns="http://www.w3.org/2000/svg">
<g id="3d-printer_1950153" clip-path="url(#clip0_1633_669)">
<path id="Vector" d="M49.0234 1.9748H36.2183V0.976562C36.2183 0.437207 35.7811 0 35.2417 0H29.4146C28.8753 0 28.4381 0.437207 28.4381 0.976562C28.4381 1.51592 28.8753 1.95312 29.4146 1.95312H34.2651V8.74424H15.7349V1.95312H20.5854C21.1247 1.95312 21.5619 1.51592 21.5619 0.976562C21.5619 0.437207 21.1247 0 20.5854 0H14.7583C14.2189 0 13.7817 0.437207 13.7817 0.976562V1.9748H0.976562C0.437207 1.9748 0 2.41201 0 2.95137V8.10928C0 8.64863 0.437207 9.08584 0.976562 9.08584H13.7817V9.71797C13.7817 10.1686 14.0921 10.4349 14.0939 10.4366L21.2395 17.0688V20.0225C21.2395 20.2761 21.3382 20.5198 21.5146 20.702L24.2985 23.5755C24.4805 23.7633 24.7301 23.8703 24.9915 23.8726C24.9943 23.8727 24.9972 23.8727 24.9999 23.8727C25.2583 23.8727 25.5063 23.7702 25.6895 23.5876L28.5711 20.7141C28.7548 20.5309 28.8581 20.282 28.8581 20.0226V17.0651C28.8581 17.0651 35.9129 10.4302 35.9141 10.4291C35.9152 10.428 36.2182 10.1839 36.2182 9.71699C36.2182 9.55918 36.2182 9.08594 36.2182 9.08594H49.0234C49.5628 9.08594 50 8.64873 50 8.10938V2.95137C50 2.41201 49.5628 1.9748 49.0234 1.9748ZM1.95312 7.13272V3.92793H13.7817V7.13272H1.95312ZM26.9051 19.6171L25.012 21.5049L23.1927 19.627V17.6194H26.9051V19.6171ZM27.4945 15.6663H22.5995L17.246 10.6974H32.7779L27.4945 15.6663ZM48.0469 7.13272H36.2183V3.92793H48.0469V7.13272Z" fill="#10C08E"/>
<path id="Vector_2" d="M31.093 27.9162C29.4495 27.1227 27.2859 26.6855 25.0011 26.6855C22.7162 26.6855 20.5526 27.1227 18.9092 27.9162C17.0395 28.819 16.0098 30.1032 16.0098 31.5321V45.1526C16.0098 46.5816 17.0395 47.8658 18.9092 48.7686C20.5526 49.5621 22.7161 49.9992 25.0011 49.9992C27.286 49.9992 29.4495 49.5621 31.093 48.7686C32.9627 47.8657 33.9924 46.5815 33.9924 45.1526V31.5321C33.9924 30.1031 32.9627 28.8189 31.093 27.9162ZM24.0245 40.3329C22.105 40.4391 20.3164 40.8571 18.9092 41.5367C18.5648 41.7029 18.249 41.8822 17.9629 42.0729V34.612C18.249 34.8026 18.5648 34.9818 18.9092 35.1481C20.3165 35.8276 22.105 36.2458 24.0245 36.352V40.3329ZM25.9776 36.3519C27.8972 36.2457 29.6857 35.8276 31.093 35.148C31.4373 34.9818 31.7531 34.8026 32.0393 34.6119V42.0728C31.7531 41.8821 31.4373 41.7029 31.093 41.5366C29.6857 40.8571 27.8972 40.439 25.9776 40.3328V36.3519ZM25.0011 28.6387C29.0294 28.6387 32.0393 30.1663 32.0393 31.5321C32.0393 32.8979 29.0293 34.4256 25.0011 34.4256C20.9729 34.4256 17.9629 32.8979 17.9629 31.5321C17.9629 30.1663 20.9729 28.6387 25.0011 28.6387ZM25.0011 48.0461C20.9729 48.0461 17.9629 46.5185 17.9629 45.1526C17.9629 43.8996 20.496 42.5104 24.0245 42.2895V45.1526C24.0245 45.692 24.4617 46.1292 25.0011 46.1292C25.5404 46.1292 25.9776 45.692 25.9776 45.1526V42.2895C29.5062 42.5104 32.0393 43.8996 32.0393 45.1526C32.0393 46.5185 29.0294 48.0461 25.0011 48.0461Z" fill="#10C08E"/>
<path id="Vector_3" d="M24.983 1.95218C24.5761 1.95218 24.1999 1.68802 24.0635 1.30453C23.9288 0.925524 24.0437 0.491442 24.3512 0.231286C24.6719 -0.0401007 25.1413 -0.0736945 25.4982 0.146911C25.8394 0.357751 26.0191 0.772888 25.9399 1.16605C25.8492 1.61654 25.4438 1.95218 24.983 1.95218Z" fill="#10C08E"/>
</g>
<defs>
<clipPath id="clip0_1633_669">
<rect width="50" height="50" fill="white"/>
</clipPath>
</defs>
</svg>
