<?xml version="1.0" encoding="utf-8"?>
<!-- Generator: Adobe Illustrator 24.3.0, SVG Export Plug-In . SVG Version: 6.00 Build 0)  -->
<svg version="1.1" id="Layer_1" xmlns="http://www.w3.org/2000/svg" xmlns:xlink="http://www.w3.org/1999/xlink" x="0px" y="0px"
	 viewBox="0 0 32 32" style="enable-background:new 0 0 32 32;" xml:space="preserve">
<style type="text/css">
	.st0{display:none;}
	.st1{display:inline;}
	.st2{fill:#FFFFFF;}
</style>
<g class="st0">
	<path class="st1" d="M22.33,21.77l-4.29-6V9.52h0.6V8.54h-5.35v0.98h0.6v6.25L9.82,21.8c-0.48,0.71,0.03,1.66,0.88,1.66h10.77
		C22.33,23.46,22.83,22.48,22.33,21.77z M13.89,18.18l1.42-2.41l0-5.42h1.37l0,5.42l1.36,2.41H13.89z"/>
	<path class="st1" d="M19.39,11.33v4.14l4.14,5.57l0.17-0.08c0.72-0.32,1.18-1.03,1.18-1.82v-6.76l0.75-0.08v-0.98H19.39z
		 M23.76,14.72h-3.39v-2.26h3.39V14.72z"/>
	<path class="st1" d="M11.67,15.06v-4.48H7.75v4.14c0,0-1.4,0.53-1.39,2.56c0.11,3.09,2.34,3.47,2.34,3.47l3.92-5.69H11.67z
		 M8.32,16.49c0.19-1.09,0.94-1.13,0.94-1.13v-3.73h1.05v3.73c0.83,0.11,0.83,1.13,0.83,1.13H8.32z"/>
</g>
<g>
	<path d="M13.48,18.39V15.9h-0.84v2.49C11.15,18.6,10,19.88,10,21.42v2.02h6.12v-2.02C16.12,19.88,14.97,18.6,13.48,18.39z
		 M10.84,21.42c0-1.08,0.78-1.98,1.8-2.18v3.36h-1.8V21.42z M15.28,22.6h-1.8v-3.36c1.02,0.2,1.8,1.1,1.8,2.18V22.6z"/>
	<path d="M22.43,13.57l-1.91-3.56c-0.19-0.36-0.57-0.58-0.98-0.58h-6.3V9.28c0-0.41-0.33-0.74-0.74-0.74s-0.74,0.33-0.74,0.74v0.14
		c-1.13,0-2.04,0.91-2.04,2.04v1.94c0,0.76,0.62,1.38,1.38,1.38h10.6C22.33,14.78,22.73,14.12,22.43,13.57z M15.36,12.14H12.4
		c-0.51,0-0.92-0.41-0.92-0.92c0-0.51,0.41-0.92,0.92-0.92h2.96c0.51,0,0.92,0.41,0.92,0.92C16.28,11.73,15.87,12.14,15.36,12.14z"
		/>
</g>
<g class="st0">
	<path class="st1" d="M10.32,14.32h11.64c0.11,0,0.2,0.07,0.22,0.18l1.32,6.29c0.02,0.08-0.01,0.17-0.08,0.22L19.9,23.8
		c-0.04,0.03-0.09,0.05-0.14,0.05h-7.7c-0.04,0-0.08-0.01-0.11-0.03L9,22.04c-0.05-0.03-0.08-0.07-0.1-0.13
		c-0.12-0.39-0.47-2.22,1.21-7.44C10.14,14.39,10.23,14.32,10.32,14.32z"/>
	<path class="st1" d="M22.34,12.53H10.52l0.24-0.51c0.05-0.11,1.31-2.72,3.61-3.45c0.37-0.12,0.77-0.01,1.03,0.27
		c0.33,0.37,1.42,1.23,4.33,1.28c0.28,0.01,0.54,0.12,0.72,0.32L22.34,12.53z M11.7,11.81h9.02l-0.81-0.89
		c-0.05-0.05-0.12-0.09-0.2-0.09c-3.07-0.05-4.35-0.97-4.85-1.52c-0.07-0.08-0.18-0.11-0.28-0.07C13.16,9.71,12.16,11.06,11.7,11.81
		z"/>
	<g class="st1">
		<line class="st2" x1="24.14" y1="23.85" x2="7.86" y2="23.85"/>
		<rect x="7.86" y="23.49" width="16.28" height="0.72"/>
	</g>
	<rect x="9.39" y="11.81" class="st1" width="14.13" height="0.72"/>
</g>
</svg>
