<svg width="64" height="64" viewBox="0 0 64 64" fill="none" xmlns="http://www.w3.org/2000/svg">
<g id="formula_8836892 1">
<g id="Group">
<path id="Vector" d="M51.5373 40.5222V32.3352C52.6403 31.9462 53.4373 30.9042 53.4373 29.6702C53.4373 28.1062 52.1643 26.8332 50.6003 26.8332H48.2103V10.3882C48.2103 9.83524 47.7623 9.38824 47.2103 9.38824H37.2003V8.94824C37.2003 8.39524 36.7523 7.94824 36.2003 7.94824H22.8253C22.2733 7.94824 21.8253 8.39524 21.8253 8.94824V9.38724H11.8193C11.2673 9.38724 10.8193 9.83424 10.8193 10.3872V55.0472C10.8193 55.6002 11.2673 56.0472 11.8193 56.0472C52.8853 56.0472 24.3763 56.0512 55.8943 56.0512C57.0793 56.0512 58.1413 55.4392 58.7353 54.4132C59.3293 53.3892 59.3323 52.1622 58.7023 51.0702L51.5373 40.5222ZM36.4103 50.0482H16.8193V15.3882H21.8243V15.9922C21.8243 16.5452 22.2723 16.9922 22.8243 16.9922H36.2003C36.7523 16.9922 37.2003 16.5452 37.2003 15.9922V15.3882H42.2093V27.3352C41.4663 27.8472 40.9773 28.7022 40.9773 29.6712C40.9773 30.9052 41.7743 31.9472 42.8773 32.3362V40.5232L36.4103 50.0482ZM44.7053 41.3922C44.8183 41.2272 44.8783 41.0312 44.8783 40.8302V32.5072H49.5373V40.8302C49.5373 41.0302 49.5973 41.2262 49.7103 41.3922L50.8233 43.0302H43.5933L44.7053 41.3922ZM51.4373 29.6702C51.4373 30.1322 51.0623 30.5072 50.6003 30.5072H50.5373H43.8783H43.8153C43.3533 30.5072 42.9783 30.1322 42.9783 29.6702C42.9783 29.2082 43.3533 28.8332 43.8153 28.8332H50.6003C51.0623 28.8332 51.4373 29.2082 51.4373 29.6702ZM46.2093 11.3882V26.8332H44.2093V14.3882C44.2093 13.8352 43.7613 13.3882 43.2093 13.3882H37.2003V11.3882H46.2093ZM35.2003 9.94824V14.9922H23.8253C23.8253 13.6902 23.8253 13.3992 23.8253 9.94824H35.2003ZM12.8193 11.3882H21.8243V13.3882H15.8193C15.2673 13.3882 14.8193 13.8352 14.8193 14.3882V51.0482C14.8193 51.6012 15.2673 52.0482 15.8193 52.0482H35.3263C35.1733 52.7162 35.2493 53.4062 35.5263 54.0482H12.8193V11.3882ZM57.0043 53.4122C56.8933 53.6042 56.5613 54.0522 55.8943 54.0522C37.8973 54.0522 56.4873 54.0482 38.4963 54.0482C37.8463 54.0362 37.5193 53.6022 37.4093 53.4122C37.2983 53.2202 37.0743 52.7102 37.3663 52.1942L42.2333 45.0292H52.1813L57.0063 52.1302C57.3393 52.7102 57.1163 53.2202 57.0043 53.4122Z" fill="#0873CB"/>
<path id="Vector_2" d="M34.0972 28.4334C33.4132 28.4334 32.7802 28.6304 32.2262 28.9514L27.3792 26.3324C27.4092 26.1404 27.4382 25.9484 27.4382 25.7484C27.4382 23.6734 25.7502 21.9844 23.6742 21.9844C21.5992 21.9844 19.9102 23.6724 19.9102 25.7484C19.9102 27.8244 21.5982 29.5134 23.6742 29.5134C24.8302 29.5134 25.8532 28.9784 26.5442 28.1554L30.7852 30.4474C30.5062 30.9734 30.3332 31.5624 30.3332 32.1984C30.3332 33.0854 30.6542 33.8904 31.1702 34.5344L28.1652 37.2724C27.4742 36.4584 26.4572 35.9304 25.3082 35.9304C23.2332 35.9304 21.5442 37.6184 21.5442 39.6944C21.5442 41.7704 23.2322 43.4584 25.3082 43.4584C27.3842 43.4584 29.0722 41.7704 29.0722 39.6944C29.0722 39.5244 29.0442 39.3614 29.0222 39.1974L32.8312 35.7274C33.2292 35.8704 33.6512 35.9624 34.0972 35.9624C36.1732 35.9624 37.8612 34.2744 37.8612 32.1984C37.8612 30.1224 36.1722 28.4334 34.0972 28.4334ZM23.6742 27.5124C22.7012 27.5124 21.9102 26.7204 21.9102 25.7474C21.9102 24.7744 22.7012 23.9834 23.6742 23.9834C24.6472 23.9834 25.4382 24.7744 25.4382 25.7474C25.4382 26.7204 24.6472 27.5124 23.6742 27.5124ZM25.3082 41.4564C24.3352 41.4564 23.5442 40.6654 23.5442 39.6924C23.5442 38.7194 24.3352 37.9284 25.3082 37.9284C26.0902 37.9284 26.7472 38.4424 26.9782 39.1484C26.9832 39.1624 26.9862 39.1754 26.9912 39.1894C27.0392 39.3494 27.0732 39.5164 27.0732 39.6914C27.0722 40.6654 26.2802 41.4564 25.3082 41.4564ZM34.0972 33.9604C33.1242 33.9604 32.3332 33.1694 32.3332 32.1964C32.3332 31.2234 33.1242 30.4324 34.0972 30.4324C35.0702 30.4324 35.8612 31.2234 35.8612 32.1964C35.8612 33.1694 35.0692 33.9604 34.0972 33.9604Z" fill="#0873CB"/>
</g>
</g>
</svg>
