<svg width="53" height="53" viewBox="0 0 53 53" fill="none" xmlns="http://www.w3.org/2000/svg">
<g clip-path="url(#clip0_1783_189)">
<path d="M26.497 9.4248C17.0812 9.4248 9.4209 17.0851 9.4209 26.5009C9.4209 35.9166 17.0812 43.577 26.497 43.577C35.9127 43.577 43.5731 35.9166 43.5731 26.5009C43.5731 17.0851 35.9128 9.4248 26.497 9.4248ZM26.497 40.4722C18.7932 40.4722 12.5256 34.2047 12.5256 26.5009C12.5256 18.7971 18.7932 12.5295 26.497 12.5295C34.2008 12.5295 40.4683 18.7971 40.4683 26.5009C40.4683 34.2047 34.2009 40.4722 26.497 40.4722Z" fill="#0873CB"/>
<path d="M33.1611 20.7457L24.9445 28.9622L19.8327 23.8504C19.2265 23.2442 18.2436 23.2442 17.6373 23.8504C17.0311 24.4567 17.0311 25.4396 17.6373 26.0458L23.8468 32.2553C24.1499 32.5584 24.5472 32.71 24.9444 32.71C25.3416 32.71 25.739 32.5585 26.042 32.2553L35.3563 22.9411C35.9625 22.3348 35.9625 21.352 35.3563 20.7457C34.7502 20.1395 33.7673 20.1395 33.1611 20.7457Z" fill="#0873CB"/>
<path d="M50.7771 15.6165C50.7719 15.6133 45.3552 12.3709 45.3552 12.3709L44.1393 7.33526C43.5998 5.10077 41.5451 3.60729 39.2529 3.78509L33.0803 4.2628C33.0803 4.2628 29.5246 1.12474 29.5176 1.11884C27.7678 -0.371644 25.2276 -0.371644 23.4777 1.11884C23.4708 1.12474 19.915 4.2628 19.915 4.2628L13.7424 3.78509C11.4686 3.60853 9.4297 5.07593 8.86982 7.27958L7.17711 12.6731C7.17711 12.6731 2.2295 15.6125 2.22298 15.6165C0.264612 16.8201 -0.52037 19.2359 0.356615 21.3608L2.46867 26.479L0.356615 31.597C-0.52037 33.7219 0.264612 36.1377 2.22308 37.3413C2.22908 37.3451 7.63527 40.5663 7.63527 40.5663L8.85626 45.6226C9.36668 47.7368 11.2335 49.1873 13.3743 49.1871C13.7017 49.1871 13.3339 49.1995 19.851 48.7C19.851 48.7 23.472 51.8776 23.4778 51.8825C24.3527 52.6277 25.4252 53.0004 26.4978 53.0004C27.5703 53.0004 28.6429 52.6277 29.5178 51.8825C29.5236 51.8775 33.1446 48.7 33.1446 48.7L39.253 49.1728C41.5445 49.3499 43.6 47.8571 44.1394 45.6226L45.3553 40.5868C51.9836 36.6192 50.5782 37.4641 50.7772 37.3412C52.7355 36.1376 53.5204 33.7218 52.6435 31.5969L50.5314 26.4788L52.6435 21.3606C53.5203 19.2359 52.7355 16.8202 50.7771 15.6165ZM47.4169 27.0712L49.7734 32.7815C50.0649 33.4875 49.8058 34.29 49.1577 34.6925L43.2018 38.2577C42.8444 38.4716 42.5879 38.8202 42.4901 39.2252L41.1212 44.8941C40.9415 45.6389 40.2576 46.1363 39.4925 46.0775L32.732 45.5542C32.3157 45.522 31.9026 45.6593 31.5883 45.9352L27.4971 49.5254C26.9164 50.0141 26.079 50.0141 25.4983 49.5252L21.4073 45.9352C21.0929 45.6593 20.6797 45.5217 20.2636 45.5542L13.5031 46.0775C12.7386 46.1364 12.0541 45.6389 11.8744 44.894L10.5001 39.2027C10.4021 38.7967 10.1445 38.4474 9.78571 38.2335L3.84127 34.6915C3.19404 34.2888 2.93552 33.487 3.22674 32.7814L5.58324 27.0711C5.73982 26.6918 5.73982 26.266 5.58324 25.8867L3.22643 20.1764C2.93541 19.4712 3.19362 18.6698 3.84013 18.2668L9.27343 15.039C9.60212 14.8438 9.84719 14.5341 9.96165 14.1693C11.964 7.78524 11.851 8.15998 11.8742 8.06383C12.0539 7.31911 12.7366 6.8209 13.5029 6.88051L20.3302 7.40894C20.7492 7.44123 21.1625 7.30276 21.4772 7.02509L25.4997 3.47492C26.0796 2.98789 26.9154 2.98789 27.4954 3.47472L31.5181 7.02509C31.8328 7.30297 32.2472 7.44123 32.6651 7.40894L39.4924 6.88051C40.2561 6.82152 40.9414 7.31901 41.1211 8.06394L42.49 13.7328C42.5878 14.1377 42.8443 14.4864 43.2017 14.7004L49.1576 18.2655C49.8057 18.668 50.0649 19.4703 49.7733 20.1764L47.4168 25.8867C47.2604 26.2661 47.2604 26.6919 47.4169 27.0712Z" fill="#0873CB"/>
</g>
<defs>
<clipPath id="clip0_1783_189">
<rect width="53" height="53" fill="white"/>
</clipPath>
</defs>
</svg>
