<svg width="71" height="71" viewBox="0 0 71 71" fill="none" xmlns="http://www.w3.org/2000/svg">
<g id="save-world_8909186" clip-path="url(#clip0_1740_1580)">
<g id="Go Green">
<path id="Vector" d="M65.6846 37.7887C65.2211 37.325 64.6707 36.9572 64.065 36.7063C63.4592 36.4553 62.81 36.3262 62.1543 36.3262C61.4987 36.3262 60.8494 36.4553 60.2437 36.7063C59.638 36.9572 59.0876 37.325 58.624 37.7887L50.0779 46.3349C49.703 45.6408 49.1479 45.0606 48.4711 44.6553C47.7943 44.25 47.0208 44.0346 46.232 44.0318H33.7308C32.6546 42.7292 31.3181 41.6659 29.8071 40.91C28.296 40.1541 26.6436 39.7223 24.9559 39.6422C23.2682 39.562 21.5824 39.8354 20.0065 40.4448C18.4306 41.0542 16.9994 41.9861 15.8047 43.1808L11.0064 47.9792L9.58308 46.5559C9.48089 46.4537 9.35956 46.3725 9.22602 46.3172C9.09247 46.2619 8.94933 46.2334 8.80478 46.2334C8.66023 46.2334 8.51709 46.2619 8.38354 46.3172C8.25 46.3725 8.12867 46.4537 8.02648 46.5559L3.62329 50.9591C3.52104 51.0613 3.43994 51.1826 3.3846 51.3162C3.32926 51.4497 3.30078 51.5928 3.30078 51.7374C3.30078 51.8819 3.32926 52.0251 3.3846 52.1586C3.43994 52.2922 3.52104 52.4135 3.62329 52.5157L21.2361 70.1285C21.3383 70.2307 21.4596 70.3118 21.5931 70.3672C21.7267 70.4225 21.8698 70.451 22.0144 70.451C22.1589 70.451 22.3021 70.4225 22.4356 70.3672C22.5691 70.3118 22.6905 70.2307 22.7927 70.1285L27.1959 65.7253C27.2981 65.6231 27.3792 65.5018 27.4345 65.3682C27.4899 65.2347 27.5184 65.0915 27.5184 64.947C27.5184 64.8024 27.4899 64.6593 27.4345 64.5257C27.3792 64.3922 27.2981 64.2709 27.1959 64.1687L25.7726 62.7453L27.0072 61.5107C27.628 60.8938 28.4669 60.5464 29.3421 60.5437H45.4306C46.8768 60.5478 48.3095 60.2649 49.6457 59.7114C50.9818 59.1579 52.1949 58.3448 53.2147 57.3193L65.6846 44.8493C66.1483 44.3857 66.5161 43.8354 66.7671 43.2296C67.018 42.6239 67.1472 41.9747 67.1472 41.319C67.1472 40.6633 67.018 40.0141 66.7671 39.4084C66.5161 38.8026 66.1483 38.2523 65.6846 37.7887ZM22.0144 67.7935L5.95821 51.7374L8.80481 48.8908L24.861 64.9469L22.0144 67.7935ZM64.128 43.2927L51.658 55.7627C50.8421 56.583 49.8716 57.2334 48.8027 57.6762C47.7337 58.1189 46.5876 58.3453 45.4306 58.3421H29.3421C28.6191 58.3402 27.9029 58.4816 27.2349 58.7583C26.5669 59.035 25.9605 59.4415 25.4506 59.9541L24.216 61.1887L12.563 49.5358L17.3613 44.7375C18.352 43.747 19.541 42.9773 20.8503 42.4791C22.1597 41.9809 23.5596 41.7655 24.9581 41.847C26.3566 41.9285 27.7221 42.305 28.9647 42.9519C30.2073 43.5988 31.2989 44.5013 32.1678 45.6002L32.3371 45.8146C32.4401 45.9452 32.5713 46.0507 32.7209 46.1232C32.8705 46.1957 33.0346 46.2334 33.2008 46.2334H46.232C46.8159 46.2334 47.3759 46.4653 47.7887 46.8782C48.2016 47.2911 48.4336 47.8511 48.4336 48.435C48.4336 49.0189 48.2016 49.5788 47.7887 49.9917C47.3759 50.4046 46.8159 50.6366 46.232 50.6366H30.8208C30.5288 50.6366 30.2488 50.7525 30.0424 50.959C29.836 51.1654 29.72 51.4454 29.72 51.7374C29.72 52.0293 29.836 52.3093 30.0424 52.5157C30.2488 52.7222 30.5288 52.8382 30.8208 52.8382H46.232C47.3088 52.8348 48.3468 52.4361 49.1491 51.7179C49.9513 50.9997 50.4619 50.0119 50.5839 48.942L60.1807 39.3453C60.7124 38.8376 61.4192 38.5543 62.1544 38.5543C62.8895 38.5543 63.5964 38.8376 64.1281 39.3453C64.3873 39.6044 64.5929 39.9121 64.7331 40.2508C64.8734 40.5894 64.9456 40.9524 64.9456 41.3189C64.9456 41.6855 64.8734 42.0485 64.7331 42.3871C64.5929 42.7258 64.3872 43.0335 64.128 43.2927Z" fill="#003E71"/>
<path id="Vector_2" d="M21.7339 22.432C21.7185 22.4535 21.6954 22.4657 21.6814 22.4886C21.6777 22.4946 21.678 22.5015 21.6745 22.5076C18.3266 26.7597 16.5079 32.0154 16.5117 37.4274C16.5117 37.6074 16.5128 37.7864 16.5252 37.9659C16.5445 38.2438 16.6685 38.504 16.872 38.6941C17.0756 38.8842 17.3437 38.9901 17.6222 38.9904C17.648 38.9904 17.6738 38.9893 17.6996 38.9877C17.8438 38.9777 17.9846 38.9394 18.114 38.875C18.2435 38.8105 18.3589 38.7212 18.4538 38.6122C18.5487 38.5031 18.6211 38.3764 18.6671 38.2394C18.713 38.1023 18.7314 37.9575 18.7214 37.8133C18.7122 37.6843 18.7133 37.5558 18.7133 37.4274C18.7143 32.8005 20.1827 28.2931 22.9073 24.5536C26.0204 26.5863 27.8425 28.5501 27.9175 30.0131C27.8024 31.4047 27.3628 32.75 26.6339 33.9412C26.3098 34.6103 25.9696 35.3145 25.6557 36.0686C25.6001 36.2021 25.5714 36.3452 25.5712 36.4897C25.5709 36.6343 25.5992 36.7775 25.6543 36.9112C25.7656 37.1811 25.9795 37.3958 26.2491 37.508C26.3826 37.5635 26.5257 37.5923 26.6703 37.5925C26.8148 37.5928 26.958 37.5645 27.0917 37.5094C27.3616 37.3981 27.5763 37.1842 27.6885 36.9146C27.9857 36.2008 28.3088 35.5343 28.6157 34.9006C29.5296 33.3857 30.0457 31.6643 30.1159 29.8965C30.002 27.6762 28.03 25.3021 24.2923 22.8315C25.9777 20.9237 27.9796 19.3208 30.2098 18.0933C32.3538 22.2713 34.9336 24.4763 37.7505 24.4763C37.9554 24.4764 38.1602 24.4649 38.3638 24.4419C40.3154 24.3177 42.1781 23.5809 43.6866 22.3365C44.6557 21.5872 45.0572 21.2776 47.2793 22.0538C49.3546 22.7763 51.5423 21.8705 53.5243 19.5198C55.2399 20.7489 56.77 22.218 58.0677 23.8822C56.7427 25.2973 55.7 26.9524 54.9957 28.7586C54.0567 30.8086 53.4218 32.0712 52.2544 32.1808C51.4961 32.228 50.7355 32.2248 49.9776 32.1712C47.0729 32.0282 43.4604 31.8589 40.8798 36.9318C40.2947 38.0749 39.9015 39.3064 39.7162 40.5771C39.6757 40.8662 39.7517 41.1596 39.9275 41.3926C40.1033 41.6257 40.3645 41.7793 40.6536 41.8198C40.7046 41.8271 40.7562 41.8307 40.8078 41.8306C41.073 41.8302 41.3292 41.7341 41.5292 41.5599C41.7292 41.3857 41.8595 41.1451 41.8962 40.8824C42.0459 39.8514 42.3662 38.8525 42.8438 37.9267C44.7767 34.1266 47.0277 34.2379 49.8727 34.3701C50.733 34.4303 51.5965 34.4314 52.457 34.3733C54.9537 34.1379 55.9927 31.8691 56.9973 29.675C57.5662 28.2356 58.3631 26.897 59.3574 25.7108C60.8296 28.0405 61.8473 30.628 62.3567 33.3365C62.3831 33.4787 62.4373 33.6142 62.5162 33.7355C62.595 33.8567 62.697 33.9612 62.8163 34.043C62.9356 34.1248 63.0698 34.1823 63.2113 34.2122C63.3528 34.2422 63.4988 34.2439 63.641 34.2173C63.7831 34.1908 63.9187 34.1365 64.0398 34.0575C64.161 33.9785 64.2654 33.8764 64.3471 33.7571C64.4288 33.6378 64.4862 33.5035 64.516 33.3619C64.5458 33.2204 64.5473 33.0744 64.5207 32.9323C63.5072 27.5766 60.7152 22.72 56.5969 19.1493C52.4786 15.5786 47.2753 13.5029 41.8301 13.2586V12.0423C41.8302 11.4258 42.0036 10.8218 42.3306 10.2991C42.6575 9.77646 43.1248 9.35624 43.6792 9.08643C44.2916 9.80005 45.051 10.3729 45.9054 10.7657C46.7599 11.1585 47.6891 11.3621 48.6295 11.3624C49.5212 11.3548 50.4052 11.1959 51.2439 10.8926C52.6479 10.4012 53.9796 9.72323 55.2031 8.87705C55.7328 8.40165 56.3844 8.08315 57.0849 7.95727C57.7855 7.83138 58.5072 7.90308 59.1693 8.16433C59.3922 8.22152 59.6275 8.20738 59.842 8.12389C60.0566 8.04041 60.2395 7.89178 60.3652 7.69891C60.4908 7.50604 60.5529 7.27863 60.5425 7.04867C60.5322 6.81871 60.4501 6.59777 60.3077 6.41692C60.0718 6.11695 54.4667 -0.904407 49.0713 0.100182C43.8633 1.07091 43.2533 4.22972 42.9994 6.96909C42.0963 7.35171 41.3123 7.96961 40.7294 8.75836C40.1464 7.96947 39.3624 7.35144 38.4592 6.96875C38.2052 4.22948 37.5951 1.07084 32.3873 0.100182C26.9913 -0.909779 21.3868 6.11749 21.1509 6.41687C21.0085 6.59773 20.9263 6.81867 20.916 7.04863C20.9057 7.27859 20.9678 7.50599 21.0934 7.69886C21.2191 7.89174 21.402 8.04037 21.6165 8.12385C21.831 8.20734 22.0663 8.22148 22.2893 8.16428C22.9514 7.90288 23.6731 7.83111 24.3737 7.957C25.0742 8.08289 25.7259 8.40147 26.2555 8.87701C27.479 9.7232 28.8107 10.4011 30.2147 10.8926C31.0533 11.1962 31.9373 11.3551 32.8291 11.3624C33.7695 11.362 34.6988 11.1584 35.5532 10.7656C36.4076 10.3727 37.167 9.7999 37.7795 9.08628C38.3338 9.35612 38.8011 9.77637 39.1281 10.2991C39.455 10.8217 39.6284 11.4258 39.6285 12.0423V13.2377C36.16 13.3933 32.7659 14.2952 29.6777 15.8819C26.5896 17.4686 23.88 19.7028 21.7339 22.432ZM49.4744 2.26415C51.8862 1.81104 54.7693 3.90568 56.7323 5.78101C55.7372 5.9878 54.8018 6.41685 53.9959 7.03607C52.9213 7.7835 51.7503 8.3818 50.515 8.81466C49.7532 9.14704 48.9141 9.26166 48.0911 9.14579C47.268 9.02992 46.4932 8.6881 45.8527 8.15831L48.7622 6.93718C48.8959 6.8815 49.0173 6.79999 49.1194 6.69731C49.2216 6.59463 49.3024 6.47281 49.3574 6.33882C49.4123 6.20484 49.4403 6.06133 49.4397 5.91651C49.4391 5.77169 49.4099 5.62841 49.3539 5.49489C49.2978 5.36137 49.2159 5.24023 49.1129 5.13841C49.0099 5.03658 48.8879 4.95609 48.7537 4.90153C48.6196 4.84696 48.476 4.81941 48.3312 4.82045C48.1863 4.82149 48.0432 4.85109 47.9098 4.90757L45.3317 5.98975C45.6377 4.10677 46.4107 2.83551 49.4744 2.26415ZM30.9436 8.81466C29.7083 8.3818 28.5373 7.78349 27.4627 7.03607C26.6561 6.41591 25.7195 5.98663 24.7231 5.7805C26.6828 3.90463 29.5574 1.81322 31.9842 2.26418C35.0479 2.8354 35.8208 4.10691 36.1268 5.98959L33.5488 4.90757C33.4156 4.85159 33.2726 4.82242 33.1281 4.8217C32.9835 4.82099 32.8402 4.84875 32.7064 4.9034C32.5726 4.95806 32.4509 5.03853 32.3482 5.14023C32.2455 5.24193 32.1638 5.36287 32.1078 5.49613C32.0518 5.6294 32.0227 5.77238 32.0219 5.91692C32.0212 6.06147 32.049 6.20473 32.1036 6.33855C32.1583 6.47236 32.2388 6.59409 32.3405 6.69681C32.4422 6.79952 32.5631 6.88119 32.6964 6.93717L35.6063 8.15836C34.9656 8.68783 34.1907 9.02944 33.3677 9.14529C32.5446 9.26114 31.7055 9.14669 30.9436 8.81466ZM48.0049 19.9748C44.8895 18.8879 43.7387 19.5141 42.3401 20.5945C41.1496 21.5888 39.6692 22.1709 38.1202 22.2538C35.5122 22.5527 33.413 19.5283 32.1783 17.1405C35.2978 15.8254 38.6786 15.2474 42.0578 15.4514C45.437 15.6555 48.7236 16.6361 51.6622 18.317C50.7083 19.391 49.3626 20.4491 48.0049 19.9748Z" fill="#003E71"/>
</g>
</g>
<defs>
<clipPath id="clip0_1740_1580">
<rect width="70.4511" height="70.4511" fill="white"/>
</clipPath>
</defs>
</svg>
