<svg width="75" height="43" viewBox="0 0 75 43" fill="none" xmlns="http://www.w3.org/2000/svg">
<path id="Vector" d="M70.4697 25.4234C72.4147 27.5791 73.7114 30.3402 74.0429 33.4241C74.0805 33.7733 73.9671 34.1222 73.7314 34.3833C73.4957 34.6443 73.1598 34.7934 72.8073 34.7934H57.2901C56.1341 34.7934 55.197 35.7305 55.197 36.8865C55.197 39.9974 52.6552 42.5277 49.5316 42.5277H25.4683C22.3445 42.5277 19.8029 39.9974 19.8029 36.8865C19.8029 35.7305 18.8657 34.7934 17.7097 34.7934H2.19259C1.84007 34.7934 1.5041 34.6443 1.26844 34.3833C1.03277 34.1222 0.91948 33.7736 0.957085 33.4242M70.4697 25.4234L0.957085 33.4242M70.4697 25.4234C69.4521 24.2954 68.7484 22.5434 68.2995 20.686C67.8509 18.8299 67.6582 16.875 67.6582 15.3471C67.6582 11.0331 64.1336 7.524 59.8015 7.524C55.4693 7.524 51.9447 11.0331 51.9447 15.3471C51.9447 16.7582 52.3221 18.0831 52.9817 19.2272C53.3097 19.7962 53.4047 20.5273 53.2763 21.2041C53.1479 21.8809 52.7975 22.4968 52.2426 22.8411C51.4985 23.3027 50.5107 23.2149 49.8822 22.6078C49.734 22.4646 49.5831 22.3238 49.4294 22.1854C48.301 21.1693 47.5434 19.4376 47.1377 17.5776C46.7322 15.7186 46.68 13.7405 46.955 12.2394C47.0573 11.6812 47.1107 11.1063 47.1107 10.5191C47.1107 5.24258 42.7994 0.95 37.5003 0.95C32.2012 0.95 27.8899 5.24258 27.8899 10.5191C27.8899 11.1062 27.9433 11.681 28.0455 12.2391C28.3204 13.7401 28.2682 15.7184 27.8626 17.5774C27.4568 19.4375 26.6992 21.1693 25.5708 22.1854C25.4171 22.3237 25.2662 22.4645 25.118 22.6077C24.4895 23.2148 23.5015 23.3026 22.7574 22.8409C22.2026 22.4967 21.8522 21.8809 21.7238 21.2042C21.5955 20.5274 21.6905 19.7964 22.0185 19.2274C22.6781 18.0832 23.0556 16.7582 23.0556 15.3469C23.0556 11.033 19.531 7.52385 15.1988 7.52385C10.8667 7.52385 7.34208 11.033 7.34208 15.3469C7.34208 16.875 7.14937 18.8298 6.70075 20.6858C6.25183 22.5431 5.54817 24.295 4.53044 25.423C2.58533 27.5788 1.2885 30.3401 0.957085 33.4242M70.4697 25.4234L0.957085 33.4242M37.4982 20.0883L37.4981 20.0884L37.5019 20.0883L37.5039 20.0881C37.5042 20.0881 37.5045 20.0881 37.5048 20.0881C45.3242 20.0906 51.8496 25.9037 52.7116 33.6231L52.7119 36.8865C52.7119 38.6321 51.2854 40.0527 49.5317 40.0527H25.4683C23.7146 40.0527 22.2881 38.6321 22.2881 36.8865V33.6233C23.15 25.9037 29.6755 20.0906 37.495 20.0881C37.4953 20.0881 37.4957 20.0881 37.496 20.0881L37.4982 20.0883ZM59.8015 9.99885C62.7634 9.99885 65.1729 12.3981 65.1729 15.3469C65.1729 18.2956 62.7636 20.6949 59.8015 20.6949C56.8393 20.6949 54.43 18.2956 54.43 15.3469C54.43 12.3983 56.8395 9.99885 59.8015 9.99885ZM30.375 10.5191C30.375 6.60773 33.5711 3.425 37.5002 3.425C41.4292 3.425 44.6253 6.60773 44.6253 10.5191C44.6253 14.4292 41.4313 17.6111 37.504 17.6131H37.5H37.4961C33.569 17.6111 30.375 14.4292 30.375 10.5191ZM15.1988 9.99885C18.1608 9.99885 20.5703 12.3981 20.5703 15.3469C20.5703 18.2956 18.161 20.6949 15.1988 20.6949C12.2367 20.6949 9.82737 18.2956 9.82737 15.3469C9.82737 12.3983 12.2367 9.99885 15.1988 9.99885ZM20.8772 29.0049C20.165 30.8607 18.5165 32.3186 16.5402 32.3186H13.3791C10.8845 32.3186 8.77638 31.039 7.83238 29.4544C7.36072 28.6627 7.1808 27.7973 7.38404 26.9771C7.58716 26.1574 8.17484 25.3754 9.2532 24.7537C11.0046 23.7438 13.0377 23.17 15.1987 23.17C16.6409 23.17 18.0484 23.4282 19.3652 23.9215C20.3382 24.286 20.9036 25.0637 21.1327 25.9979C21.3622 26.9335 21.2535 28.0244 20.8772 29.0049ZM58.4596 32.3184C56.4835 32.3184 54.835 30.8606 54.1228 29.005C53.7465 28.0244 53.6378 26.9336 53.8672 25.998C54.0963 25.0639 54.6617 24.2861 55.6347 23.9216C56.9515 23.4283 58.3591 23.1702 59.8013 23.1702C61.9622 23.1702 63.9953 23.7439 65.7467 24.7537C66.825 25.3754 67.4127 26.1574 67.6159 26.9771C67.8191 27.7972 67.6392 28.6627 67.1675 29.4544C66.2235 31.0389 64.1154 32.3185 61.6207 32.3185L58.4596 32.3184Z" fill="white" stroke="white" stroke-width="0.1"/>
</svg>
