<svg width="60" height="60" viewBox="0 0 60 60" fill="none" xmlns="http://www.w3.org/2000/svg">
<g id="sprinkler_1843754" clip-path="url(#clip0_1633_649)">
<g id="Group">
<path id="Vector" fill-rule="evenodd" clip-rule="evenodd" d="M40.1602 22.6421C40.1602 21.6804 39.3805 20.9003 38.4184 20.9003H34.9349V16.0097L42.7588 11.5891C43.3058 11.2797 43.6437 10.7005 43.6437 10.0723V1.74125C43.6437 0.779192 42.864 -0.000522976 41.902 -0.000522976C40.9399 -0.000522976 40.1602 0.779192 40.1602 1.74125V9.05578L33.9184 12.5829C33.3033 11.7483 32.446 11.1024 31.4513 10.7495V1.74079C31.4513 0.778738 30.6716 -0.000976562 29.7096 -0.000976562C28.7475 -0.000976562 27.9678 0.778738 27.9678 1.74079V10.7495C26.9604 11.1069 26.0945 11.7646 25.4776 12.6151L19.2589 9.06168V1.74125C19.2589 0.779192 18.4792 -0.000522976 17.5172 -0.000522976C16.5551 -0.000522976 15.7754 0.779192 15.7754 1.74125V10.0723C15.7754 10.6973 16.1101 11.2747 16.6531 11.5845L24.4842 16.0596V20.9003H21.0007C20.0386 20.9003 19.2589 21.68 19.2589 22.6421C19.2589 23.6041 20.0386 24.3838 21.0007 24.3838H38.4184C39.3805 24.3838 40.1602 23.6041 40.1602 22.6421ZM27.9678 20.9003V15.675C27.9678 14.7147 28.7493 13.9332 29.7096 13.9332C30.6703 13.9332 31.4513 14.7147 31.4513 15.675V20.9003H27.9678Z" fill="#10C08E"/>
<path id="Vector_2" fill-rule="evenodd" clip-rule="evenodd" d="M29.7105 28.0996C28.7512 28.0996 27.9688 28.8825 27.9688 29.8414C27.9688 30.8007 28.7512 31.5832 29.7105 31.5832C30.6699 31.5832 31.4523 30.8007 31.4523 29.8414C31.4523 28.882 30.6699 28.0996 29.7105 28.0996Z" fill="#10C08E"/>
<path id="Vector_3" fill-rule="evenodd" clip-rule="evenodd" d="M29.7105 35.0664C28.7512 35.0664 27.9688 35.8488 27.9688 36.8082C27.9688 37.7675 28.7512 38.5499 29.7105 38.5499C30.6699 38.5499 31.4523 37.7675 31.4523 36.8082C31.4523 35.8488 30.6699 35.0664 29.7105 35.0664Z" fill="#10C08E"/>
<path id="Vector_4" fill-rule="evenodd" clip-rule="evenodd" d="M29.7105 42.0332C28.7512 42.0332 27.9688 42.8161 27.9688 43.775C27.9688 44.7343 28.7512 45.5167 29.7105 45.5167C30.6699 45.5167 31.4523 44.7343 31.4523 43.775C31.4523 42.8156 30.6699 42.0332 29.7105 42.0332Z" fill="#10C08E"/>
<path id="Vector_5" fill-rule="evenodd" clip-rule="evenodd" d="M29.7105 49.001C28.7512 49.001 27.9688 49.7834 27.9688 50.7427C27.9688 51.7021 28.7512 52.4845 29.7105 52.4845C30.6699 52.4845 31.4523 51.7021 31.4523 50.7427C31.4523 49.7834 30.6699 49.001 29.7105 49.001Z" fill="#10C08E"/>
<path id="Vector_6" fill-rule="evenodd" clip-rule="evenodd" d="M29.7105 55.9678C28.7512 55.9678 27.9688 56.7502 27.9688 57.7095C27.9688 58.6689 28.7512 59.4513 29.7105 59.4513C30.6699 59.4513 31.4523 58.6689 31.4523 57.7095C31.4523 56.7502 30.6699 55.9678 29.7105 55.9678Z" fill="#10C08E"/>
<path id="Vector_7" fill-rule="evenodd" clip-rule="evenodd" d="M21.5557 43.2406C20.7919 42.655 19.6987 42.7997 19.1136 43.5631C18.528 44.3269 18.6727 45.4201 19.4361 46.0052C20.1995 46.5908 21.2931 46.4461 21.8782 45.6827C22.4638 44.9188 22.3191 43.8257 21.5557 43.2406Z" fill="#10C08E"/>
<path id="Vector_8" fill-rule="evenodd" clip-rule="evenodd" d="M17.3153 48.7689C16.5519 48.1833 15.4583 48.328 14.8732 49.0914C14.2881 49.8552 14.4323 50.9484 15.1957 51.5335C15.9595 52.1191 17.0527 51.9744 17.6383 51.211C18.2234 50.4476 18.0787 49.354 17.3153 48.7689Z" fill="#10C08E"/>
<path id="Vector_9" fill-rule="evenodd" clip-rule="evenodd" d="M40.2931 43.4892C39.6699 42.7566 38.5708 42.6677 37.8378 43.291C37.1053 43.9142 37.0164 45.0132 37.6396 45.7462C38.2624 46.4788 39.3619 46.5677 40.0944 45.9445C40.8274 45.3212 40.9163 44.2222 40.2931 43.4892Z" fill="#10C08E"/>
<path id="Vector_10" fill-rule="evenodd" clip-rule="evenodd" d="M44.8072 48.7968C44.1839 48.0643 43.0844 47.9754 42.3519 48.5986C41.6189 49.2214 41.53 50.3209 42.1532 51.0534C42.7765 51.7864 43.8755 51.8753 44.6085 51.2521C45.341 50.6288 45.4299 49.5298 44.8072 48.7968Z" fill="#10C08E"/>
<path id="Vector_11" fill-rule="evenodd" clip-rule="evenodd" d="M36.6131 31.8175C35.7798 31.3367 34.7148 31.622 34.2335 32.4553C33.7527 33.2881 34.0381 34.3535 34.8713 34.8343C35.7041 35.3151 36.7695 35.0298 37.2504 34.197C37.7312 33.3638 37.4458 32.2988 36.6131 31.8175Z" fill="#10C08E"/>
<path id="Vector_12" fill-rule="evenodd" clip-rule="evenodd" d="M42.646 35.3009C41.8132 34.8201 40.7478 35.1054 40.267 35.9387C39.7857 36.7715 40.0715 37.8369 40.9043 38.3177C41.7375 38.799 42.8025 38.5132 43.2838 37.6804C43.7646 36.8472 43.4793 35.7822 42.646 35.3009Z" fill="#10C08E"/>
<path id="Vector_13" fill-rule="evenodd" clip-rule="evenodd" d="M48.6795 38.7853C47.8462 38.3045 46.7808 38.5898 46.3 39.423C45.8192 40.2558 46.1045 41.3213 46.9377 41.8021C47.7705 42.2829 48.836 41.9976 49.3168 41.1648C49.7976 40.3316 49.5123 39.2666 48.6795 38.7853Z" fill="#10C08E"/>
<path id="Vector_14" fill-rule="evenodd" clip-rule="evenodd" d="M54.7145 42.2687C53.8812 41.7879 52.8162 42.0732 52.3354 42.906C51.8542 43.7392 52.1395 44.8043 52.9727 45.2855C53.806 45.7663 54.871 45.481 55.3518 44.6478C55.833 43.815 55.5477 42.7495 54.7145 42.2687Z" fill="#10C08E"/>
<path id="Vector_15" fill-rule="evenodd" clip-rule="evenodd" d="M25.1839 32.4529C24.7031 31.6201 23.6377 31.3348 22.8049 31.8156C21.9716 32.2964 21.6863 33.3619 22.1671 34.1947C22.6484 35.0279 23.7134 35.3132 24.5467 34.8324C25.3794 34.3511 25.6652 33.2861 25.1839 32.4529Z" fill="#10C08E"/>
<path id="Vector_16" fill-rule="evenodd" clip-rule="evenodd" d="M19.1488 35.9367C18.668 35.1035 17.6025 34.8182 16.7697 35.299C15.9365 35.7802 15.6512 36.8453 16.132 37.6785C16.6132 38.5113 17.6783 38.797 18.5115 38.3158C19.3443 37.835 19.63 36.7695 19.1488 35.9367Z" fill="#10C08E"/>
<path id="Vector_17" fill-rule="evenodd" clip-rule="evenodd" d="M13.1156 39.4201C12.6348 38.5869 11.5693 38.3016 10.7365 38.7824C9.90329 39.2636 9.61798 40.3287 10.0988 41.1619C10.58 41.9947 11.6451 42.2804 12.4783 41.7992C13.3111 41.3184 13.5964 40.2529 13.1156 39.4201Z" fill="#10C08E"/>
<path id="Vector_18" fill-rule="evenodd" clip-rule="evenodd" d="M7.08225 42.9033C6.60144 42.0705 5.53642 41.7847 4.70318 42.266C3.86995 42.7468 3.58464 43.8123 4.0659 44.6451C4.5467 45.4783 5.61172 45.7636 6.44496 45.2828C7.27819 44.8015 7.5635 43.7365 7.08225 42.9033Z" fill="#10C08E"/>
</g>
</g>
<defs>
<clipPath id="clip0_1633_649">
<rect width="59.4526" height="59.4526" fill="white"/>
</clipPath>
</defs>
</svg>
