<svg width="182" height="85" viewBox="0 0 182 85" fill="none" xmlns="http://www.w3.org/2000/svg">
<g id="Layer_1" clip-path="url(#clip0_862_3471)">
<path id="Vector" d="M7.28561 42.2138H0.764648L13.7332 10.1736C14.8413 7.49946 16.5864 5.36698 18.9685 3.77993C21.3507 2.19288 24.0301 1.39746 27.0106 1.39746C29.9912 1.39746 32.6745 2.19288 35.0528 3.77993C37.4349 5.36698 39.153 7.49946 40.2186 10.1736L53.2566 42.2176H46.7395L43.203 33.5097H10.8221L7.28561 42.2176V42.2138ZM13.2506 27.5175H40.7823L34.6088 12.4159C33.9602 10.8289 32.9679 9.5827 31.6282 8.67365C30.2885 7.76839 28.7403 7.31386 26.9836 7.31386C25.8756 7.31386 24.81 7.5184 23.7946 7.92747C22.7753 8.33654 21.8989 8.92743 21.1576 9.69633C20.4163 10.469 19.8411 11.3743 19.4241 12.4159L13.2506 27.5175Z" fill="#10C08E"/>
<path id="Vector_2" d="M181.28 42.2138H154.096C149.888 42.2138 146.282 40.7404 143.278 37.7936C140.27 34.8467 138.772 31.309 138.772 27.1804V16.4309C138.772 12.3061 140.274 8.76835 143.278 5.81772C146.282 2.87088 149.888 1.39746 154.096 1.39746H181.28V7.31765H154.096C151.552 7.31765 149.37 8.21534 147.544 10.0031C145.718 11.7947 144.807 13.9386 144.807 16.4309V27.1804C144.807 29.6765 145.718 31.8166 147.544 33.6082C149.37 35.3997 151.556 36.2936 154.096 36.2936H181.28V42.2138Z" fill="#10C08E"/>
<g id="Group">
<path id="Vector_3" d="M112.526 29.1151C112.526 29.1151 112.935 30.9787 115.309 31.7476C117.684 32.5165 125.741 34.4028 127.907 36.2853C130.077 38.1715 132.741 40.2775 128.869 48.9097C128.869 48.9097 128.108 44.7621 123.166 42.8456C118.228 40.929 115.113 39.4859 113.375 37.1451C111.642 34.8043 112.07 32.9596 112.522 29.1113L112.526 29.1151Z" fill="#10C08E"/>
<path id="Vector_4" d="M113.771 0H73.0506C68.6686 0 64.5915 1.28403 61.1901 3.49227C55.3719 7.26862 51.5342 13.7494 51.5342 21.1051C51.5342 32.7637 61.167 42.214 73.0506 42.214H113.771C114.875 42.214 115.956 42.1307 117.014 41.9754C114.921 40.9035 113.207 39.7028 112.03 38.1119C111.868 37.896 111.729 37.6801 111.597 37.4718C103.161 36.6082 96.5863 29.6123 96.5863 21.1089C96.5863 12.0222 104.096 4.6551 113.358 4.6551C122.62 4.6551 130.129 12.0222 130.129 21.1089C130.129 25.7792 128.137 29.9873 124.952 32.9834C126.72 33.6387 128.156 34.3242 129.014 35.0704L129.122 35.1651C129.249 35.2787 129.376 35.3924 129.504 35.506C133.091 31.7334 135.291 26.6768 135.291 21.1127C135.291 9.45412 125.658 0.00378771 113.775 0.00378771L113.771 0Z" fill="#10C08E"/>
</g>
<g id="Group_2">
<path id="Vector_5" d="M0.120401 66.5102C0.0972358 66.1807 0.093375 65.7299 0.104957 65.1542C0.11654 64.5785 0.135844 63.9421 0.170592 63.2414C0.201478 62.5445 0.240087 61.8021 0.286417 61.0218C0.328886 60.2415 0.367495 59.4726 0.402242 58.7151C0.433129 57.9575 0.467876 57.2379 0.498763 56.5561C0.52965 55.8743 0.556676 55.2758 0.579841 54.7683C0.603006 54.4085 0.62231 54.0524 0.645475 53.7077C0.66864 53.4123 0.676362 53.0903 0.676362 52.7457C0.676362 52.401 0.653197 52.0866 0.610728 51.8101C0.784465 51.7608 0.927316 51.7116 1.03542 51.6624C1.14352 51.6131 1.25163 51.5601 1.36359 51.5033C1.47169 51.4465 1.59524 51.3783 1.73809 51.3063C1.88094 51.2306 2.08171 51.1548 2.34038 51.0715C2.49096 51.0222 2.65697 50.9806 2.83071 50.9465C2.98128 50.9124 3.15116 50.8897 3.33648 50.8707C3.5218 50.8556 3.72256 50.8556 3.93877 50.8707C4.30941 51.7912 4.68391 52.6434 5.06614 53.4237C5.4445 54.2039 5.83444 54.9615 6.22439 55.6925C6.61433 56.4235 7.02744 57.1546 7.46372 57.8856C7.89999 58.6166 8.34399 59.4007 8.79957 60.2415C9.27831 61.0976 9.71459 61.8778 10.1045 62.5861C10.4945 63.2944 10.8226 63.9118 11.0813 64.4345C11.1238 63.8436 11.1663 63.1808 11.2126 62.4498C11.2551 61.7187 11.2898 60.965 11.3091 60.1923C11.3323 59.4196 11.3477 58.6583 11.3593 57.9121C11.3709 57.1659 11.3825 56.4652 11.3902 55.8137C11.4018 55.166 11.4056 54.5941 11.4056 54.0979V53.0108C11.4056 52.6017 11.5523 52.257 11.8458 51.9881C12.1392 51.7154 12.4751 51.4995 12.8573 51.3328C13.2357 51.17 13.6179 51.0525 14.0001 50.9882C14.3785 50.9238 14.6565 50.8897 14.8302 50.8897C14.9615 50.8897 15.0696 50.8973 15.1584 50.9162C15.2433 50.9313 15.3282 50.9503 15.4016 50.9654C15.4788 50.9806 15.5367 51.0071 15.5792 51.0412C15.2086 51.42 14.9383 51.8215 14.7646 52.2495C14.5908 52.6775 14.4673 53.1055 14.3901 53.5335C14.3128 53.9615 14.2742 54.3819 14.2742 54.791V55.9273C14.2511 56.7493 14.2202 57.7606 14.1777 58.9613C14.1353 59.9953 14.1005 61.2869 14.0812 62.8323C14.058 64.3777 14.0503 66.2261 14.0503 68.3813C13.5947 68.6616 13.17 68.9002 12.7801 69.0972C12.3902 69.2942 11.8882 69.3586 11.2782 69.2942C11.0157 69.279 10.8033 69.1957 10.6412 69.048C10.479 68.9002 10.3169 68.6919 10.1509 68.4192C9.98871 68.1465 9.81883 67.8094 9.64509 67.4079C9.47136 67.0064 9.24357 66.5329 8.96172 65.9913C8.45982 65.0368 7.95018 64.0747 7.42897 63.105C6.90776 62.1354 6.40585 61.215 5.9271 60.3438C5.44836 59.4726 5.00822 58.6772 4.6067 57.9651C4.20517 57.2492 3.87314 56.6697 3.6106 56.2266C3.22066 58.4802 3.0392 60.4196 3.07394 62.0483C3.10483 63.677 3.17819 64.8701 3.28629 65.6239C3.35192 65.9534 3.42914 66.2905 3.51408 66.6352C3.59902 66.9306 3.71098 67.2639 3.84225 67.6351C3.97352 68.0063 4.14726 68.3775 4.36346 68.7563C3.99282 69.0366 3.6299 69.226 3.27085 69.3245C2.91179 69.4229 2.59134 69.4873 2.3095 69.5214C1.98133 69.5555 1.6686 69.5441 1.36359 69.4949C1.20916 69.4608 1.06245 69.351 0.923456 69.1616C0.780605 68.9722 0.657058 68.7374 0.548954 68.4571C0.440851 68.1768 0.34819 67.87 0.270974 67.5329C0.193757 67.1958 0.147427 66.8549 0.124262 66.5102H0.120401Z" fill="#003E71" stroke="#003E71" stroke-width="0.5" stroke-miterlimit="10"/>
<path id="Vector_6" d="M27.7245 63.1123C27.7901 63.9267 27.9562 64.6236 28.2187 65.2031C28.4812 65.7864 28.8017 66.2561 29.1723 66.6235C29.5468 66.9871 29.9522 67.2599 30.3924 67.4341C30.8325 67.6083 31.2495 67.6954 31.6433 67.6954C32.0602 67.6954 32.4849 67.5932 32.9096 67.3848C33.3343 67.1765 33.7281 66.8621 34.0795 66.4379C34.4308 66.0137 34.7049 65.491 34.9018 64.8698C35.0987 64.2486 35.1759 63.5138 35.1335 62.6654C35.1335 61.8851 35.1103 60.9571 35.0678 59.8776C35.0254 58.9496 34.9636 57.8019 34.8864 56.4422C34.8092 55.0824 34.6933 53.4802 34.5389 51.6356C34.5157 51.5181 34.6316 51.3893 34.8864 51.2492C35.1373 51.1091 35.4462 50.9879 35.8091 50.8894C36.172 50.7909 36.5388 50.7227 36.9133 50.6886C37.2878 50.6545 37.5928 50.6886 37.8361 50.7871C38.0098 52.2643 38.1372 53.6847 38.2144 55.0445C38.2916 56.4043 38.3418 57.6088 38.3611 58.6542C38.3843 59.8814 38.3843 61.0366 38.3611 62.1161C38.4268 63.4267 38.2607 64.5554 37.8669 65.5024C37.4731 66.4493 36.9326 67.2258 36.2531 67.8318C35.5736 68.4378 34.8053 68.8886 33.9482 69.1878C33.0911 69.487 32.234 69.6347 31.3807 69.6347C30.1067 69.6499 29.0218 69.4605 28.1183 69.0628C27.2187 68.6651 26.489 68.0515 25.9292 67.2182C25.3694 66.3887 24.9563 65.3509 24.6938 64.1047C24.4312 62.8585 24.2999 61.4003 24.2999 59.7223C24.2768 58.908 24.3115 58.0633 24.4003 57.1808C24.466 56.4346 24.5663 55.6089 24.6976 54.7036C24.8289 53.7983 25.0258 52.9158 25.2922 52.0522C25.269 51.6696 25.4389 51.3893 25.8018 51.2037C26.1647 51.0219 26.5663 50.8894 27.0025 50.806C27.5083 50.7227 28.0913 50.6886 28.7476 50.7076C28.4195 52.715 28.184 54.4915 28.0411 56.0369C27.8983 57.5823 27.8056 58.8739 27.7593 59.9231C27.6936 61.1503 27.682 62.2146 27.7245 63.1123Z" fill="#003E71" stroke="#003E71" stroke-width="0.5" stroke-miterlimit="10"/>
<path id="Vector_7" d="M46.6539 53.7495C46.5458 53.651 46.457 53.5336 46.3914 53.401C46.3258 53.2684 46.2717 53.1359 46.2254 53.0033C46.1829 52.8556 46.1482 52.7041 46.125 52.5563V52.1321C46.125 52.0147 46.1366 51.9049 46.1559 51.795C46.1791 51.689 46.2331 51.6018 46.3219 51.5337C47.0014 51.4011 47.7388 51.2988 48.5303 51.2231C49.3218 51.1473 50.0669 51.0791 50.7696 51.011C51.5804 50.9466 52.3834 50.886 53.1749 50.8367C53.395 50.7193 53.5919 50.636 53.7695 50.5867C53.9432 50.5375 54.0861 50.5375 54.198 50.5867C54.2405 50.5867 54.2868 50.6549 54.3293 50.7875H54.4606C55.252 50.7723 56.0087 50.7534 56.7346 50.7382C57.3485 50.7231 57.9585 50.7193 58.5608 50.7269C59.1631 50.7345 59.6302 50.7496 59.9622 50.7648C60.136 50.7799 60.2711 50.8822 60.3561 51.064C60.4449 51.2458 60.4719 51.4806 60.4371 51.7609C60.4062 52.045 60.2981 52.3518 60.1244 52.6813C59.9468 53.0147 59.665 53.329 59.2673 53.6283C58.7615 53.5298 58.2365 53.4578 57.6844 53.4162C57.1361 53.3745 56.6419 53.3366 56.2018 53.3025C55.6536 53.2684 55.1362 53.2533 54.6536 53.2533H54.4876C54.5107 53.9161 54.5223 54.6509 54.5223 55.4577C54.5223 56.2645 54.5185 57.0751 54.5069 57.897C54.4953 58.7189 54.4799 59.5257 54.4567 60.3136C54.4335 61.1014 54.4142 61.8021 54.3911 62.4195V64.9459C54.3911 65.6505 54.4219 66.2489 54.4914 66.7375C54.5571 67.2261 54.6575 67.6201 54.7887 67.9193C54.92 68.2185 55.1053 68.4571 55.3485 68.6427C55.3254 68.6579 55.2675 68.7147 55.1671 68.8056C55.0667 68.8965 54.9354 68.9912 54.7733 69.0935C54.6073 69.192 54.4104 69.2829 54.1787 69.3662C53.9471 69.4495 53.6884 69.4836 53.4065 69.4647C52.6807 69.4495 52.144 69.2639 51.7927 68.9155C51.4414 68.567 51.1981 68.0784 51.0669 67.4458C50.9356 66.8133 50.8854 66.0519 50.9202 65.1543C50.9549 64.2566 51.0128 63.2377 51.1016 62.09C51.1673 61.3097 51.229 60.503 51.2831 59.6734C51.3371 58.8439 51.3912 58.0409 51.4491 57.272C51.5031 56.4993 51.5533 55.7797 51.5958 55.1055C51.6383 54.4313 51.6846 53.848 51.7271 53.3518C51.1788 53.3669 50.619 53.401 50.0476 53.4502C49.5418 53.4843 48.9936 53.526 48.399 53.5752C47.8045 53.6245 47.2253 53.6851 46.6539 53.7495Z" fill="#003E71" stroke="#003E71" stroke-width="0.5" stroke-miterlimit="10"/>
<path id="Vector_8" d="M75.5345 64.8533C75.3144 64.3382 75.1021 63.8837 74.8936 63.4822C74.6851 63.0845 74.5037 62.7436 74.3492 62.4595C73.4921 62.6754 72.5578 62.8231 71.5501 62.9065C71.5501 63.967 71.581 64.8723 71.6505 65.6222C71.6737 66.0881 71.7007 66.482 71.7316 66.804C71.7663 67.126 71.7972 67.4063 71.832 67.6373C71.8628 67.8684 71.9015 68.0805 71.9478 68.2736C71.9903 68.463 72.0559 68.6524 72.1447 68.8342C71.7046 69.0842 71.2837 69.266 70.8783 69.3834C70.4729 69.5009 70.1139 69.5842 69.8089 69.6334C69.4344 69.6978 69.1062 69.7168 68.8205 69.6827C68.7085 69.4516 68.612 69.2054 68.5232 68.9478C68.4344 68.6903 68.3765 68.3418 68.3418 67.9024C68.307 67.4631 68.2916 66.9025 68.2916 66.2207C68.2916 65.5389 68.3225 64.6677 68.392 63.6072C68.4151 63.4898 68.4228 63.3761 68.4228 63.2587C68.4228 63.1413 68.4344 63.0277 68.4576 62.9102C68.2607 62.8951 68.0561 62.8762 67.8476 62.861C67.6391 62.8459 67.4345 62.8269 67.2376 62.8118C67.1063 62.5466 67.0175 62.308 66.975 62.1035C66.9326 61.8951 66.9094 61.7247 66.9094 61.5921C66.9094 61.4255 66.9326 61.2929 66.975 61.1944C67.3264 61.2436 67.6777 61.2702 68.029 61.2702H68.5232C68.5657 60.5732 68.612 59.8649 68.6545 59.1415C68.697 58.418 68.7356 57.7135 68.7703 57.0241C68.8051 56.3348 68.8321 55.6795 68.8514 55.0583C68.8746 54.4371 68.8939 53.869 68.917 53.3538C68.2568 53.6872 67.6854 54.119 67.2028 54.6492C66.7202 55.1795 66.392 55.7931 66.2144 56.4939C65.9287 56.4598 65.6894 56.3575 65.4886 56.1833C65.2917 56.009 65.1257 55.831 64.9944 55.6492C64.84 55.4333 64.7087 55.1909 64.6006 54.9257C64.4925 54.6114 64.4925 54.2894 64.6006 53.9675C64.7126 53.6455 64.8747 53.3349 65.0948 53.047C65.3149 52.7554 65.5658 52.4978 65.8515 52.2743C66.1372 52.0509 66.4113 51.8729 66.6739 51.7403C67.1333 51.5244 67.6121 51.3312 68.1062 51.157C68.6004 50.9827 69.1564 50.8388 69.7703 50.7214C70.0096 50.5396 70.2799 50.3729 70.5772 50.2252C70.8745 50.0775 71.1524 49.9866 71.4188 49.9525C71.7933 49.8881 72.0018 50.0623 72.0443 50.4752C72.2412 50.46 72.4497 50.4449 72.6698 50.4373C72.8898 50.4297 73.1215 50.4259 73.3608 50.4259C74.1948 50.4259 75.0635 50.5244 75.9631 50.7252C76.8626 50.9259 77.6927 51.2441 78.4494 51.6835C79.2062 52.1228 79.8278 52.6948 80.3104 53.4031C80.793 54.1076 81.0362 54.9674 81.0362 55.9787C81.0362 57.1226 80.681 58.1794 79.9667 59.1415C79.2525 60.1035 78.2371 60.9028 76.9205 61.5315C77.075 61.8307 77.2719 62.2019 77.5151 62.6527C77.7583 63.0996 77.9977 63.6072 78.2409 64.1715C78.5923 64.8685 78.9706 65.52 79.376 66.126C79.7814 66.732 80.2061 67.2585 80.6424 67.7055C81.0825 68.1524 81.542 68.5161 82.0246 68.7888C82.5072 69.0615 82.9898 69.2244 83.4724 69.2736C83.1867 69.6069 82.8585 69.838 82.484 69.9705C82.1095 70.1031 81.7389 70.1864 81.3644 70.2205C80.9474 70.2698 80.5073 70.2698 80.0478 70.2205C79.4108 70.122 78.8625 69.8872 78.3992 69.5236C77.9398 69.16 77.5383 68.7168 77.1985 68.2055C76.8588 67.6903 76.5499 67.1373 76.2758 66.5502C76.0017 65.9593 75.7546 65.4026 75.5345 64.8685V64.8533ZM71.7123 54.244C71.7123 54.6076 71.7007 55.0507 71.6775 55.5621C71.6544 56.0772 71.6389 56.634 71.6273 57.2325C71.6158 57.8309 71.6003 58.4559 71.5771 59.1112C71.554 59.7664 71.5463 60.4179 71.5463 61.0656C72.1408 61.0012 72.7933 60.8914 73.5076 60.7437C74.2218 60.5959 74.8859 60.346 75.4998 59.9975C76.1136 59.649 76.631 59.1831 77.048 58.6036C77.4649 58.0241 77.6734 57.2741 77.6734 56.3613C77.6734 55.6644 77.5151 55.0697 77.1947 54.5811C76.8742 54.0925 76.465 53.6947 75.9592 53.3841C75.4534 53.0773 74.9013 52.8539 74.2952 52.7099C73.6929 52.5698 73.0945 52.4978 72.4999 52.4978H72.1717C72.0597 52.4978 71.9401 52.5054 71.8088 52.5243C71.7432 53.0546 71.7084 53.6304 71.7084 54.244H71.7123Z" fill="#003E71" stroke="#003E71" stroke-width="0.5" stroke-miterlimit="10"/>
<path id="Vector_9" d="M91.4049 53.1261C91.0961 53.1754 90.8026 53.236 90.5169 53.3003C90.2737 53.3685 90.0073 53.4367 89.71 53.5125C89.4127 53.5882 89.1348 53.6753 88.8722 53.7738C88.7834 53.5238 88.7023 53.2511 88.6251 52.9519C88.5479 52.6527 88.5325 52.3686 88.5749 52.0921C88.6174 51.8194 88.7448 51.5769 88.9533 51.3686C89.1618 51.1603 89.517 51.0391 90.0227 51.0088C90.5053 50.9595 91.0652 50.9255 91.7022 50.9103C92.3393 50.8952 93.0033 50.8838 93.6944 50.8838C94.3855 50.8838 95.092 50.8952 95.8179 50.9217C96.5437 50.9482 97.2541 50.9936 97.9606 51.058C98.0031 51.3232 98.0379 51.5504 98.061 51.7436C98.0842 51.933 98.0919 52.0959 98.0919 52.2284V52.6261C98.0919 52.7246 98.0687 52.8079 98.0263 52.8761C97.9375 53.0428 97.783 53.1488 97.5668 53.1981C97.3236 53.1488 97.0456 53.111 96.729 53.0844C96.4086 53.0579 96.0958 53.0314 95.7908 52.9973C95.4395 52.9632 95.0766 52.9405 94.7021 52.9216C94.7445 53.5049 94.7832 54.3458 94.8179 55.448C94.8488 56.554 94.8449 58.0009 94.8025 59.7925C94.76 61.6182 94.7214 63.1105 94.6866 64.262C94.6558 65.4172 94.6249 66.3073 94.6056 66.9399C95.4395 66.9891 96.0611 67.0952 96.4665 67.2505C96.8719 67.4096 97.146 67.5914 97.2888 67.7997C97.4317 68.008 97.4857 68.2353 97.4549 68.4853C97.4201 68.7353 97.3931 68.9739 97.3738 69.2087C96.9993 69.1406 96.5784 69.0951 96.1074 69.0724C95.6364 69.0459 95.1885 69.0345 94.7716 69.0345C94.289 69.0345 93.7948 69.0496 93.289 69.0837C92.7176 69.1178 92.1694 69.1671 91.6404 69.2315C91.2003 69.2958 90.7602 69.3792 90.3239 69.4814C89.8838 69.5799 89.5556 69.7201 89.3355 69.9057C89.1579 69.6557 89.0266 69.3905 88.9417 69.1103C88.8529 68.8792 88.7873 68.6027 88.7448 68.2883C88.7023 67.9739 88.7139 67.6482 88.7796 67.3187C89.0189 67.2543 89.293 67.1975 89.6019 67.1558C89.9108 67.1141 90.1965 67.0763 90.459 67.0422C90.7679 67.0081 91.0845 66.9853 91.4126 66.9664C91.4551 66.4361 91.513 65.6937 91.5787 64.7392C91.6443 63.7847 91.6984 62.5007 91.7447 60.8909C91.7872 58.8645 91.7678 57.2168 91.679 55.948C91.5902 54.6791 91.5014 53.7359 91.4165 53.1223L91.4049 53.1261Z" fill="#003E71" stroke="#003E71" stroke-width="0.5" stroke-miterlimit="10"/>
<path id="Vector_10" d="M104.573 53.7495C104.465 53.651 104.376 53.5336 104.31 53.401C104.245 53.2684 104.191 53.1359 104.144 53.0033C104.102 52.8556 104.067 52.7041 104.044 52.5563V52.1321C104.044 52.0147 104.056 51.9049 104.075 51.795C104.098 51.689 104.152 51.6018 104.241 51.5337C104.92 51.4011 105.658 51.2988 106.449 51.2231C107.241 51.1473 107.986 51.0791 108.689 51.011C109.499 50.9466 110.302 50.886 111.094 50.8367C111.314 50.7193 111.511 50.636 111.688 50.5867C111.862 50.5375 112.005 50.5375 112.117 50.5867C112.159 50.5867 112.206 50.6549 112.248 50.7875H112.379C113.171 50.7723 113.928 50.7534 114.654 50.7382C115.267 50.7231 115.877 50.7193 116.484 50.7269C117.086 50.7345 117.553 50.7496 117.881 50.7648C118.059 50.7799 118.19 50.8822 118.275 51.064C118.364 51.2458 118.391 51.4806 118.356 51.7609C118.325 52.045 118.217 52.3518 118.043 52.6813C117.866 53.0147 117.584 53.329 117.186 53.6283C116.68 53.5298 116.155 53.4578 115.607 53.4162C115.059 53.3745 114.565 53.3366 114.125 53.3025C113.576 53.2684 113.059 53.2533 112.576 53.2533H112.41C112.434 53.9161 112.441 54.6509 112.441 55.4577C112.441 56.2645 112.437 57.0751 112.426 57.897C112.414 58.7189 112.399 59.5257 112.376 60.3136C112.352 61.1014 112.329 61.8021 112.31 62.4195V64.9459C112.31 65.6505 112.341 66.2489 112.41 66.7375C112.48 67.2261 112.576 67.6201 112.708 67.9193C112.839 68.2185 113.024 68.4571 113.267 68.6427C113.244 68.6579 113.186 68.7147 113.086 68.8056C112.986 68.8965 112.854 68.9912 112.692 69.0935C112.526 69.192 112.329 69.2829 112.098 69.3662C111.866 69.4495 111.607 69.4836 111.325 69.4647C110.6 69.4495 110.063 69.2639 109.712 68.9155C109.36 68.567 109.117 68.0784 108.986 67.4458C108.855 66.8133 108.804 66.0519 108.839 65.1543C108.87 64.2566 108.932 63.2377 109.021 62.09C109.086 61.3097 109.148 60.503 109.202 59.6734C109.256 58.8439 109.31 58.0409 109.368 57.272C109.422 56.4993 109.472 55.7797 109.515 55.1055C109.557 54.4313 109.604 53.848 109.646 53.3518C109.098 53.3669 108.538 53.401 107.967 53.4502C107.461 53.4843 106.913 53.526 106.318 53.5752C105.723 53.6245 105.144 53.6851 104.573 53.7495Z" fill="#003E71" stroke="#003E71" stroke-width="0.5" stroke-miterlimit="10"/>
<path id="Vector_11" d="M126.34 53.1261C126.031 53.1754 125.737 53.236 125.452 53.3003C125.208 53.3685 124.942 53.4367 124.645 53.5125C124.347 53.5882 124.069 53.6753 123.807 53.7738C123.718 53.5238 123.637 53.2511 123.56 52.9519C123.482 52.6527 123.467 52.3686 123.509 52.0921C123.552 51.8194 123.679 51.5769 123.888 51.3686C124.096 51.1603 124.452 51.0391 124.957 51.0088C125.44 50.9595 126 50.9255 126.637 50.9103C127.274 50.8952 127.938 50.8838 128.629 50.8838C129.32 50.8838 130.027 50.8952 130.752 50.9217C131.478 50.9482 132.189 50.9936 132.895 51.058C132.938 51.3232 132.972 51.5504 132.996 51.7436C133.019 51.933 133.026 52.0959 133.026 52.2284V52.6261C133.026 52.7246 133.003 52.8079 132.961 52.8761C132.872 53.0428 132.718 53.1488 132.501 53.1981C132.258 53.1488 131.98 53.111 131.664 53.0844C131.343 53.0579 131.03 53.0314 130.725 52.9973C130.374 52.9632 130.011 52.9405 129.637 52.9216C129.679 53.5049 129.718 54.3458 129.752 55.448C129.783 56.554 129.78 58.0009 129.737 59.7925C129.695 61.6182 129.656 63.1105 129.621 64.262C129.59 65.4172 129.559 66.3073 129.54 66.9399C130.374 66.9891 130.996 67.0952 131.401 67.2505C131.806 67.4096 132.081 67.5914 132.223 67.7997C132.366 68.008 132.42 68.2353 132.389 68.4853C132.355 68.7353 132.328 68.9739 132.308 69.2087C131.934 69.1406 131.513 69.0951 131.042 69.0724C130.571 69.0459 130.123 69.0345 129.706 69.0345C129.224 69.0345 128.729 69.0496 128.224 69.0837C127.652 69.1178 127.104 69.1671 126.575 69.2315C126.135 69.2958 125.695 69.3792 125.258 69.4814C124.818 69.5799 124.49 69.7201 124.27 69.9057C124.092 69.6557 123.961 69.3905 123.876 69.1103C123.787 68.8792 123.722 68.6027 123.679 68.2883C123.637 67.9739 123.648 67.6482 123.714 67.3187C123.953 67.2543 124.228 67.1975 124.536 67.1558C124.845 67.1141 125.131 67.0763 125.394 67.0422C125.702 67.0081 126.019 66.9853 126.347 66.9664C126.39 66.4361 126.448 65.6937 126.513 64.7392C126.579 63.7847 126.633 62.5007 126.679 60.8909C126.722 58.8645 126.702 57.2168 126.614 55.948C126.525 54.6791 126.436 53.7359 126.351 53.1223L126.34 53.1261Z" fill="#003E71" stroke="#003E71" stroke-width="0.5" stroke-miterlimit="10"/>
<path id="Vector_12" d="M150.606 50.9326C151.416 50.9478 152.216 51.1637 152.995 51.5803C153.775 51.997 154.463 52.5765 155.053 53.3227C155.648 54.0689 156.111 54.9665 156.455 56.012C156.795 57.0574 156.953 58.2278 156.934 59.5232C156.891 60.9663 156.659 62.3033 156.242 63.5306C155.825 64.7578 155.25 65.8221 154.513 66.7198C153.775 67.6175 152.895 68.3144 151.86 68.8106C150.83 69.3106 149.687 69.5492 148.436 69.5341C147.251 69.5189 146.17 69.3182 145.193 68.9356C144.216 68.5531 143.386 67.9811 142.706 67.216C142.027 66.4547 141.506 65.4888 141.143 64.326C140.78 63.1631 140.621 61.7958 140.664 60.2163C140.706 58.6406 141.019 57.2581 141.602 56.0688C142.185 54.8832 142.88 53.887 143.695 53.0803C144.505 52.2735 145.343 51.6599 146.197 51.2356C147.054 50.8114 147.779 50.5766 148.37 50.5273C148.745 50.7281 149.007 50.9175 149.162 51.0993C149.335 51.0501 149.54 51.0084 149.772 50.9743C150.003 50.9402 150.281 50.9251 150.609 50.9251L150.606 50.9326ZM153.571 59.6747C153.594 58.8262 153.517 58.0119 153.339 57.2202C153.162 56.4324 152.926 55.7317 152.633 55.1181C152.335 54.5044 151.999 54.0083 151.629 53.6371C151.254 53.2621 150.884 53.0689 150.509 53.0538C150.223 53.0689 149.938 53.1371 149.652 53.2545C149.409 53.3719 149.146 53.5461 148.861 53.7772C148.575 54.0082 148.312 54.3416 148.069 54.7734C147.849 54.5423 147.714 54.2923 147.656 54.0272C147.602 53.762 147.594 53.4969 147.641 53.2318C147.046 53.5651 146.532 53.9742 146.092 54.4628C145.652 54.9514 145.289 55.493 145.004 56.0801C144.718 56.671 144.498 57.2922 144.343 57.9475C144.189 58.6027 144.1 59.2732 144.081 59.9512C144.038 61.311 144.131 62.4738 144.363 63.4359C144.594 64.3979 144.911 65.1934 145.316 65.8145C145.722 66.4357 146.2 66.894 146.749 67.1857C147.297 67.4773 147.891 67.6213 148.529 67.6213C149.274 67.6364 149.949 67.4357 150.555 67.0115C151.158 66.5872 151.679 66.0115 152.119 65.2805C152.559 64.5494 152.903 63.7048 153.158 62.7389C153.409 61.7768 153.548 60.7542 153.571 59.6747Z" fill="#003E71" stroke="#003E71" stroke-width="0.5" stroke-miterlimit="10"/>
<path id="Vector_13" d="M166.245 66.4957C166.222 66.1624 166.218 65.7078 166.23 65.1245C166.242 64.545 166.265 63.9011 166.296 63.1966C166.326 62.4921 166.365 61.7459 166.411 60.9543C166.454 60.1664 166.493 59.3899 166.527 58.6248C166.562 57.8597 166.593 57.1363 166.628 56.4469C166.662 55.7575 166.689 55.1553 166.709 54.6402C166.732 54.2765 166.751 53.9167 166.774 53.5682C166.798 53.269 166.805 52.947 166.805 52.5986C166.805 52.2501 166.782 51.9357 166.74 51.6516C166.917 51.6024 167.056 51.5532 167.168 51.5039C167.276 51.4547 167.388 51.4017 167.496 51.3411C167.604 51.2842 167.732 51.2161 167.875 51.1403C168.018 51.0646 168.222 50.985 168.485 50.9055C168.639 50.8562 168.801 50.8146 168.979 50.7805C169.133 50.7464 169.303 50.7237 169.489 50.7047C169.674 50.6896 169.878 50.6896 170.099 50.7047C170.473 51.6365 170.851 52.4925 171.234 53.2804C171.616 54.0682 172.006 54.8333 172.403 55.5719C172.797 56.3105 173.214 57.0491 173.654 57.7877C174.094 58.5263 174.542 59.318 175.006 60.1664C175.488 61.03 175.928 61.8179 176.322 62.5337C176.716 63.2458 177.048 63.8708 177.311 64.4011C177.353 63.8026 177.399 63.136 177.442 62.3974C177.484 61.6588 177.519 60.9012 177.542 60.1172C177.565 59.3369 177.581 58.568 177.592 57.8143C177.604 57.0605 177.616 56.3522 177.623 55.6969C177.635 55.0417 177.639 54.4659 177.639 53.9659V52.8713C177.639 52.4546 177.785 52.11 178.083 51.8372C178.38 51.5645 178.72 51.3448 179.102 51.1782C179.484 51.0115 179.87 50.8941 180.256 50.8297C180.639 50.7653 180.92 50.7312 181.098 50.7312C181.229 50.7312 181.337 50.7388 181.426 50.7578C181.515 50.7729 181.596 50.7918 181.673 50.807C181.751 50.8221 181.808 50.8487 181.855 50.8827C181.48 51.2653 181.206 51.6706 181.032 52.1024C180.855 52.5342 180.731 52.966 180.654 53.3978C180.577 53.8296 180.538 54.2538 180.538 54.6667V55.8106C180.515 56.6401 180.484 57.6627 180.438 58.8748C180.395 59.9202 180.361 61.2232 180.337 62.7837C180.314 64.3443 180.307 66.2116 180.307 68.3858C179.847 68.666 179.419 68.9085 179.021 69.1092C178.623 69.31 178.121 69.3743 177.507 69.31C177.245 69.2948 177.029 69.2115 176.867 69.06C176.704 68.9085 176.538 68.7001 176.372 68.4236C176.206 68.1509 176.036 67.81 175.863 67.4009C175.685 66.9957 175.457 66.5184 175.172 65.9692C174.666 65.0071 174.152 64.0337 173.623 63.0564C173.095 62.0792 172.593 61.1474 172.11 60.2687C171.627 59.3899 171.183 58.5869 170.774 57.8673C170.369 57.1438 170.033 56.5605 169.77 56.1098C169.377 58.3862 169.195 60.3444 169.226 61.9883C169.257 63.6322 169.33 64.8367 169.438 65.598C169.504 65.9313 169.581 66.2722 169.67 66.6207C169.759 66.9199 169.867 67.257 169.998 67.6282C170.129 68.0032 170.307 68.3782 170.523 68.7607C170.149 69.0448 169.782 69.2342 169.419 69.3327C169.056 69.4312 168.732 69.4993 168.446 69.5334C168.118 69.5675 167.797 69.5599 167.492 69.5069C167.338 69.4728 167.191 69.363 167.048 69.1698C166.906 68.9804 166.778 68.7418 166.67 68.4615C166.558 68.1774 166.465 67.8668 166.388 67.5259C166.311 67.185 166.261 66.8404 166.242 66.4919L166.245 66.4957Z" fill="#003E71" stroke="#003E71" stroke-width="0.5" stroke-miterlimit="10"/>
</g>
<g id="Group_3">
<path id="Vector_14" d="M3.53071 82.8485C2.98247 82.8485 2.50759 82.7538 2.1022 82.5644C1.69681 82.375 1.38409 82.125 1.16016 81.8106C0.936228 81.4963 0.828125 81.1516 0.828125 80.7728C0.828125 80.4395 0.913063 80.11 1.08294 79.7918C1.25282 79.4736 1.48833 79.1782 1.79333 78.9092C2.09834 78.6403 2.45354 78.4168 2.85893 78.2388C3.26431 78.0608 3.70445 77.9434 4.1832 77.8941C3.86275 77.6555 3.61951 77.3904 3.45736 77.0911C3.2952 76.7919 3.21412 76.4889 3.21412 76.1745C3.21412 75.7806 3.32995 75.4056 3.56546 75.0534C3.80097 74.7011 4.12914 74.4132 4.54997 74.1898C4.97081 73.9663 5.45727 73.8564 6.00551 73.8564C6.519 73.8564 6.91281 73.9663 7.18693 74.1784C7.46105 74.3943 7.60004 74.7049 7.60004 75.114C7.60004 75.398 7.54213 75.6708 7.42244 75.9359C7.30275 76.201 7.1599 76.4131 6.99003 76.576C6.82015 76.7389 6.65799 76.8222 6.4997 76.8222C6.38773 76.8222 6.27963 76.7806 6.17925 76.6934C6.07887 76.6063 5.99393 76.5078 5.92443 76.398C6.23716 76.1669 6.50742 75.9245 6.72749 75.6708C6.95142 75.417 7.05952 75.1556 7.05952 74.8791C7.05952 74.6557 6.97458 74.4852 6.80471 74.3678C6.63483 74.2504 6.40704 74.1898 6.11748 74.1898C5.72753 74.1898 5.39164 74.292 5.11752 74.4966C4.8434 74.7011 4.63877 74.9662 4.50364 75.2882C4.36852 75.6102 4.30288 75.951 4.30288 76.3109C4.30288 76.6177 4.36465 76.9283 4.48434 77.2464C4.60789 77.5646 4.83954 77.8411 5.19087 78.0722C4.58086 78.1555 4.05193 78.3411 3.59635 78.629C3.14463 78.9206 2.79329 79.2577 2.5462 79.6441C2.2991 80.0304 2.17556 80.413 2.17556 80.7917C2.17556 81.0228 2.22961 81.2614 2.33771 81.5114C2.44582 81.7614 2.62342 81.9697 2.87437 82.1364C3.12146 82.303 3.4535 82.3864 3.87433 82.3864C4.34535 82.3864 4.80865 82.2727 5.27195 82.0455C5.73139 81.8182 6.15608 81.5228 6.53831 81.1516C6.92053 80.7842 7.2294 80.3865 7.46491 79.9622L7.76605 80.1289C7.44561 80.644 7.0711 81.1023 6.64255 81.5114C6.21786 81.9205 5.74297 82.2424 5.2179 82.4811C4.69283 82.7197 4.12914 82.8371 3.51913 82.8371L3.53071 82.8485Z" fill="#003E71"/>
<path id="Vector_15" d="M12.8309 82.0999C12.5105 82.0999 12.2634 82.028 12.0935 81.8878C11.9236 81.7477 11.8387 81.5696 11.8387 81.3537C11.8387 81.1985 11.8696 81.0356 11.9314 80.8689C11.9931 80.7023 12.0549 80.5318 12.1128 80.3538C12.1746 80.1796 12.2055 80.0091 12.2055 79.8462C12.2055 79.6682 12.1591 79.5432 12.0626 79.4788C11.9661 79.4144 11.8541 79.3804 11.7229 79.3804C11.4603 79.3804 11.1939 79.475 10.9198 79.6606C10.6457 79.8462 10.3793 80.0773 10.1168 80.3576C9.85422 80.6379 9.61099 80.9295 9.38706 81.2325C9.15927 81.5393 8.96623 81.8083 8.80022 82.0469C8.64192 82.0469 8.49521 82.0242 8.35622 81.9787C8.21723 81.9333 8.09754 81.8575 8.00488 81.7439C8.0126 81.706 8.0628 81.5924 8.15546 81.403C8.24812 81.2136 8.3485 80.9826 8.46046 80.7098C8.57243 80.4371 8.67667 80.1568 8.76547 79.869C8.85427 79.5811 8.90446 79.3122 8.90446 79.066C8.96623 79.0129 9.05503 78.9599 9.17858 78.8993C9.30213 78.8387 9.42567 78.8084 9.55694 78.8084C9.83492 78.8084 9.97391 78.9183 9.97391 79.1304C9.97391 79.2288 9.94689 79.3804 9.89669 79.5925C9.8465 79.8046 9.77315 80.0356 9.68821 80.2894C9.916 80.0129 10.167 79.7478 10.4449 79.4902C10.7229 79.2326 11.0163 79.0243 11.3213 78.8614C11.6264 78.6986 11.9352 78.6152 12.2479 78.6152C12.6031 78.6152 12.8695 78.7213 13.0394 78.9334C13.2093 79.1455 13.2942 79.3803 13.2942 79.6417C13.2942 79.8652 13.2518 80.0735 13.163 80.2705C13.0742 80.4674 12.9892 80.653 12.9081 80.8273C12.8271 81.0015 12.7846 81.1757 12.7846 81.3462C12.7846 81.4712 12.8155 81.5621 12.8811 81.6189C12.9468 81.6757 13.0278 81.7022 13.1244 81.7022C13.3328 81.7022 13.549 81.6151 13.7691 81.4409C13.993 81.2666 14.2054 81.0469 14.41 80.7818C14.6146 80.5167 14.7961 80.2515 14.9505 79.9826L15.1474 80.1265C14.966 80.4901 14.7614 80.8235 14.5336 81.1189C14.3058 81.4181 14.0548 81.653 13.7768 81.8272C13.4989 82.0014 13.1861 82.0886 12.8348 82.0886L12.8309 82.0999Z" fill="#003E71"/>
<path id="Vector_16" d="M18.314 82.167C18.0013 82.167 17.7465 82.095 17.5573 81.9549C17.3681 81.8148 17.2716 81.6254 17.2716 81.3867C17.2716 81.1784 17.3334 80.9549 17.453 80.7125C17.5766 80.4701 17.7001 80.2315 17.8237 79.9967C17.9511 79.7618 18.0129 79.5535 18.0129 79.3641C18.0129 79.1747 17.9395 79.0156 17.7967 78.902C17.6538 78.7884 17.4994 78.6899 17.3334 78.6066C17.1326 79.0308 16.9164 79.4361 16.6886 79.8224C16.4569 80.2088 16.2678 80.508 16.121 80.7163L15.9512 80.436C16.0747 80.2429 16.233 79.9664 16.4338 79.6065C16.6345 79.2467 16.8237 78.8376 17.009 78.3831C16.9202 78.3073 16.8778 78.2126 16.8778 78.0914C16.8778 77.8907 16.9511 77.7089 17.094 77.546C17.2368 77.3831 17.3642 77.2998 17.4801 77.2998C17.5766 77.2998 17.6422 77.3453 17.6808 77.4399C17.7194 77.5346 17.7387 77.599 17.7387 77.6369C17.7387 77.6748 17.7156 77.743 17.6731 77.8414C17.6306 77.9399 17.6036 78.0119 17.5959 78.046C17.5959 78.1369 17.6692 78.2202 17.8121 78.296C17.9549 78.3755 18.1171 78.4664 18.2947 78.5763C18.4723 78.6823 18.6306 78.8149 18.7696 78.9664C18.9086 79.1179 18.9781 79.3149 18.9781 79.5535C18.9781 79.777 18.9202 80.0004 18.8082 80.2239C18.6962 80.4474 18.5804 80.6595 18.4684 80.8602C18.3565 81.061 18.2986 81.2314 18.2986 81.3716C18.2986 81.489 18.3333 81.5686 18.4028 81.6064C18.4723 81.6443 18.5534 81.6632 18.6499 81.6632C18.8584 81.6632 19.0746 81.6064 19.3024 81.4966C19.5302 81.3867 19.7502 81.2428 19.9626 81.0724C20.1749 80.9019 20.3641 80.7201 20.5301 80.5307C20.6961 80.3413 20.8197 80.1671 20.9085 80.0118L21.171 80.1785C21.005 80.4966 20.7695 80.811 20.4645 81.114C20.1595 81.4208 19.8197 81.6708 19.4452 81.8678C19.0707 82.0647 18.6924 82.1632 18.3101 82.1632L18.314 82.167Z" fill="#003E71"/>
<path id="Vector_17" d="M22.9334 82.2015C22.5666 82.2015 22.2925 82.1068 22.111 81.9174C21.9296 81.728 21.8369 81.4932 21.8369 81.2205C21.8369 81.05 21.8717 80.8341 21.9412 80.5728C22.0107 80.3114 22.1072 80.0387 22.2346 79.7508C22.362 79.463 22.5048 79.1941 22.6709 78.9403C22.8369 78.6865 23.0106 78.482 23.1998 78.3229C23.3851 78.1638 23.5704 78.0843 23.7558 78.0843C23.8523 78.0843 23.9372 78.1108 24.0106 78.1638C24.0839 78.2168 24.1225 78.2888 24.1225 78.3873C24.1225 78.4857 24.0569 78.6297 23.9218 78.8229C23.7866 79.016 23.6283 79.2433 23.4469 79.4971C23.2654 79.7546 23.1033 80.0198 22.972 80.2963C22.8369 80.5728 22.7712 80.8341 22.7712 81.0879C22.7712 81.3417 22.8214 81.497 22.9295 81.5803C23.0338 81.6636 23.1882 81.7015 23.3851 81.7015C23.6824 81.7015 23.999 81.5765 24.3465 81.3227C24.6939 81.069 25.0491 80.6258 25.4236 79.9933L25.5935 80.1486C25.3078 80.8038 24.9256 81.3076 24.4507 81.6674C23.9758 82.0235 23.4739 82.2015 22.9411 82.2015H22.9334ZM24.4893 77.1335C24.331 77.1335 24.192 77.0995 24.0646 77.0351C23.9372 76.9669 23.8754 76.8684 23.8754 76.732C23.8754 76.554 23.9874 76.4025 24.2075 76.2813C24.4275 76.1601 24.6592 76.0957 24.8947 76.0957C25.0414 76.0957 25.165 76.126 25.2615 76.1866C25.358 76.2472 25.4043 76.3457 25.4043 76.4858C25.4043 76.6411 25.3078 76.7889 25.1186 76.9252C24.9294 77.0616 24.7171 77.1298 24.4932 77.1298L24.4893 77.1335Z" fill="#003E71"/>
<path id="Vector_18" d="M27.8609 82.501C27.4169 82.501 27.0501 82.3798 26.7644 82.1374C26.4787 81.895 26.332 81.5276 26.332 81.039C26.332 80.6754 26.417 80.3193 26.5868 79.9671C26.7567 79.6186 26.9807 79.3004 27.2586 79.0201C27.5366 78.7361 27.8455 78.5164 28.1852 78.3497C28.525 78.1868 28.8686 78.1035 29.2161 78.1035C29.5636 78.1035 29.8415 78.1868 29.9921 78.3497C30.1427 78.5126 30.2199 78.6944 30.2199 78.8951C30.2199 79.111 30.162 79.3118 30.0423 79.4974C29.9265 79.683 29.7643 79.7777 29.5674 79.7777C29.4014 79.7777 29.2663 79.7095 29.162 79.5769C29.2663 79.5239 29.3667 79.4216 29.4632 79.2626C29.5597 79.1073 29.606 78.9292 29.606 78.7285C29.606 78.6527 29.5867 78.5997 29.552 78.5618C29.5172 78.524 29.4477 78.505 29.3435 78.505C29.1157 78.505 28.884 78.5921 28.6447 78.7626C28.4053 78.933 28.1814 79.1565 27.9729 79.4254C27.7644 79.6981 27.5945 79.9822 27.4633 80.2777C27.332 80.5769 27.2664 80.8534 27.2664 81.1147C27.2664 81.3306 27.332 81.5276 27.4633 81.7056C27.5945 81.8837 27.8416 81.9746 28.2084 81.9746C28.5482 81.9746 28.8956 81.8912 29.247 81.7284C29.5983 81.5655 29.9342 81.3344 30.2469 81.0352C30.5596 80.736 30.8067 80.3837 30.9921 79.9746L31.2276 80.1527C31.0191 80.5996 30.7334 80.9973 30.3743 81.3534C30.0114 81.7056 29.6137 81.9859 29.1736 82.1905C28.7335 82.395 28.2972 82.4973 27.8609 82.4973V82.501Z" fill="#003E71"/>
<path id="Vector_19" d="M32.6285 82.2999C32.447 82.2999 32.3119 82.1749 32.2231 81.9249C32.1343 81.675 32.0918 81.3909 32.0918 81.0727C32.0918 80.7242 32.1613 80.3076 32.3003 79.8228C32.4393 79.3379 32.6207 78.8266 32.8485 78.2887C33.0763 77.7509 33.3311 77.2206 33.613 76.7055C33.8948 76.1904 34.1882 75.7207 34.4894 75.3002C34.7905 74.8798 35.0762 74.5427 35.3426 74.2889C35.6129 74.0352 35.8484 73.9102 36.0492 73.9102C36.2229 73.9102 36.3542 73.9935 36.4391 74.1601C36.524 74.3268 36.5704 74.4973 36.5704 74.6677C36.5704 74.876 36.5163 75.126 36.4082 75.4214C36.3001 75.7169 36.1495 76.0313 35.9565 76.3646C35.7635 76.6979 35.5395 77.0312 35.2847 77.357C35.026 77.6865 34.7519 77.9819 34.4546 78.2509C34.1573 78.5198 33.8485 78.7357 33.528 78.8986C33.4238 79.1372 33.335 79.372 33.2655 79.6069C33.196 79.8417 33.1458 80.0652 33.1149 80.2811C33.084 80.497 33.0686 80.7015 33.0686 80.8947C33.0686 80.9477 33.0686 80.997 33.0763 81.0462C33.084 81.0954 33.0879 81.1371 33.0956 81.175C33.1574 81.0424 33.2385 80.8644 33.3388 80.6447C33.4392 80.425 33.5628 80.194 33.7056 79.9478C33.8485 79.7016 34.0184 79.4667 34.2153 79.2433C34.4122 79.0198 34.6361 78.838 34.887 78.7016C35.138 78.5652 35.4198 78.4971 35.7248 78.4971C36.0028 78.4971 36.2229 78.5501 36.385 78.6599C36.5472 78.7698 36.6592 78.9024 36.7248 79.069C36.7904 79.2319 36.8213 79.3985 36.8213 79.5728C36.8213 79.8038 36.775 80.0235 36.6862 80.2356C36.5935 80.4477 36.5047 80.6485 36.4121 80.8379C36.3194 81.0273 36.2731 81.2091 36.2731 81.3795C36.2731 81.5121 36.3078 81.6106 36.3773 81.6712C36.4468 81.7318 36.5356 81.7621 36.6399 81.7621C36.8329 81.7621 37.0568 81.6788 37.3117 81.5159C37.5703 81.353 37.8213 81.1333 38.0684 80.8644C38.3155 80.5955 38.5317 80.2924 38.7131 79.9667L38.91 80.1334C38.717 80.5046 38.4892 80.8455 38.2189 81.1485C37.9487 81.4553 37.6553 81.6977 37.3387 81.8795C37.0221 82.0613 36.6823 82.1522 36.3271 82.1522C36.0067 82.1522 35.7596 82.0802 35.5974 81.9363C35.4314 81.7924 35.3503 81.6106 35.3503 81.3947C35.3503 81.2394 35.3812 81.0651 35.4469 80.8758C35.5125 80.6864 35.5743 80.4932 35.636 80.2962C35.6978 80.0993 35.7287 79.9175 35.7287 79.7546C35.7287 79.5766 35.6824 79.4516 35.5897 79.3758C35.4971 79.3001 35.389 79.266 35.2577 79.266C35.0415 79.266 34.8446 79.3417 34.6708 79.4895C34.4971 79.6372 34.3388 79.8266 34.196 80.0576C34.0531 80.2887 33.918 80.5311 33.7983 80.7886C33.6747 81.0462 33.5551 81.2924 33.4392 81.5235C33.3234 81.7583 33.1999 81.9477 33.0686 82.0916C32.9373 82.2355 32.7945 82.3075 32.6362 82.3075L32.6285 82.2999ZM33.779 78.2736C34.0068 78.1031 34.2268 77.8948 34.4469 77.6562C34.6631 77.4138 34.8677 77.16 35.0531 76.8911C35.2384 76.6222 35.4044 76.3646 35.5434 76.1108C35.6824 75.857 35.7943 75.6298 35.8754 75.429C35.9565 75.2283 36.0028 75.073 36.0144 74.9593C36.0144 74.9442 36.0144 74.9328 36.0067 74.9253C36.0028 74.9177 35.9951 74.9139 35.9874 74.9139C35.9333 74.9139 35.8214 75.0086 35.6476 75.198C35.4739 75.3874 35.2693 75.6411 35.0415 75.9631C34.8098 76.2813 34.582 76.6449 34.3542 77.0464C34.1265 77.4479 33.9373 77.8569 33.779 78.2736Z" fill="#003E71"/>
<path id="Vector_20" d="M40.7107 82.2015C40.344 82.2015 40.0698 82.1068 39.8884 81.9174C39.7069 81.728 39.6143 81.4932 39.6143 81.2205C39.6143 81.05 39.649 80.8341 39.7185 80.5728C39.788 80.3114 39.8845 80.0387 40.0119 79.7508C40.1393 79.463 40.2822 79.1941 40.4482 78.9403C40.6142 78.6865 40.788 78.482 40.9771 78.3229C41.1625 78.1638 41.3478 78.0843 41.5331 78.0843C41.6296 78.0843 41.7146 78.1108 41.7879 78.1638C41.8613 78.2168 41.8999 78.2888 41.8999 78.3873C41.8999 78.4857 41.8342 78.6297 41.6991 78.8229C41.564 79.016 41.4057 79.2433 41.2242 79.4971C41.0428 79.7546 40.8806 80.0198 40.7493 80.2963C40.6142 80.5728 40.5486 80.8341 40.5486 81.0879C40.5486 81.3417 40.5988 81.497 40.7069 81.5803C40.8111 81.6636 40.9656 81.7015 41.1625 81.7015C41.4597 81.7015 41.7763 81.5765 42.1238 81.3227C42.4713 81.069 42.8265 80.6258 43.201 79.9933L43.3709 80.1486C43.0852 80.8038 42.7029 81.3076 42.228 81.6674C41.7532 82.0235 41.2513 82.2015 40.7185 82.2015H40.7107ZM42.2667 77.1335C42.1084 77.1335 41.9694 77.0995 41.842 77.0351C41.7146 76.9669 41.6528 76.8684 41.6528 76.732C41.6528 76.554 41.7647 76.4025 41.9848 76.2813C42.2049 76.1601 42.4365 76.0957 42.672 76.0957C42.8188 76.0957 42.9423 76.126 43.0388 76.1866C43.1353 76.2472 43.1817 76.3457 43.1817 76.4858C43.1817 76.6411 43.0852 76.7889 42.896 76.9252C42.7068 77.0616 42.4944 77.1298 42.2705 77.1298L42.2667 77.1335Z" fill="#003E71"/>
<path id="Vector_21" d="M48.5175 82.0999C48.197 82.0999 47.9499 82.028 47.78 81.8878C47.6102 81.7477 47.5252 81.5696 47.5252 81.3537C47.5252 81.1985 47.5561 81.0356 47.6179 80.8689C47.6797 80.7023 47.7414 80.5318 47.7993 80.3538C47.8611 80.1796 47.892 80.0091 47.892 79.8462C47.892 79.6682 47.8457 79.5432 47.7492 79.4788C47.6526 79.4144 47.5407 79.3804 47.4094 79.3804C47.1469 79.3804 46.8805 79.475 46.6063 79.6606C46.3322 79.8462 46.0658 80.0773 45.8033 80.3576C45.5407 80.6379 45.2975 80.9295 45.0736 81.2325C44.8458 81.5393 44.6528 81.8083 44.4867 82.0469C44.3284 82.0469 44.1817 82.0242 44.0427 81.9787C43.9038 81.9333 43.7841 81.8575 43.6914 81.7439C43.6991 81.706 43.7493 81.5924 43.842 81.403C43.9346 81.2136 44.035 80.9826 44.147 80.7098C44.2589 80.4371 44.3632 80.1568 44.452 79.869C44.5408 79.5811 44.591 79.3122 44.591 79.066C44.6528 79.0129 44.7416 78.9599 44.8651 78.8993C44.9886 78.8387 45.1122 78.8084 45.2435 78.8084C45.5214 78.8084 45.6604 78.9183 45.6604 79.1304C45.6604 79.2288 45.6334 79.3804 45.5832 79.5925C45.533 79.8046 45.4597 80.0356 45.3747 80.2894C45.6025 80.0129 45.8535 79.7478 46.1315 79.4902C46.4094 79.2326 46.7029 79.0243 47.0079 78.8614C47.3129 78.6986 47.6217 78.6152 47.9345 78.6152C48.2897 78.6152 48.5561 78.7213 48.7259 78.9334C48.8958 79.1455 48.9808 79.3803 48.9808 79.6417C48.9808 79.8652 48.9383 80.0735 48.8495 80.2705C48.7607 80.4674 48.6758 80.653 48.5947 80.8273C48.5136 81.0015 48.4711 81.1757 48.4711 81.3462C48.4711 81.4712 48.502 81.5621 48.5676 81.6189C48.6333 81.6757 48.7144 81.7022 48.8109 81.7022C49.0194 81.7022 49.2356 81.6151 49.4556 81.4409C49.6796 81.2666 49.8919 81.0469 50.0965 80.7818C50.3012 80.5167 50.4826 80.2515 50.6371 79.9826L50.834 80.1265C50.6525 80.4901 50.4479 80.8235 50.2201 81.1189C49.9923 81.4181 49.7413 81.653 49.4634 81.8272C49.1854 82.0014 48.8727 82.0886 48.5213 82.0886L48.5175 82.0999Z" fill="#003E71"/>
<path id="Vector_22" d="M52.2401 85.0008C52.0316 85.0008 51.8385 84.9478 51.6609 84.8379C51.4833 84.7319 51.3945 84.5538 51.3945 84.3076C51.3945 84.0766 51.4756 83.8683 51.6378 83.6789C51.7999 83.4895 52.0084 83.3152 52.2709 83.1562C52.5335 82.9971 52.8153 82.8494 53.1203 82.7168C53.4253 82.5842 53.7149 82.4554 53.9967 82.338C54.101 82.1145 54.2014 81.8759 54.2979 81.6221C54.3944 81.3684 54.4832 81.0919 54.572 80.7851C54.2593 81.1411 53.9311 81.4365 53.5875 81.6714C53.2439 81.9062 52.8925 82.0236 52.5373 82.0236C52.2053 82.0236 51.9428 81.9214 51.7459 81.7168C51.549 81.5123 51.4524 81.2434 51.4524 80.9063C51.4524 80.5123 51.5683 80.1411 51.7999 79.7965C52.0316 79.4518 52.325 79.1412 52.6879 78.8685C53.047 78.5958 53.4369 78.3837 53.85 78.2321C54.2631 78.0806 54.6531 78.0049 55.0199 78.0049C55.2901 78.0049 55.4909 78.0465 55.6222 78.1261C55.7534 78.2094 55.8191 78.3003 55.8191 78.4064C55.8191 78.4897 55.792 78.5541 55.7341 78.6033C55.6762 78.6526 55.6415 78.6791 55.6222 78.6867C55.5527 78.6109 55.4716 78.5617 55.3789 78.5352C55.2863 78.5086 55.182 78.4973 55.0585 78.4973C54.7187 78.4973 54.3905 78.5806 54.0778 78.7435C53.7651 78.9064 53.4871 79.1185 53.2439 79.3798C53.0006 79.6412 52.8076 79.9101 52.6686 80.1904C52.5296 80.4707 52.4601 80.7245 52.4601 80.9555C52.4601 81.1108 52.4987 81.232 52.5759 81.3191C52.6532 81.4062 52.7536 81.4479 52.8771 81.4479C53.1281 81.4479 53.4292 81.3078 53.7767 81.0313C54.1241 80.751 54.46 80.4177 54.7805 80.0199C54.8075 79.9442 54.8268 79.8798 54.8384 79.8192C54.85 79.7586 54.8654 79.6942 54.8847 79.6184C54.9542 79.3874 55.0469 79.2056 55.1588 79.0654C55.2708 78.9253 55.4368 78.8609 55.6569 78.8609C55.6994 78.8609 55.7534 78.8609 55.8152 78.8647C55.877 78.8647 55.9426 78.8761 56.0121 78.8912C56.0121 79.0238 55.9696 79.2473 55.8808 79.5541C55.792 79.8646 55.6762 80.2207 55.5295 80.6298C55.3828 81.0388 55.2129 81.4593 55.0199 81.8911C55.2978 81.7888 55.5758 81.6449 55.8499 81.4668C56.1241 81.2888 56.3789 81.0767 56.6144 80.8305C56.8499 80.5843 57.0275 80.3154 57.151 80.0162L57.3595 80.1828C57.2205 80.5237 57.0082 80.8343 56.7186 81.1146C56.4329 81.3949 56.1202 81.6373 55.7843 81.838C55.4484 82.0426 55.1434 82.2017 54.8654 82.3115C54.6222 82.8039 54.3635 83.2509 54.0933 83.6599C53.823 84.069 53.5373 84.3947 53.2323 84.6372C52.9273 84.8796 52.5991 85.0008 52.2516 85.0008H52.2401ZM52.1899 84.5425C52.3559 84.5425 52.5798 84.4099 52.8617 84.141C53.1435 83.872 53.4524 83.4175 53.7805 82.7812C53.4485 82.9213 53.1435 83.0653 52.8655 83.2092C52.5875 83.3531 52.3597 83.5084 52.186 83.6713C52.0123 83.8342 51.9235 84.0084 51.9235 84.194C51.9235 84.2963 51.9505 84.3834 52.0007 84.444C52.0509 84.5084 52.1127 84.5387 52.1821 84.5387L52.1899 84.5425Z" fill="#003E71"/>
<path id="Vector_23" d="M68.371 82.8469C68.0583 82.8469 67.7031 82.7901 67.3055 82.6802C66.9078 82.5704 66.5024 82.434 66.0893 82.2787C65.6762 82.1234 65.2669 81.9682 64.8693 81.8204C64.6531 82.0288 64.4214 82.1878 64.1782 82.3015C63.9349 82.4113 63.6685 82.4681 63.3828 82.4681C63.0971 82.4681 62.8307 82.4113 62.6184 82.2939C62.406 82.1765 62.2439 82.0401 62.1358 81.881C62.0277 81.7219 61.9736 81.578 61.9736 81.453C61.9736 81.3129 62.0508 81.1879 62.2014 81.078C62.352 80.972 62.6223 80.9152 63.0045 80.9152C63.2323 80.9152 63.4871 80.9341 63.7689 80.9758C64.0508 81.0174 64.3403 81.0705 64.6376 81.1386C64.8384 80.8394 65.0237 80.4872 65.1974 80.0781C65.3712 79.669 65.541 79.241 65.7071 78.7903C65.8731 78.3395 66.043 77.8964 66.2167 77.457C65.7881 77.3396 65.46 77.1653 65.2245 76.9419C64.9889 76.7184 64.8731 76.4873 64.8731 76.2487C64.8731 76.101 64.9156 75.9533 64.9967 75.8131C65.0777 75.673 65.1936 75.5518 65.3441 75.4571C65.4909 75.3624 65.6723 75.3131 65.8808 75.3131C65.7843 75.4192 65.7225 75.5404 65.6916 75.6881C65.6607 75.8321 65.6453 75.9533 65.6453 76.0517C65.6453 76.3131 65.7109 76.529 65.8461 76.7032C65.9812 76.8775 66.1472 77.0176 66.348 77.1199C66.514 76.6881 66.6877 76.2752 66.8769 75.8813C67.0622 75.4874 67.2746 75.1389 67.5024 74.8321C67.734 74.5253 67.9888 74.2867 68.2668 74.1049C68.5448 73.9268 68.8575 73.8359 69.205 73.8359C69.398 73.8359 69.5988 73.87 69.8111 73.942C70.0235 74.014 70.2088 74.1314 70.3594 74.298C70.51 74.4647 70.5872 74.7071 70.5872 75.0177C70.5872 75.2715 70.5254 75.5404 70.398 75.8321C70.2706 76.1237 70.0775 76.4002 69.815 76.6616C69.5525 76.9267 69.2166 77.1464 68.8035 77.3206C68.3903 77.4949 67.8962 77.5858 67.3209 77.5933H67.151C66.985 78.0327 66.8074 78.4759 66.6221 78.9266C66.4329 79.3774 66.236 79.8054 66.0198 80.2144C65.8074 80.6235 65.5797 80.9833 65.3326 81.2977C65.6878 81.3886 66.0738 81.4871 66.487 81.5932C66.9001 81.703 67.3093 81.7901 67.7147 81.8621C68.1201 81.9341 68.4791 81.9682 68.7919 81.9682C68.9926 81.9682 69.178 81.9492 69.3478 81.9113C69.5177 81.8735 69.6876 81.8166 69.8652 81.7447C69.7069 82.131 69.5061 82.4113 69.259 82.5818C69.0119 82.7522 68.7108 82.8393 68.3633 82.8393L68.371 82.8469ZM63.2786 82.0894C63.4948 82.0894 63.6801 82.0439 63.8268 81.9568C63.9735 81.8659 64.1164 81.756 64.2592 81.6235C63.989 81.5326 63.7342 81.4606 63.4948 81.4C63.2554 81.3394 63.0392 81.3091 62.85 81.3091C62.684 81.3091 62.5682 81.3318 62.4987 81.3811C62.4292 81.4303 62.3945 81.4909 62.3945 81.5667C62.3945 81.6841 62.4833 81.8015 62.657 81.9189C62.8307 82.0325 63.0392 82.0931 63.2825 82.0931L63.2786 82.0894ZM67.2861 77.2903C67.6684 77.2752 68.012 77.1767 68.317 76.9911C68.622 76.8055 68.8807 76.5782 69.093 76.3055C69.3054 76.0328 69.4675 75.7601 69.5756 75.4798C69.6837 75.1995 69.7378 74.9571 69.7378 74.7488C69.7378 74.5405 69.6953 74.4117 69.6065 74.3359C69.5177 74.2602 69.4135 74.2261 69.2938 74.2261C69.0428 74.2261 68.7996 74.3662 68.5679 74.6503C68.3363 74.9344 68.1162 75.3056 67.9077 75.7715C67.6993 76.2373 67.4908 76.7449 67.2823 77.2941L67.2861 77.2903Z" fill="#003E71"/>
<path id="Vector_24" d="M72.7439 82.2015C72.3772 82.2015 72.103 82.1068 71.9216 81.9174C71.7401 81.728 71.6475 81.4932 71.6475 81.2205C71.6475 81.05 71.6822 80.8341 71.7517 80.5728C71.8212 80.3114 71.9177 80.0387 72.0451 79.7508C72.1725 79.463 72.3154 79.1941 72.4814 78.9403C72.6474 78.6865 72.8212 78.482 73.0103 78.3229C73.1957 78.1638 73.381 78.0843 73.5663 78.0843C73.6628 78.0843 73.7478 78.1108 73.8211 78.1638C73.8945 78.2168 73.9331 78.2888 73.9331 78.3873C73.9331 78.4857 73.8674 78.6297 73.7323 78.8229C73.5972 79.016 73.4389 79.2433 73.2574 79.4971C73.076 79.7546 72.9138 80.0198 72.7825 80.2963C72.6474 80.5728 72.5818 80.8341 72.5818 81.0879C72.5818 81.3417 72.632 81.497 72.7401 81.5803C72.8443 81.6636 72.9988 81.7015 73.1957 81.7015C73.4929 81.7015 73.8095 81.5765 74.157 81.3227C74.5045 81.069 74.8597 80.6258 75.2342 79.9933L75.4041 80.1486C75.1184 80.8038 74.7361 81.3076 74.2613 81.6674C73.7864 82.0235 73.2845 82.2015 72.7517 82.2015H72.7439ZM74.2999 77.1335C74.1416 77.1335 74.0026 77.0995 73.8752 77.0351C73.7478 76.9669 73.686 76.8684 73.686 76.732C73.686 76.554 73.7979 76.4025 74.018 76.2813C74.2381 76.1601 74.4697 76.0957 74.7052 76.0957C74.852 76.0957 74.9755 76.126 75.072 76.1866C75.1685 76.2472 75.2149 76.3457 75.2149 76.4858C75.2149 76.6411 75.1184 76.7889 74.9292 76.9252C74.74 77.0616 74.5276 77.1298 74.3037 77.1298L74.2999 77.1335Z" fill="#003E71"/>
<path id="Vector_25" d="M76.1487 84.9983C76.0522 84.9983 75.9402 84.9718 75.8167 84.9188C75.6893 84.8657 75.5812 84.7673 75.4847 84.6158C75.3881 84.468 75.3418 84.2484 75.3418 83.9567C75.3418 83.631 75.4074 83.2067 75.5387 82.6916C75.67 82.1765 75.8437 81.6007 76.0676 80.9682C76.2877 80.3356 76.5502 79.6879 76.8514 79.0251C77.1525 78.3622 77.473 77.7221 77.8166 77.1047C78.1602 76.4873 78.5154 75.9343 78.8822 75.4419C79.249 74.9495 79.6119 74.5594 79.9709 74.2715C80.3339 73.9799 80.6775 73.8359 81.0095 73.8359C81.218 73.8359 81.357 73.889 81.4226 73.9988C81.4883 74.1086 81.5191 74.2336 81.5191 74.3852C81.5191 74.7033 81.4149 75.0556 81.2141 75.4344C81.0095 75.8131 80.7393 76.1957 80.3995 76.5782C80.0597 76.9608 79.6814 77.3244 79.2644 77.6653C78.8474 78.0062 78.4189 78.3016 77.9865 78.5478C77.9517 78.6312 77.9131 78.7107 77.8745 78.7865C77.8359 78.8622 77.7973 78.9456 77.7625 79.0251C77.8591 79.0554 77.9363 79.1046 77.9903 79.1766C78.0444 79.2486 78.0791 79.3243 78.0869 79.4039C78.1563 79.7296 78.2258 80.0213 78.2953 80.275C78.3648 80.5288 78.4729 80.7258 78.6158 80.8735C78.7586 81.0212 78.9671 81.0894 79.2374 81.0894C79.5424 81.0894 79.8088 80.9947 80.0327 80.7978C80.2605 80.6046 80.4922 80.3319 80.7393 79.9834L80.9863 80.1387C80.7354 80.6084 80.4342 80.9493 80.0906 81.1614C79.747 81.3735 79.4382 81.4795 79.1718 81.4795C79.0135 81.4795 78.8552 81.453 78.693 81.3962C78.5309 81.3394 78.3764 81.2599 78.2297 81.1576C78.222 81.6273 78.1564 82.0894 78.0405 82.5401C77.9247 82.9946 77.7664 83.4037 77.5695 83.7711C77.3726 84.1385 77.1525 84.4339 76.9093 84.6574C76.6661 84.8809 76.4113 84.9907 76.1526 84.9907L76.1487 84.9983ZM76.5 84.362C76.5966 84.362 76.7008 84.29 76.8128 84.1461C76.9247 84.0022 77.0367 83.8128 77.1448 83.5779C77.2529 83.3431 77.3533 83.0855 77.446 82.8014C77.5386 82.5174 77.612 82.2371 77.6699 81.9606C77.7278 81.6803 77.7548 81.4303 77.7548 81.2068C77.7548 80.9833 77.7239 80.7864 77.6622 80.6084C77.6004 80.4341 77.4962 80.2334 77.3494 80.0099C77.141 80.5364 76.9556 81.0477 76.7935 81.5401C76.6313 82.0325 76.5078 82.4757 76.4151 82.8734C76.3224 83.2711 76.2761 83.6007 76.2761 83.862C76.2761 84.1953 76.3495 84.3658 76.5 84.3658V84.362ZM78.2876 77.8774C78.8359 77.4456 79.303 77.0214 79.693 76.601C80.079 76.1805 80.3763 75.8093 80.581 75.4836C80.7856 75.1616 80.886 74.9306 80.886 74.798C80.886 74.7223 80.8435 74.6882 80.7547 74.6882C80.5462 74.6882 80.303 74.8321 80.025 75.1162C79.747 75.4041 79.4575 75.7866 79.164 76.2714C78.8667 76.7563 78.5772 77.2903 78.2876 77.8774Z" fill="#003E71"/>
<path id="Vector_26" d="M83.2292 82.3665C82.6809 82.3665 82.264 82.2415 81.9744 81.9877C81.6887 81.734 81.542 81.4196 81.542 81.0408C81.542 80.7075 81.6385 80.3552 81.8354 79.9878C82.0323 79.6204 82.2949 79.272 82.6269 78.95C82.9589 78.628 83.3218 78.3629 83.7156 78.1584C84.1133 77.9538 84.5071 77.8516 84.8971 77.8516C85.1133 77.8516 85.3217 77.9008 85.5187 77.9955C85.7156 78.0902 85.8121 78.2872 85.8121 78.575C85.8121 78.8629 85.7156 79.1242 85.5187 79.3742C85.3217 79.6242 85.0669 79.8439 84.7465 80.0371C84.4299 80.2302 84.0747 80.3893 83.6886 80.5105C83.3025 80.6317 82.9164 80.7113 82.5342 80.7378C82.5265 80.7833 82.5188 80.8287 82.5072 80.8704C82.4956 80.912 82.4956 80.9764 82.4956 81.0484C82.4956 81.109 82.5072 81.1885 82.5265 81.287C82.5497 81.3893 82.5921 81.4878 82.6578 81.59C82.7234 81.6885 82.8238 81.7756 82.9628 81.84C83.1018 81.9082 83.2832 81.9423 83.511 81.9423C83.8778 81.9423 84.2446 81.8514 84.6152 81.6734C84.9859 81.4953 85.3295 81.2605 85.6538 80.9651C85.9742 80.6696 86.2445 80.3477 86.4646 79.9878L86.6885 80.1431C86.453 80.5901 86.1518 80.9802 85.7889 81.3097C85.4221 81.6393 85.0206 81.9006 84.5805 82.0862C84.1403 82.2718 83.6886 82.3665 83.2292 82.3665ZM82.6539 80.3931C82.8817 80.3552 83.1365 80.2795 83.4261 80.1659C83.7118 80.0522 83.9898 79.9045 84.2484 79.7303C84.511 79.556 84.7272 79.3629 84.8932 79.1545C85.0631 78.9462 85.148 78.7341 85.148 78.5182C85.148 78.4349 85.1326 78.3781 85.0978 78.3402C85.0631 78.3023 85.0013 78.2834 84.9164 78.2834C84.7079 78.2834 84.4917 78.3478 84.2716 78.4803C84.0515 78.6091 83.8315 78.7796 83.6191 78.9841C83.4068 79.1886 83.2176 79.4159 83.0516 79.6659C82.8856 79.9159 82.7543 80.1583 82.6616 80.3969L82.6539 80.3931Z" fill="#003E71"/>
<path id="Vector_27" d="M95.2304 82.8469C95.1339 82.8469 95.0181 82.8355 94.883 82.8128C94.7478 82.7901 94.6127 82.7484 94.4776 82.684C94.3424 82.6196 94.2305 82.5249 94.1378 82.3924C94.0452 82.2636 93.9988 82.0931 93.9988 81.8848C93.9988 81.6765 94.0529 81.4 94.161 81.0553C94.2691 80.7106 94.4274 80.2561 94.6359 79.6993C94.7826 79.2751 94.9331 78.8471 95.0799 78.4153C95.2266 77.9835 95.3501 77.5441 95.4505 77.0934C95.5509 76.6426 95.6011 76.1805 95.6011 75.7033C95.6011 75.404 95.5818 75.1465 95.5432 74.9268C95.5045 74.7071 95.4273 74.5367 95.3154 74.4192C95.2034 74.3018 95.0335 74.2412 94.8057 74.2412C94.5779 74.2412 94.3965 74.2942 94.2305 74.3965C94.0645 74.5026 93.9293 74.6389 93.8251 74.8094C93.7208 74.9798 93.6436 75.1654 93.5896 75.3662C93.5394 75.5669 93.5124 75.7639 93.5124 75.9571C93.5124 76.2563 93.5703 76.5025 93.6822 76.7032C93.2923 76.7032 93.0066 76.6199 92.8328 76.4532C92.6591 76.2866 92.5703 76.0783 92.5703 75.8358C92.5703 75.6124 92.6359 75.3851 92.7672 75.1503C92.8985 74.9154 93.0761 74.6995 93.3039 74.5026C93.5317 74.3056 93.7942 74.1465 94.0953 74.0215C94.3965 73.9003 94.7169 73.8359 95.0567 73.8359C95.6242 73.8359 96.0528 74.0215 96.3501 74.3889C96.6474 74.7563 96.7941 75.2677 96.7941 75.923C96.7941 76.4495 96.713 76.9987 96.547 77.5706C96.381 78.1388 96.1802 78.741 95.9447 79.3736C95.8404 79.6576 95.7285 79.9493 95.6049 80.2561C95.4814 80.5629 95.3771 80.8621 95.2922 81.1538C95.2034 81.4492 95.1609 81.7295 95.1609 81.9947C95.1609 82.1348 95.1841 82.2371 95.2266 82.3015C95.269 82.3659 95.3578 82.3962 95.4891 82.3962C95.7169 82.3962 95.9601 82.309 96.2265 82.1348C96.4929 81.9606 96.7593 81.7257 97.0296 81.4379C97.2998 81.1462 97.5624 80.8243 97.8133 80.4606C98.0643 80.1008 98.2959 79.7334 98.5044 79.3546C98.7129 78.9796 98.8905 78.6236 99.0334 78.2827C99.1762 77.9456 99.265 77.6502 99.2998 77.3964C99.6202 77.3964 99.8634 77.4684 100.026 77.6123C100.188 77.7562 100.269 77.8964 100.269 78.0327C100.269 78.1236 100.226 78.2676 100.138 78.4683C100.049 78.6691 99.9213 78.938 99.7476 79.2713C99.6163 79.5478 99.4812 79.8395 99.3345 80.1538C99.1917 80.4682 99.0681 80.7788 98.9677 81.0856C98.8673 81.3962 98.8171 81.6841 98.8171 81.9492C98.8171 82.0969 98.8403 82.2106 98.8905 82.2825C98.9407 82.3545 99.0334 82.3924 99.1723 82.3924C99.4156 82.3924 99.6974 82.2863 100.014 82.078C100.331 81.8697 100.663 81.5856 101.006 81.2295C101.35 80.8735 101.682 80.4682 102.006 80.0175C102.327 79.5667 102.62 79.1009 102.883 78.616C103.145 78.1312 103.35 77.6577 103.504 77.1881C103.659 76.7184 103.732 76.2866 103.732 75.8927C103.732 75.4987 103.655 75.2147 103.496 75.0442C103.338 74.8738 103.145 74.7526 102.91 74.6882C103.049 74.4798 103.203 74.3283 103.365 74.2374C103.531 74.1427 103.678 74.0973 103.809 74.0973C104.002 74.0973 104.195 74.2033 104.396 74.4155C104.597 74.6276 104.697 74.9609 104.697 75.4154C104.697 75.8169 104.608 76.2752 104.431 76.7941C104.253 77.3131 104.01 77.8471 103.705 78.4001C103.4 78.9531 103.049 79.4948 102.655 80.0251C102.257 80.5553 101.84 81.0288 101.4 81.453C100.96 81.8772 100.52 82.2144 100.076 82.4643C99.6318 82.7143 99.2148 82.8393 98.821 82.8393C98.6202 82.8393 98.4311 82.8052 98.2535 82.7333C98.0759 82.6613 97.933 82.559 97.8288 82.4189C97.7245 82.2787 97.6705 82.1159 97.6705 81.9227C97.6705 81.828 97.6859 81.7182 97.7168 81.5932C97.7477 81.472 97.7902 81.3394 97.8404 81.1955C97.4041 81.6879 96.9678 82.0818 96.5277 82.3848C96.0875 82.684 95.6551 82.8355 95.2266 82.8355L95.2304 82.8469Z" fill="#003E71"/>
<path id="Vector_28" d="M106.432 82.2015C106.066 82.2015 105.792 82.1068 105.61 81.9174C105.429 81.728 105.336 81.4932 105.336 81.2205C105.336 81.05 105.371 80.8341 105.44 80.5728C105.51 80.3114 105.606 80.0387 105.734 79.7508C105.861 79.463 106.004 79.1941 106.17 78.9403C106.336 78.6865 106.51 78.482 106.699 78.3229C106.884 78.1638 107.069 78.0843 107.255 78.0843C107.351 78.0843 107.436 78.1108 107.51 78.1638C107.583 78.2168 107.622 78.2888 107.622 78.3873C107.622 78.4857 107.556 78.6297 107.421 78.8229C107.286 79.016 107.127 79.2433 106.946 79.4971C106.764 79.7546 106.602 80.0198 106.471 80.2963C106.336 80.5728 106.27 80.8341 106.27 81.0879C106.27 81.3417 106.32 81.497 106.429 81.5803C106.533 81.6636 106.687 81.7015 106.884 81.7015C107.181 81.7015 107.498 81.5765 107.845 81.3227C108.193 81.069 108.548 80.6258 108.923 79.9933L109.093 80.1486C108.807 80.8038 108.425 81.3076 107.95 81.6674C107.475 82.0235 106.973 82.2015 106.44 82.2015H106.432ZM107.988 77.1335C107.83 77.1335 107.691 77.0995 107.564 77.0351C107.436 76.9669 107.374 76.8684 107.374 76.732C107.374 76.554 107.486 76.4025 107.706 76.2813C107.927 76.1601 108.158 76.0957 108.394 76.0957C108.54 76.0957 108.664 76.126 108.761 76.1866C108.857 76.2472 108.903 76.3457 108.903 76.4858C108.903 76.6411 108.807 76.7889 108.618 76.9252C108.428 77.0616 108.216 77.1298 107.992 77.1298L107.988 77.1335Z" fill="#003E71"/>
<path id="Vector_29" d="M111.109 82.3901C110.707 82.3901 110.395 82.2954 110.171 82.106C109.943 81.9166 109.831 81.6326 109.831 81.2538C109.831 81.0303 109.866 80.769 109.935 80.4659C110.005 80.1629 110.101 79.8448 110.221 79.5001C110.345 79.1592 110.472 78.8183 110.611 78.485C110.534 78.4698 110.46 78.4509 110.391 78.4244C110.321 78.3979 110.236 78.3713 110.144 78.341V78.0418C110.275 78.0645 110.379 78.0873 110.464 78.11C110.545 78.1327 110.65 78.1479 110.769 78.1554C111.012 77.6289 111.271 77.1365 111.545 76.6896C111.819 76.2389 112.086 75.879 112.348 75.6139C112.611 75.3488 112.831 75.2124 113.012 75.2124C113.101 75.2124 113.178 75.2389 113.248 75.2919C113.317 75.345 113.352 75.4056 113.352 75.4813C113.352 75.5722 113.306 75.7048 113.213 75.8828C113.12 76.0608 113.001 76.2654 112.854 76.4926C112.707 76.7199 112.553 76.9509 112.399 77.1896C112.24 77.4282 112.094 77.6479 111.955 77.8524C111.816 78.057 111.711 78.2236 111.642 78.3486C111.87 78.3789 112.078 78.4016 112.275 78.4206C112.472 78.4395 112.669 78.4471 112.87 78.4471C113.113 78.4471 113.371 78.4319 113.642 78.4016C113.912 78.3713 114.217 78.3297 114.557 78.2804C114.792 77.7464 115.051 77.2199 115.333 76.701C115.615 76.1858 115.908 75.7162 116.209 75.2995C116.51 74.8829 116.796 74.5495 117.062 74.2958C117.333 74.042 117.568 73.917 117.769 73.917C117.943 73.917 118.07 74.0003 118.155 74.1632C118.236 74.3261 118.279 74.4965 118.279 74.6783C118.279 74.9321 118.205 75.2313 118.055 75.5836C117.908 75.9321 117.703 76.2957 117.441 76.6707C117.178 77.0456 116.873 77.3979 116.522 77.7199C116.171 78.0418 115.796 78.307 115.406 78.5077C115.275 78.7539 115.163 79.0493 115.066 79.394C114.97 79.7387 114.9 80.0758 114.85 80.4053C114.8 80.7349 114.785 81 114.792 81.2083C115.001 80.7235 115.236 80.2766 115.499 79.8637C115.761 79.4508 116.055 79.1213 116.379 78.8751C116.703 78.6289 117.059 78.5077 117.445 78.5077C117.831 78.5077 118.105 78.6175 118.279 78.8372C118.452 79.0569 118.541 79.2955 118.541 79.5569C118.541 79.7804 118.495 80.0001 118.402 80.2197C118.309 80.4394 118.221 80.6478 118.128 80.8447C118.035 81.0417 117.989 81.2235 117.989 81.3864C117.989 81.5265 118.028 81.625 118.101 81.6818C118.174 81.7386 118.259 81.7651 118.356 81.7651C118.549 81.7651 118.769 81.6818 119.02 81.5189C119.271 81.3561 119.522 81.1364 119.773 80.8599C120.024 80.5834 120.228 80.2917 120.394 79.9773L120.618 80.1554C120.437 80.519 120.209 80.8561 119.939 81.1667C119.668 81.4773 119.371 81.7197 119.051 81.8977C118.73 82.0757 118.391 82.1666 118.031 82.1666C117.719 82.1666 117.476 82.0947 117.306 81.9507C117.136 81.8068 117.051 81.625 117.051 81.4091C117.051 81.2538 117.082 81.0833 117.147 80.894C117.213 80.7084 117.279 80.5152 117.344 80.3182C117.41 80.1213 117.441 79.9395 117.441 79.7766C117.441 79.5986 117.398 79.4698 117.31 79.3902C117.221 79.3107 117.109 79.2728 116.97 79.2728C116.754 79.2728 116.557 79.3448 116.387 79.4887C116.217 79.6326 116.062 79.822 115.916 80.0569C115.773 80.2917 115.638 80.5379 115.518 80.7917C115.398 81.0455 115.275 81.2917 115.159 81.5227C115.043 81.7538 114.923 81.9431 114.808 82.0909C114.692 82.2386 114.561 82.3143 114.422 82.3143C114.298 82.3143 114.198 82.2613 114.117 82.1591C114.036 82.053 113.97 81.928 113.92 81.7727C113.869 81.6174 113.839 81.4621 113.823 81.2917C113.804 81.125 113.804 80.9773 113.823 80.8523C113.476 81.3068 113.066 81.6742 112.595 81.9621C112.124 82.25 111.63 82.3901 111.105 82.3901H111.109ZM111.487 81.875C111.924 81.875 112.36 81.7121 112.8 81.3826C113.24 81.0568 113.619 80.6061 113.943 80.0304C114.005 79.7993 114.066 79.5796 114.124 79.3713C114.186 79.163 114.267 78.9319 114.371 78.6781C114.093 78.7312 113.831 78.769 113.58 78.788C113.329 78.8069 113.086 78.8221 112.843 78.8221C112.599 78.8221 112.375 78.8107 112.144 78.7842C111.912 78.7577 111.68 78.7312 111.445 78.7009C111.252 79.0721 111.094 79.4508 110.97 79.8372C110.843 80.2235 110.781 80.6099 110.781 80.9962C110.781 81.3106 110.831 81.5303 110.939 81.6666C111.047 81.803 111.225 81.8674 111.487 81.8674V81.875ZM115.626 77.8789C115.896 77.6858 116.147 77.4661 116.383 77.2161C116.618 76.9661 116.827 76.7123 117.008 76.4472C117.19 76.182 117.34 75.9321 117.46 75.6934C117.576 75.4548 117.649 75.2578 117.676 75.1025C117.692 75.0192 117.699 74.9586 117.688 74.9132C117.618 74.9283 117.506 75.0116 117.348 75.1632C117.19 75.3147 117.008 75.5268 116.8 75.7919C116.591 76.0608 116.383 76.3714 116.174 76.7275C115.966 77.0835 115.784 77.4661 115.626 77.8752V77.8789Z" fill="#003E71"/>
<path id="Vector_30" d="M126.803 82.8487C126.926 82.4851 127.065 82.0798 127.227 81.6367C127.389 81.1935 127.579 80.6708 127.795 80.0686C128.011 79.4663 128.266 78.7504 128.559 77.9247C128.849 77.099 129.189 76.1218 129.571 74.9892C129.579 74.9589 129.598 74.8983 129.625 74.8112C129.652 74.7203 129.664 74.6332 129.664 74.5423C129.664 74.4817 129.652 74.4362 129.625 74.4021C129.598 74.3681 129.552 74.3529 129.482 74.3529C129.289 74.3529 129.108 74.4173 128.934 74.5499C128.76 74.6786 128.606 74.8453 128.471 75.0423C128.335 75.2392 128.227 75.4438 128.15 75.6559C128.073 75.868 128.034 76.0612 128.034 76.2316C128.034 76.4021 128.069 76.5536 128.138 76.7126C127.791 76.7126 127.544 76.6445 127.401 76.5119C127.258 76.3793 127.185 76.2089 127.185 76.0081C127.185 75.7544 127.278 75.5044 127.459 75.2506C127.64 74.9968 127.872 74.7658 128.15 74.5537C128.428 74.3415 128.721 74.1711 129.026 74.0423C129.331 73.9135 129.609 73.8454 129.86 73.8454C130.146 73.8454 130.386 73.94 130.571 74.1294C130.756 74.3188 130.911 74.5764 131.026 74.9059C131.142 75.2354 131.243 75.6066 131.328 76.0233C131.409 76.4399 131.486 76.8793 131.555 77.3414C131.64 77.8565 131.717 78.2921 131.779 78.652C131.841 79.0118 131.891 79.3186 131.938 79.5686C131.98 79.8186 132.019 80.0345 132.053 80.2201C132.088 80.4057 132.123 80.5875 132.158 80.7655C132.246 80.417 132.343 80.0345 132.459 79.6216C132.571 79.2087 132.69 78.7845 132.81 78.3489C132.934 77.9134 133.057 77.4891 133.181 77.0763C133.308 76.6634 133.432 76.2771 133.551 75.921C133.675 75.565 133.787 75.2544 133.891 74.993C133.995 74.7317 134.088 74.5385 134.165 74.4135C134.235 74.3037 134.351 74.1787 134.517 74.0385C134.683 73.8984 134.891 73.834 135.142 73.834C134.995 74.1749 134.825 74.5953 134.64 75.0877C134.451 75.5839 134.262 76.118 134.073 76.6937C133.88 77.2694 133.694 77.8565 133.517 78.4588C133.339 79.0572 133.177 79.6368 133.034 80.1936C132.891 80.7503 132.775 81.2617 132.694 81.7238C132.613 82.1859 132.571 82.5609 132.571 82.8525C132.266 82.8525 132.019 82.7881 131.826 82.6556C131.633 82.5268 131.49 82.2768 131.393 81.9132C131.358 81.7654 131.304 81.5344 131.235 81.22C131.165 80.9056 131.088 80.5458 131.007 80.1367C130.926 79.7277 130.841 79.2996 130.752 78.8527C130.663 78.4057 130.579 77.9664 130.497 77.5346C130.416 77.1028 130.339 76.7126 130.27 76.368C130.2 76.0233 130.142 75.7468 130.1 75.546C129.698 76.7884 129.359 77.8414 129.077 78.705C128.795 79.5686 128.548 80.2693 128.339 80.8072C128.131 81.345 127.945 81.7654 127.783 82.0609C127.621 82.3601 127.463 82.5647 127.305 82.6745C127.146 82.7843 126.98 82.8412 126.795 82.8412L126.803 82.8487Z" fill="#003E71"/>
<path id="Vector_31" d="M136.77 82.2107C136.473 82.2107 136.234 82.0971 136.045 81.866C135.855 81.635 135.763 81.366 135.763 81.063C135.763 80.8547 135.805 80.6085 135.886 80.3282C135.967 80.0441 136.072 79.7676 136.191 79.4949C136.315 79.2222 136.442 78.9987 136.577 78.8207C136.712 78.6427 136.832 78.5518 136.936 78.5518C136.998 78.5518 137.087 78.5783 137.203 78.6313C137.319 78.6843 137.423 78.7449 137.508 78.8207C137.411 78.9381 137.295 79.1275 137.16 79.3775C137.025 79.6313 136.905 79.9002 136.801 80.1881C136.697 80.4759 136.643 80.7373 136.643 80.9759C136.643 81.0138 136.651 81.0895 136.662 81.2032C136.674 81.3168 136.709 81.4228 136.767 81.5213C136.824 81.616 136.921 81.6653 137.06 81.6653C137.207 81.6653 137.369 81.5971 137.543 81.4607C137.716 81.3244 137.894 81.1426 138.071 80.9191C138.249 80.6956 138.423 80.4532 138.589 80.1918C138.755 79.9305 138.905 79.6805 139.044 79.4457C139.183 79.207 139.295 79.0063 139.384 78.8434C139.454 78.851 139.546 78.8661 139.666 78.8926C139.782 78.9192 139.886 78.9533 139.979 78.9987C140.071 79.0442 140.118 79.1086 140.118 79.1881C140.118 79.2108 140.075 79.3017 139.994 79.4684C139.913 79.6313 139.813 79.8282 139.701 80.0593C139.589 80.2903 139.488 80.5252 139.407 80.7638C139.326 81.0024 139.284 81.2107 139.284 81.3888C139.284 81.4986 139.311 81.5971 139.361 81.6804C139.411 81.7637 139.512 81.8016 139.662 81.8016C139.844 81.8016 140.064 81.7296 140.322 81.5895C140.581 81.4494 140.844 81.241 141.114 80.9683C141.384 80.6956 141.623 80.3736 141.832 80.0025L142.013 80.1237C141.82 80.5252 141.577 80.885 141.276 81.1994C140.975 81.5137 140.654 81.7637 140.311 81.9418C139.967 82.1198 139.635 82.2107 139.311 82.2107C139.068 82.2107 138.878 82.1652 138.751 82.0705C138.62 81.9758 138.531 81.8584 138.485 81.7069C138.438 81.5592 138.411 81.4077 138.411 81.2486C138.411 81.1956 138.411 81.1388 138.419 81.082C138.423 81.0213 138.431 80.9683 138.438 80.9153C138.292 81.1312 138.126 81.3357 137.948 81.5327C137.77 81.7296 137.581 81.8925 137.384 82.0175C137.187 82.1425 136.983 82.2069 136.763 82.2069L136.77 82.2107Z" fill="#003E71"/>
<path id="Vector_32" d="M143.994 82.3908C143.612 82.3908 143.307 82.2961 143.087 82.1068C142.867 81.9174 142.755 81.6295 142.755 81.2432C142.755 80.9326 142.824 80.5424 142.963 80.0841C143.102 79.6258 143.276 79.1486 143.485 78.6562C143.415 78.641 143.338 78.6296 143.257 78.6183C143.176 78.6069 143.098 78.588 143.029 78.5577V78.2584C143.141 78.2736 143.245 78.285 143.334 78.2925C143.427 78.3001 143.523 78.3077 143.627 78.3153C143.809 77.9213 144.01 77.5388 144.222 77.1638C144.434 76.7926 144.647 76.4593 144.855 76.1714C145.064 75.8798 145.264 75.6525 145.457 75.4783C145.651 75.3078 145.813 75.2207 145.956 75.2207C146.04 75.2207 146.122 75.2472 146.191 75.3002C146.261 75.3533 146.295 75.4252 146.295 75.5237C146.295 75.6639 146.206 75.876 146.029 76.1525C145.851 76.429 145.627 76.7585 145.365 77.1335C145.098 77.5085 144.844 77.9138 144.6 78.3456H145.033C145.38 78.3456 145.712 78.3418 146.025 78.3304C146.338 78.3191 146.654 78.3001 146.979 78.2698V78.5842C146.5 78.6296 146.064 78.6637 145.666 78.6827C145.268 78.7054 144.902 78.7168 144.562 78.7168H144.392C144.199 79.0955 144.037 79.4819 143.902 79.8758C143.766 80.2697 143.701 80.6523 143.701 81.0235C143.701 81.3379 143.759 81.5575 143.871 81.6863C143.983 81.8151 144.168 81.8833 144.419 81.8833C144.855 81.8833 145.299 81.7128 145.751 81.3682C146.203 81.0273 146.596 80.5652 146.925 79.9856L147.106 80.0955C146.89 80.5273 146.616 80.9174 146.284 81.2659C145.952 81.6144 145.593 81.8909 145.207 82.0916C144.82 82.2924 144.415 82.3946 143.998 82.3946L143.994 82.3908Z" fill="#003E71"/>
<path id="Vector_33" d="M150.247 82.167C149.934 82.167 149.679 82.095 149.49 81.9549C149.301 81.8148 149.204 81.6254 149.204 81.3867C149.204 81.1784 149.266 80.9549 149.386 80.7125C149.509 80.4701 149.633 80.2315 149.756 79.9967C149.884 79.7618 149.945 79.5535 149.945 79.3641C149.945 79.1747 149.872 79.0156 149.729 78.902C149.586 78.7884 149.432 78.6899 149.266 78.6066C149.065 79.0308 148.849 79.4361 148.621 79.8224C148.39 80.2088 148.2 80.508 148.054 80.7163L147.884 80.436C148.007 80.2429 148.166 79.9664 148.366 79.6065C148.567 79.2467 148.756 78.8376 148.942 78.3831C148.853 78.3073 148.81 78.2126 148.81 78.0914C148.81 77.8907 148.884 77.7089 149.027 77.546C149.169 77.3831 149.297 77.2998 149.413 77.2998C149.509 77.2998 149.575 77.3453 149.613 77.4399C149.652 77.5346 149.671 77.599 149.671 77.6369C149.671 77.6748 149.648 77.743 149.606 77.8414C149.563 77.9399 149.536 78.0119 149.528 78.046C149.528 78.1369 149.602 78.2202 149.745 78.296C149.888 78.3755 150.05 78.4664 150.227 78.5763C150.405 78.6823 150.563 78.8149 150.702 78.9664C150.841 79.1179 150.911 79.3149 150.911 79.5535C150.911 79.777 150.853 80.0004 150.741 80.2239C150.629 80.4474 150.513 80.6595 150.401 80.8602C150.289 81.061 150.231 81.2314 150.231 81.3716C150.231 81.489 150.266 81.5686 150.335 81.6064C150.405 81.6443 150.486 81.6632 150.583 81.6632C150.791 81.6632 151.007 81.6064 151.235 81.4966C151.463 81.3867 151.683 81.2428 151.895 81.0724C152.108 80.9019 152.297 80.7201 152.463 80.5307C152.629 80.3413 152.752 80.1671 152.841 80.0118L153.104 80.1785C152.938 80.4966 152.702 80.811 152.397 81.114C152.092 81.4208 151.752 81.6708 151.378 81.8678C151.003 82.0647 150.625 82.1632 150.243 82.1632L150.247 82.167Z" fill="#003E71"/>
<path id="Vector_34" d="M154.866 82.2015C154.499 82.2015 154.225 82.1068 154.044 81.9174C153.862 81.728 153.77 81.4932 153.77 81.2205C153.77 81.05 153.804 80.8341 153.874 80.5728C153.943 80.3114 154.04 80.0387 154.167 79.7508C154.295 79.463 154.437 79.1941 154.603 78.9403C154.769 78.6865 154.943 78.482 155.132 78.3229C155.318 78.1638 155.503 78.0843 155.688 78.0843C155.785 78.0843 155.87 78.1108 155.943 78.1638C156.017 78.2168 156.055 78.2888 156.055 78.3873C156.055 78.4857 155.99 78.6297 155.854 78.8229C155.719 79.016 155.561 79.2433 155.379 79.4971C155.198 79.7546 155.036 80.0198 154.905 80.2963C154.769 80.5728 154.704 80.8341 154.704 81.0879C154.704 81.3417 154.754 81.497 154.862 81.5803C154.966 81.6636 155.121 81.7015 155.318 81.7015C155.615 81.7015 155.932 81.5765 156.279 81.3227C156.627 81.069 156.982 80.6258 157.356 79.9933L157.526 80.1486C157.24 80.8038 156.858 81.3076 156.383 81.6674C155.908 82.0235 155.407 82.2015 154.874 82.2015H154.866ZM156.422 77.1335C156.264 77.1335 156.125 77.0995 155.997 77.0351C155.87 76.9669 155.808 76.8684 155.808 76.732C155.808 76.554 155.92 76.4025 156.14 76.2813C156.36 76.1601 156.592 76.0957 156.827 76.0957C156.974 76.0957 157.098 76.126 157.194 76.1866C157.291 76.2472 157.337 76.3457 157.337 76.4858C157.337 76.6411 157.24 76.7889 157.051 76.9252C156.862 77.0616 156.65 77.1298 156.426 77.1298L156.422 77.1335Z" fill="#003E71"/>
<path id="Vector_35" d="M159.504 82.3908C159.122 82.3908 158.817 82.2961 158.597 82.1068C158.377 81.9174 158.265 81.6295 158.265 81.2432C158.265 80.9326 158.334 80.5424 158.473 80.0841C158.612 79.6258 158.786 79.1486 158.994 78.6562C158.925 78.641 158.848 78.6296 158.767 78.6183C158.685 78.6069 158.608 78.588 158.539 78.5577V78.2584C158.651 78.2736 158.755 78.285 158.844 78.2925C158.936 78.3001 159.033 78.3077 159.137 78.3153C159.319 77.9213 159.519 77.5388 159.732 77.1638C159.944 76.7926 160.156 76.4593 160.365 76.1714C160.573 75.8798 160.774 75.6525 160.967 75.4783C161.16 75.3078 161.322 75.2207 161.465 75.2207C161.55 75.2207 161.631 75.2472 161.701 75.3002C161.77 75.3533 161.805 75.4252 161.805 75.5237C161.805 75.6639 161.716 75.876 161.539 76.1525C161.361 76.429 161.137 76.7585 160.875 77.1335C160.608 77.5085 160.353 77.9138 160.11 78.3456H160.543C160.89 78.3456 161.222 78.3418 161.535 78.3304C161.848 78.3191 162.164 78.3001 162.488 78.2698V78.5842C162.01 78.6296 161.573 78.6637 161.176 78.6827C160.778 78.7054 160.411 78.7168 160.072 78.7168H159.902C159.709 79.0955 159.546 79.4819 159.411 79.8758C159.276 80.2697 159.211 80.6523 159.211 81.0235C159.211 81.3379 159.268 81.5575 159.38 81.6863C159.492 81.8151 159.678 81.8833 159.929 81.8833C160.365 81.8833 160.809 81.7128 161.261 81.3682C161.712 81.0273 162.106 80.5652 162.434 79.9856L162.616 80.0955C162.4 80.5273 162.125 80.9174 161.793 81.2659C161.461 81.6144 161.102 81.8909 160.716 82.0916C160.33 82.2924 159.925 82.3946 159.508 82.3946L159.504 82.3908Z" fill="#003E71"/>
<path id="Vector_36" d="M164.401 82.2015C164.034 82.2015 163.76 82.1068 163.579 81.9174C163.397 81.728 163.305 81.4932 163.305 81.2205C163.305 81.05 163.339 80.8341 163.409 80.5728C163.478 80.3114 163.575 80.0387 163.702 79.7508C163.83 79.463 163.973 79.1941 164.139 78.9403C164.305 78.6865 164.478 78.482 164.668 78.3229C164.853 78.1638 165.038 78.0843 165.224 78.0843C165.32 78.0843 165.405 78.1108 165.478 78.1638C165.552 78.2168 165.59 78.2888 165.59 78.3873C165.59 78.4857 165.525 78.6297 165.39 78.8229C165.254 79.016 165.096 79.2433 164.915 79.4971C164.733 79.7546 164.571 80.0198 164.44 80.2963C164.305 80.5728 164.239 80.8341 164.239 81.0879C164.239 81.3417 164.289 81.497 164.397 81.5803C164.502 81.6636 164.656 81.7015 164.853 81.7015C165.15 81.7015 165.467 81.5765 165.814 81.3227C166.162 81.069 166.517 80.6258 166.891 79.9933L167.061 80.1486C166.776 80.8038 166.393 81.3076 165.918 81.6674C165.444 82.0235 164.942 82.2015 164.409 82.2015H164.401ZM165.957 77.1335C165.799 77.1335 165.66 77.0995 165.532 77.0351C165.405 76.9669 165.343 76.8684 165.343 76.732C165.343 76.554 165.455 76.4025 165.675 76.2813C165.895 76.1601 166.127 76.0957 166.362 76.0957C166.509 76.0957 166.633 76.126 166.729 76.1866C166.826 76.2472 166.872 76.3457 166.872 76.4858C166.872 76.6411 166.776 76.7889 166.586 76.9252C166.397 77.0616 166.185 77.1298 165.961 77.1298L165.957 77.1335Z" fill="#003E71"/>
<path id="Vector_37" d="M168.747 82.232C168.365 82.232 168.098 82.126 167.951 81.9139C167.805 81.7017 167.728 81.4631 167.728 81.1942C167.728 80.9556 167.77 80.7132 167.859 80.467C167.948 80.2208 168.063 79.9897 168.21 79.7738C168.357 79.5579 168.523 79.3837 168.708 79.2511C168.894 79.1185 169.079 79.0503 169.268 79.0503C169.322 79.0503 169.384 79.0579 169.457 79.0769C169.531 79.0958 169.585 79.1185 169.619 79.1488C169.523 79.2397 169.422 79.3647 169.314 79.5276C169.206 79.6905 169.106 79.8685 169.013 80.0579C168.921 80.2473 168.847 80.4366 168.789 80.626C168.731 80.8154 168.704 80.9897 168.704 81.1449C168.704 81.3154 168.739 81.4518 168.809 81.5464C168.878 81.6449 168.99 81.6904 169.148 81.6904C169.322 81.6904 169.531 81.6108 169.77 81.4518C170.009 81.2927 170.237 81.0957 170.457 80.8647C170.187 80.6639 169.99 80.4329 169.863 80.1677C169.735 79.9026 169.673 79.6034 169.673 79.27C169.673 79.0844 169.72 78.8875 169.816 78.6792C169.913 78.4708 170.059 78.2966 170.26 78.1564C170.461 78.0163 170.724 77.9443 171.044 77.9443C171.411 77.9443 171.666 78.0315 171.808 78.2057C171.951 78.3799 172.025 78.592 172.025 78.8382C172.025 79.1147 171.94 79.4253 171.77 79.77C171.6 80.1147 171.399 80.4442 171.164 80.7586C171.287 80.8192 171.422 80.8495 171.569 80.8495C171.7 80.8495 171.855 80.823 172.04 80.77C172.222 80.7169 172.399 80.6298 172.569 80.5086C172.739 80.3874 172.874 80.2245 172.982 80.0238L173.191 80.1564C173.009 80.52 172.758 80.7889 172.438 80.9556C172.121 81.1222 171.812 81.2056 171.519 81.2056C171.407 81.2056 171.291 81.198 171.179 81.179C171.067 81.1601 170.963 81.1336 170.866 81.0957C170.569 81.4101 170.237 81.6752 169.866 81.8987C169.496 82.1222 169.125 82.232 168.751 82.232H168.747ZM170.758 80.5351C170.975 80.2738 171.156 79.9935 171.299 79.6943C171.442 79.395 171.515 79.1147 171.515 78.8648C171.515 78.6792 171.484 78.5428 171.419 78.4557C171.353 78.3686 171.264 78.3269 171.152 78.3269C170.978 78.3269 170.805 78.4292 170.631 78.6337C170.457 78.8382 170.368 79.0958 170.368 79.4102C170.368 79.5882 170.399 79.7889 170.465 80.0086C170.531 80.2283 170.627 80.4063 170.758 80.5389V80.5351Z" fill="#003E71"/>
<path id="Vector_38" d="M178.345 82.0999C178.024 82.0999 177.777 82.028 177.607 81.8878C177.437 81.7477 177.352 81.5696 177.352 81.3537C177.352 81.1985 177.383 81.0356 177.445 80.8689C177.507 80.7023 177.569 80.5318 177.626 80.3538C177.688 80.1796 177.719 80.0091 177.719 79.8462C177.719 79.6682 177.673 79.5432 177.576 79.4788C177.48 79.4144 177.368 79.3804 177.237 79.3804C176.974 79.3804 176.708 79.475 176.433 79.6606C176.159 79.8462 175.893 80.0773 175.63 80.3576C175.368 80.6379 175.125 80.9295 174.901 81.2325C174.673 81.5393 174.48 81.8083 174.314 82.0469C174.156 82.0469 174.009 82.0242 173.87 81.9787C173.731 81.9333 173.611 81.8575 173.519 81.7439C173.526 81.706 173.576 81.5924 173.669 81.403C173.762 81.2136 173.862 80.9826 173.974 80.7098C174.086 80.4371 174.19 80.1568 174.279 79.869C174.368 79.5811 174.418 79.3122 174.418 79.066C174.48 79.0129 174.569 78.9599 174.692 78.8993C174.816 78.8387 174.939 78.8084 175.071 78.8084C175.349 78.8084 175.488 78.9183 175.488 79.1304C175.488 79.2288 175.461 79.3804 175.41 79.5925C175.36 79.8046 175.287 80.0356 175.202 80.2894C175.43 80.0129 175.681 79.7478 175.959 79.4902C176.237 79.2326 176.53 79.0243 176.835 78.8614C177.14 78.6986 177.449 78.6152 177.762 78.6152C178.117 78.6152 178.383 78.7213 178.553 78.9334C178.723 79.1455 178.808 79.3803 178.808 79.6417C178.808 79.8652 178.765 80.0735 178.677 80.2705C178.588 80.4674 178.503 80.653 178.422 80.8273C178.341 81.0015 178.298 81.1757 178.298 81.3462C178.298 81.4712 178.329 81.5621 178.395 81.6189C178.46 81.6757 178.542 81.7022 178.638 81.7022C178.847 81.7022 179.063 81.6151 179.283 81.4409C179.507 81.2666 179.719 81.0469 179.924 80.7818C180.128 80.5167 180.31 80.2515 180.464 79.9826L180.661 80.1265C180.48 80.4901 180.275 80.8235 180.047 81.1189C179.819 81.4181 179.568 81.653 179.291 81.8272C179.013 82.0014 178.7 82.0886 178.348 82.0886L178.345 82.0999Z" fill="#003E71"/>
</g>
</g>
<defs>
<clipPath id="clip0_862_3471">
<rect width="182" height="85" fill="white"/>
</clipPath>
</defs>
</svg>
