<svg width="127" height="48" viewBox="0 0 127 48" fill="none" xmlns="http://www.w3.org/2000/svg">
<g id="Layer_1" clip-path="url(#clip0_858_1714)">
<path id="Vector" d="M4.78095 30.3459H0.203125L9.31087 7.4062C10.0907 5.4899 11.315 3.96485 12.9891 2.82838C14.6605 1.6919 16.5449 1.125 18.6395 1.125C20.7341 1.125 22.6158 1.69457 24.2899 2.82838C25.9614 3.96485 27.1724 5.4899 27.9176 7.4062L37.0732 30.3459H32.4954L30.0122 24.1126H7.26415L4.78095 30.3459ZM8.97019 19.8275H28.3062L23.9705 9.01642C23.5154 7.87995 22.8181 6.98834 21.8759 6.33893C20.9337 5.68952 19.8478 5.36481 18.6129 5.36481C17.8331 5.36481 17.0852 5.51119 16.3719 5.80396C15.6559 6.09673 15.0411 6.51991 14.5221 7.07085C14.0031 7.62444 13.5959 8.27119 13.3058 9.01908L8.97019 19.8302V19.8275Z" fill="white"/>
<path id="Vector_2" d="M126.984 30.3439H107.893C104.939 30.3439 102.405 29.29 100.297 27.1794C98.1868 25.0688 97.1328 22.5377 97.1328 19.5807V11.8863C97.1328 8.93196 98.1868 6.40085 100.297 4.2876C102.408 2.17701 104.939 1.12305 107.893 1.12305H126.984V5.36019H107.893C106.107 5.36019 104.574 6.00162 103.292 7.28448C102.009 8.56733 101.367 10.1004 101.367 11.8863V19.5807C101.367 21.3666 102.009 22.8996 103.292 24.1825C104.574 25.4654 106.107 26.1068 107.893 26.1068H126.984V30.3439Z" fill="white"/>
<g id="Group">
<path id="Vector_3" d="M0 46.8824V36.5078H1.8817L9.97274 44.6148L9.79441 44.6734C9.74384 44.3487 9.70392 44.0133 9.66932 43.6726C9.63472 43.332 9.60811 42.9886 9.58681 42.6426C9.56552 42.2966 9.54955 41.9506 9.53358 41.6046C9.51761 41.2586 9.50963 40.9206 9.50431 40.5906C9.49898 40.2606 9.49632 39.9359 9.49632 39.6191V36.5078H11.4073V46.8824H9.49632L1.37601 38.8952L1.61288 38.7914C1.63152 38.9591 1.65281 39.156 1.67144 39.3849C1.69007 39.6112 1.71668 39.8587 1.74596 40.1248C1.77524 40.391 1.80185 40.6758 1.82847 40.9765C1.85242 41.2773 1.87371 41.5887 1.88702 41.9107C1.90033 42.2328 1.90831 42.5495 1.90831 42.8662V46.8824H0Z" fill="white"/>
<path id="Vector_4" d="M21.8383 46.9706C20.7817 46.9706 19.8555 46.7497 19.0597 46.3106C18.2639 45.8714 17.6438 45.2699 17.1993 44.5087C16.7548 43.7475 16.5312 42.8825 16.5312 41.9164V36.4922H18.4715V41.8578C18.4715 42.4993 18.6205 43.0715 18.916 43.5692C19.2114 44.0669 19.616 44.4608 20.1323 44.7482C20.646 45.0357 21.2129 45.1794 21.8357 45.1794C22.5064 45.1794 23.1026 45.0357 23.6216 44.7482C24.1405 44.4608 24.5478 44.0695 24.8432 43.5692C25.1386 43.0688 25.2877 42.4993 25.2877 41.8578V36.4922H27.1561V41.9164C27.1561 42.8852 26.9325 43.7502 26.488 44.5087C26.0435 45.2699 25.4261 45.8687 24.6356 46.3106C23.8451 46.7497 22.9109 46.9706 21.8357 46.9706H21.8383Z" fill="white"/>
<path id="Vector_5" d="M35.1253 46.8817V38.2877H31.125V36.5098H41.143V38.2877H37.0522V46.8817H35.1253Z" fill="white"/>
<path id="Vector_6" d="M45.2422 46.8824V36.5078H51.2892C51.9812 36.5078 52.5933 36.6462 53.1256 36.923C53.6579 37.1998 54.0811 37.5831 54.3925 38.0728C54.7039 38.5625 54.8583 39.1188 54.8583 39.7389C54.8583 40.359 54.6879 40.9579 54.3473 41.4716C54.0066 41.9852 53.5515 42.3924 52.9846 42.6932C52.415 42.994 51.7869 43.1457 51.0949 43.1457H47.1239V46.8798H45.2422V46.8824ZM47.1239 41.4742H50.9032C51.2492 41.4742 51.5713 41.397 51.8667 41.2453C52.1622 41.091 52.399 40.8887 52.5773 40.6385C52.7557 40.3857 52.8435 40.1035 52.8435 39.7868C52.8435 39.4914 52.7557 39.2279 52.5773 39.0017C52.399 38.7754 52.1622 38.5918 51.8667 38.4534C51.5713 38.315 51.2439 38.2458 50.8899 38.2458H47.1265V41.4769L47.1239 41.4742ZM53.1256 46.8824L49.5991 42.2008L51.6432 41.8309L55.4678 46.8984L53.1256 46.8824Z" fill="white"/>
<path id="Vector_7" d="M60.4531 46.8817V45.0746H63.1945V38.3169H60.4531V36.5098H67.8628V38.3169H65.1214V45.0746H67.8628V46.8817H60.4531Z" fill="white"/>
<path id="Vector_8" d="M76.1409 46.8817V38.2877H72.1406V36.5098H82.1586V38.2877H78.0678V46.8817H76.1409Z" fill="white"/>
<path id="Vector_9" d="M86.4531 46.8817V45.0746H89.1945V38.3169H86.4531V36.5098H93.8628V38.3169H91.1214V45.0746H93.8628V46.8817H86.4531Z" fill="white"/>
<path id="Vector_10" d="M104.697 47.0314C103.768 47.0314 102.917 46.8956 102.142 46.6241C101.365 46.3527 100.692 45.9721 100.119 45.4824C99.5471 44.9926 99.1053 44.4257 98.7939 43.779C98.4825 43.1322 98.3281 42.4322 98.3281 41.6817C98.3281 40.9311 98.4825 40.2312 98.7939 39.5844C99.1053 38.9377 99.5471 38.3681 100.119 37.881C100.692 37.3913 101.368 37.0107 102.142 36.7392C102.917 36.4678 103.771 36.332 104.697 36.332C105.623 36.332 106.478 36.4678 107.252 36.7392C108.027 37.0107 108.7 37.3913 109.267 37.881C109.834 38.3708 110.276 38.9377 110.592 39.5844C110.909 40.2312 111.066 40.9311 111.066 41.6817C111.066 42.4322 110.909 43.1322 110.592 43.779C110.276 44.4257 109.834 44.9953 109.267 45.4824C108.697 45.9721 108.027 46.3527 107.252 46.6241C106.478 46.8956 105.623 47.0314 104.697 47.0314ZM104.697 45.1949C105.349 45.1949 105.943 45.1071 106.475 44.9288C107.007 44.7504 107.473 44.5003 107.867 44.1809C108.261 43.8588 108.567 43.4862 108.785 43.063C109.003 42.6372 109.11 42.1794 109.11 41.6844C109.11 41.1893 109.001 40.7315 108.785 40.3057C108.567 39.8798 108.261 39.5072 107.867 39.1879C107.47 38.8658 107.007 38.6183 106.475 38.44C105.943 38.2616 105.349 38.1738 104.697 38.1738C104.045 38.1738 103.462 38.2616 102.919 38.44C102.376 38.6183 101.908 38.8685 101.519 39.1879C101.128 39.5099 100.827 39.8825 100.614 40.3057C100.401 40.7315 100.295 41.1893 100.295 41.6844C100.295 42.1794 100.401 42.6372 100.614 43.063C100.827 43.4889 101.128 43.8615 101.519 44.1809C101.911 44.5029 102.376 44.7504 102.919 44.9288C103.462 45.1071 104.056 45.1949 104.697 45.1949Z" fill="white"/>
<path id="Vector_11" d="M115.594 46.8824V36.5078H117.475L125.566 44.6148L125.388 44.6734C125.338 44.3487 125.298 44.0133 125.263 43.6726C125.228 43.332 125.202 42.9886 125.181 42.6426C125.162 42.2966 125.143 41.9506 125.13 41.6046C125.114 41.2586 125.106 40.9206 125.101 40.5906C125.095 40.2606 125.093 39.9359 125.093 39.6191V36.5078H127.004V46.8824H125.093L116.972 38.8952L117.209 38.7914C117.228 38.9591 117.249 39.156 117.268 39.3849C117.286 39.6112 117.313 39.8587 117.342 40.1248C117.372 40.391 117.398 40.6758 117.425 40.9765C117.449 41.2773 117.47 41.5887 117.483 41.9107C117.499 42.2328 117.505 42.5495 117.505 42.8662V46.8824H115.594Z" fill="white"/>
</g>
<g id="Group 1171274794">
<g id="Group_2">
<path id="Vector_12" d="M82.2519 25.1751C81.4281 24.9775 80.7146 24.8081 80.245 24.6516C79.2748 24.3308 78.5306 23.5993 78.0532 23.0039C77.8222 24.9416 77.7555 25.9758 78.682 27.2514C78.7718 27.3745 78.8719 27.4952 78.9746 27.6132C81.0559 27.5131 82.9859 26.8484 84.6233 25.7731C83.8149 25.5498 82.9833 25.3496 82.2493 25.1751H82.2519Z" fill="#10C08E"/>
<path id="Vector_13" d="M77.3287 22.59C77.3544 22.3667 77.3826 22.1332 77.4108 21.8868L77.552 20.6575L78.1346 21.7508C78.1448 21.7687 79.0482 23.4446 80.488 23.922C80.9268 24.0683 81.6249 24.2325 82.4308 24.425C83.3855 24.6534 84.4403 24.9049 85.4207 25.2001C88.0513 23.1264 89.7451 19.9132 89.7451 16.3022C89.7451 10.0478 84.6738 4.97656 78.4194 4.97656C72.165 4.97656 67.0938 10.0478 67.0938 16.3022C67.0938 22.5566 71.9417 27.3969 78.0011 27.6177C76.9155 26.0675 77.0695 24.7484 77.3287 22.59Z" fill="#10C08E"/>
</g>
<path id="Vector_14" d="M82.4649 30.2053C81.5302 30.3944 80.5619 30.4941 79.5704 30.4941H51.8231C43.8831 30.4941 37.4227 24.0997 37.4227 16.2409C37.4227 8.38209 43.8831 1.9877 51.8231 1.9877H79.5704C87.5103 1.9877 93.9708 8.38209 93.9708 16.2409C93.9708 20.2866 92.2562 23.9413 89.5115 26.5379L89.5321 26.5558C89.6535 26.6605 89.7748 26.7679 89.8962 26.8803C92.721 24.1917 94.4872 20.4169 94.4872 16.2409C94.4872 8.09841 87.7944 1.47656 79.5704 1.47656H51.8231C43.5965 1.47656 36.9062 8.10096 36.9062 16.2409C36.9062 24.3808 43.5991 31.0052 51.8231 31.0052H79.5704C80.8278 31.0052 82.0492 30.8493 83.2163 30.558C82.9555 30.4404 82.7025 30.3229 82.4649 30.2053Z" fill="#10C08E" stroke="#10C08E" stroke-width="2" stroke-miterlimit="10"/>
</g>
<path id="Vector_15" d="M88.5004 27.3889L88.4232 27.3223C87.4039 26.4201 84.5747 25.744 82.5067 25.2516C81.6523 25.0467 80.9124 24.8711 80.4254 24.7087C79.4193 24.376 78.6475 23.6175 78.1524 23C77.9129 25.0095 77.8437 26.082 78.8045 27.4048C79.9223 28.9405 81.9371 29.9386 85.5035 31.3492C87.8404 32.2728 88.9183 33.875 89.3974 34.9343C91.3642 29.9253 89.8445 28.5839 88.4978 27.3915L88.5004 27.3889Z" fill="#10C08E"/>
</g>
<defs>
<clipPath id="clip0_858_1714">
<rect width="127" height="47.0318" fill="white"/>
</clipPath>
</defs>
</svg>
