<svg width="71" height="71" viewBox="0 0 71 71" fill="none" xmlns="http://www.w3.org/2000/svg">
<g id="idea_2926094" clip-path="url(#clip0_1740_1551)">
<g id="XMLID_14_">
<path id="Vector" d="M48.851 20.8174C45.2988 17.3544 40.4602 15.4473 35.2269 15.4473C29.9937 15.4473 25.1551 17.3544 21.6029 20.8174C18.0515 24.2796 16.0957 28.987 16.0957 34.0726C16.0957 39.5003 18.509 44.6794 22.7168 48.282C24.9217 50.1696 26.3134 52.7802 26.7781 55.868C25.6471 56.5317 24.8866 57.7532 24.8866 59.148V60.2896C24.8866 62.0242 26.0626 63.4909 27.6652 63.9494C27.4513 64.4235 27.3313 64.9478 27.3313 65.4998V66.6413C27.3313 68.7417 29.0548 70.4506 31.1731 70.4506H39.2809C41.3993 70.4506 43.1227 68.7417 43.1227 66.6413V65.4998C43.1227 64.9478 43.0028 64.4233 42.7889 63.9494C44.3915 63.4909 45.5675 62.0243 45.5675 60.2896V59.148C45.5675 57.7532 44.807 56.5317 43.676 55.868C44.1408 52.7802 45.5325 50.1696 47.7373 48.282C51.9451 44.6795 54.3583 39.5005 54.3583 34.0726C54.3583 28.987 52.4024 24.2796 48.851 20.8174ZM40.7142 66.6412C40.7142 67.4136 40.0712 68.0419 39.2809 68.0419H31.173C30.3827 68.0419 29.7397 67.4136 29.7397 66.6412V65.4996C29.7397 64.7272 30.3827 64.0987 31.173 64.0987H39.2807C40.0711 64.0987 40.714 64.7271 40.714 65.4996L40.7142 66.6412ZM43.1587 60.2894C43.1587 61.0618 42.5158 61.6902 41.7255 61.6902H39.2807H31.173H28.7283C27.938 61.6902 27.295 61.0618 27.295 60.2894V59.1479C27.295 58.3755 27.938 57.7472 28.7283 57.7472H41.7255C42.5158 57.7472 43.1587 58.3755 43.1587 59.1479V60.2894ZM31.492 40.2298H29.1033C28.1373 40.2298 27.3515 39.4601 27.3515 38.5141C27.3515 37.5682 28.1373 36.7983 29.1033 36.7983H29.7402C30.7062 36.7983 31.492 37.568 31.492 38.5141V40.2298ZM36.6396 55.3386H33.9006V42.6384H36.6396V55.3386ZM46.1708 46.4522C43.5573 48.6897 41.8975 51.7454 41.3213 55.3386H39.048V42.6384H41.476C43.7701 42.6384 45.6364 40.7881 45.6364 38.5141C45.6364 36.24 43.7701 34.3897 41.476 34.3897H40.7998C38.5058 34.3897 36.6394 36.24 36.6394 38.5141V40.2298H33.9004V38.5141C33.9004 36.24 32.0341 34.3897 29.74 34.3897H29.1031C26.8091 34.3897 24.9427 36.24 24.9427 38.5141C24.9427 40.7883 26.8091 42.6384 29.1031 42.6384H31.4918V55.3386H29.1323C28.5561 51.7454 26.8963 48.6897 24.2828 46.4522C20.6103 43.308 18.5038 38.7956 18.5038 34.0726C18.5038 24.8275 25.693 17.8559 35.2266 17.8559C44.7603 17.8559 51.9495 24.8275 51.9495 34.0726C51.9498 38.7956 49.8435 43.3078 46.1708 46.4522ZM39.0482 40.2298V38.5141C39.0482 37.568 39.834 36.7983 40.8 36.7983H41.4762C42.4422 36.7983 43.228 37.568 43.228 38.5141C43.228 39.4603 42.4422 40.2298 41.4762 40.2298H39.0482Z" fill="#003E71"/>
<g id="Group">
<path id="Vector_2" d="M54.5151 60.8973C53.6215 60.8973 52.7548 60.5594 52.0869 59.8932L48.7003 56.516L50.401 54.8105L53.7877 58.1878C54.2474 58.6462 54.8628 58.5118 55.279 58.2438L59.4304 54.242C59.8773 53.7899 59.748 53.188 59.4853 52.7772L56.1791 49.48C55.7678 49.07 55.7079 48.4249 56.0364 47.9461C57.8385 45.3195 59.1404 42.2583 59.8016 39.0936C59.9183 38.5354 60.4102 38.1356 60.9805 38.1356H65.691C66.0892 38.0663 66.6905 37.7809 66.6905 37.0883V31.2656C66.6385 30.9669 66.4178 30.2716 65.496 30.2716H60.6982C60.1098 30.2716 59.6074 29.8463 59.5103 29.2658C59.0107 26.276 57.7551 23.1745 55.8794 20.2966C55.5682 19.819 55.6343 19.1888 56.0379 18.7862L59.4245 15.4089C59.8811 14.9536 59.7476 14.3436 59.4805 13.931L55.4677 9.7912C55.0115 9.3426 54.4041 9.47252 53.9898 9.73641L50.6835 13.0336C50.274 13.442 49.632 13.5015 49.1543 13.1757C46.5199 11.3782 43.4496 10.0793 40.2751 9.41983C39.7163 9.30377 39.3157 8.81136 39.3157 8.24067V3.45587C39.3157 2.82949 38.8439 2.40859 38.4033 2.40859H32.5637C32.1655 2.47768 31.5642 2.76325 31.5642 3.45587V8.38113C31.5642 8.97003 31.1384 9.47252 30.5575 9.56916C27.5583 10.0677 24.4473 11.3202 21.5608 13.1912C21.0845 13.5 20.4572 13.4342 20.0554 13.0335L16.6688 9.65617C16.2091 9.19794 15.5937 9.33222 15.1774 9.60017L11.0259 13.6022C10.5791 14.0541 10.7086 14.6559 10.9713 15.0666L14.2775 18.3638C14.6888 18.7739 14.7487 19.4191 14.4202 19.8978C12.6182 22.5243 11.3162 25.5855 10.655 28.7504C10.5383 29.3086 10.0464 29.7084 9.47616 29.7084H4.76557C4.3674 29.7775 3.76601 30.0631 3.76601 30.7557V36.5781C3.83556 36.9745 4.12248 37.5724 4.81946 37.5724H9.61706C10.2055 37.5724 10.7079 37.9977 10.8049 38.5782C11.3046 41.5681 12.5602 44.6696 14.436 47.5474C14.7472 48.0249 14.6811 48.6552 14.2775 49.0578L10.8909 52.4351C10.4343 52.8904 10.5679 53.5004 10.8351 53.913L14.8479 58.0529C15.3042 58.5014 15.9115 58.3715 16.3257 58.1077L19.6321 54.8104L21.3329 56.5158L17.9463 59.8931C17.8993 59.9399 17.8487 59.9828 17.7947 60.0212C16.289 61.0938 14.3754 60.9833 13.1411 59.7523C13.1363 59.7475 13.1316 59.7427 13.1268 59.7377L9.03464 55.5164C8.99324 55.4736 8.955 55.4279 8.92023 55.3796C7.84254 53.8749 7.95348 51.9628 9.18999 50.7296L11.8957 48.0314C10.3235 45.4356 9.20565 42.6865 8.62202 39.981H4.81946C3.0487 39.981 1.59662 38.6498 1.36676 36.8157C1.36058 36.766 1.35742 36.716 1.35742 36.6659V30.7557C1.35742 28.9878 2.69133 27.5383 4.52938 27.309C4.57875 27.3028 4.62858 27.2997 4.67841 27.2997H8.51589C9.20986 24.4976 10.3592 21.7914 11.8813 19.3756L9.19014 16.6918C9.14302 16.645 9.10012 16.5943 9.06143 16.5404C7.98374 15.0357 8.09469 13.1236 9.3312 11.8906C9.33601 11.8858 9.34083 11.8811 9.3458 11.8763L13.579 7.79539C13.6219 7.75414 13.6677 7.71605 13.7162 7.68158C15.2217 6.60901 17.1355 6.7195 18.3697 7.95059L21.0789 10.6523C23.6834 9.08278 26.4418 7.96715 29.156 7.38487V3.45587C29.156 1.68782 30.4899 0.238299 32.3279 0.00933327C32.377 0.00316127 32.4268 0 32.4765 0H38.4031C40.2343 0 41.7241 1.55023 41.7241 3.45587V7.27905C44.5357 7.97136 47.2506 9.11845 49.6743 10.638L52.3692 7.95059C52.4161 7.90377 52.4667 7.86087 52.5207 7.82248C54.0263 6.74991 55.9399 6.8604 57.1743 8.09134C57.1791 8.09616 57.1839 8.10098 57.1886 8.10594L61.2808 12.3276C61.3222 12.3703 61.3604 12.4161 61.3952 12.4646C62.4729 13.9692 62.3618 15.8813 61.1254 17.1144L58.4198 19.8126C59.9919 22.4084 61.1098 25.1578 61.6936 27.863H65.4961C67.3784 27.863 68.8562 29.1645 69.0899 31.0283C69.096 31.078 69.0992 31.1281 69.0992 31.1781V37.0883C69.0992 38.8562 67.7653 40.3057 65.9272 40.535C65.8779 40.5412 65.828 40.5443 65.7782 40.5443H61.9407C61.2468 43.3464 60.0974 46.0526 58.5753 48.4684L61.2665 51.1522C61.3136 51.199 61.3565 51.2497 61.3952 51.3036C62.4729 52.8082 62.3619 54.7204 61.1254 55.9536C61.1206 55.9584 61.1158 55.963 61.1108 55.9679L56.8776 60.0488C56.8347 60.09 56.7889 60.1281 56.7404 60.1626C56.0495 60.6542 55.2726 60.8973 54.5151 60.8973Z" fill="#003E71"/>
</g>
</g>
</g>
<defs>
<clipPath id="clip0_1740_1551">
<rect width="70.4511" height="70.4511" fill="white"/>
</clipPath>
</defs>
</svg>
