<svg width="52" height="52" viewBox="0 0 52 52" fill="none" xmlns="http://www.w3.org/2000/svg">
<g clip-path="url(#clip0_1633_601)">
<path d="M15.368 45.2457L15.3681 45.2457C15.8064 45.0602 16.0114 44.5546 15.8261 44.1163L15.734 44.1552L15.8261 44.1162C15.5427 43.4464 15.1426 42.8517 14.6562 42.3502L18.7951 36.9043C20.8622 38.2747 23.3397 39.0737 26.0001 39.0737C28.4535 39.0737 30.7514 38.3941 32.7153 37.2135L37.1838 43.668C36.2824 44.562 35.7222 45.8002 35.7222 47.1676C35.7222 49.8874 37.9348 52.1 40.6547 52.1C43.3745 52.1 45.5871 49.8874 45.5871 47.1676C45.5871 44.4477 43.3745 42.2351 40.6547 42.2351C39.9215 42.2351 39.2251 42.396 38.5989 42.6843L34.131 36.2307C37.1409 33.8337 39.0739 30.1384 39.0739 25.9999C39.0739 24.0388 38.6333 22.12 37.8035 20.3776L41.8199 18.1284C42.872 19.4782 44.5128 20.3485 46.3535 20.3485C49.5223 20.3485 52.1001 17.7708 52.1001 14.6019C52.1001 11.4331 49.5223 8.85548 46.3534 8.85548C43.1847 8.85548 40.6069 11.4333 40.6069 14.602C40.6069 15.3142 40.7385 15.9957 40.9764 16.6255L36.9609 18.8742C36.6296 18.3645 36.262 17.8759 35.8584 17.4129C35.5456 17.0542 35.0013 17.017 34.6426 17.3296C34.2837 17.6423 34.2465 18.1866 34.5593 18.5454C36.359 20.61 37.3503 23.2575 37.3503 26.0001C37.3503 32.2586 32.2584 37.3505 25.9999 37.3505C19.7414 37.3505 14.6496 32.2585 14.6496 26C14.6496 19.7415 19.7415 14.6496 26 14.6496C28.2748 14.6496 30.4689 15.3198 32.3455 16.5876C32.7399 16.854 33.2756 16.7503 33.5419 16.3559C33.8084 15.9615 33.7046 15.4259 33.3102 15.1594C31.1476 13.6984 28.6196 12.9262 25.9999 12.9262C22.7048 12.9262 19.6911 14.1523 17.3895 16.1709L14.4538 13.2352C15.5937 11.8281 16.2778 10.0369 16.2778 8.08884C16.278 3.5735 12.6045 -0.1 8.08895 -0.1C3.5734 -0.1 -0.1 3.5735 -0.1 8.08895C-0.1 12.6044 3.5735 16.278 8.08895 16.278C10.0369 16.278 11.8281 15.5939 13.2353 14.454L16.171 17.3897C14.1523 19.6913 12.9262 22.705 12.9262 26.0001C12.9262 29.9308 14.6702 33.4614 17.4242 35.8598L13.2844 41.307C12.4576 40.8564 11.5158 40.6071 10.5313 40.6071C7.36259 40.6071 4.78475 43.1848 4.78475 46.3536C4.78475 49.5225 7.3626 52.1 10.5313 52.1C13.0215 52.1 15.2164 50.5112 15.9923 48.1465C16.1407 47.6943 15.8944 47.2075 15.4422 47.0591C14.9901 46.9108 14.5031 47.1569 14.3548 47.6093C13.8116 49.2645 12.2753 50.3766 10.5313 50.3766C8.31307 50.3766 6.50819 48.5718 6.50819 46.3534C6.50819 44.1351 8.31297 42.3303 10.5313 42.3303C12.1521 42.3303 13.6073 43.2948 14.2387 44.7877C14.424 45.226 14.9296 45.4309 15.368 45.2457ZM1.62344 8.08895C1.62344 4.52398 4.52398 1.62344 8.08895 1.62344C11.6539 1.62344 14.5546 4.52398 14.5546 8.08895C14.5546 11.6539 11.654 14.5546 8.08895 14.5546C4.52388 14.5546 1.62344 11.654 1.62344 8.08895ZM43.8635 47.1676C43.8635 48.9369 42.4238 50.3766 40.6545 50.3766C38.8851 50.3766 37.4454 48.9369 37.4454 47.1676C37.4454 45.3982 38.8851 43.9585 40.6545 43.9585C42.4238 43.9586 43.8635 45.3983 43.8635 47.1676ZM46.3534 18.6252C44.1352 18.6252 42.3303 16.8204 42.3303 14.602C42.3303 12.3837 44.1351 10.5789 46.3534 10.5789C48.5718 10.5789 50.3766 12.3838 50.3766 14.602C50.3766 16.8203 48.5718 18.6252 46.3534 18.6252Z" fill="#10C08E" stroke="#10C08E" stroke-width="0.2"/>
<path d="M22.5859 19.1172C22.1653 19.1172 21.8242 19.4582 21.8242 19.8789V32.3677C21.8242 32.7884 22.1653 33.1295 22.5859 33.1295C23.0066 33.1295 23.3477 32.7884 23.3477 32.3677V27.2519L29.2185 32.916C29.3664 33.0586 29.5569 33.1296 29.7473 33.1296C29.9468 33.1296 30.1461 33.0517 30.2955 32.8968C30.5876 32.594 30.579 32.1118 30.2763 31.8197L24.0966 25.8578L29.8195 20.5974C30.1292 20.3127 30.1495 19.8309 29.8648 19.5211C29.5802 19.2114 29.0983 19.191 28.7886 19.4758L23.3477 24.4769V19.879C23.3477 19.4582 23.0066 19.1172 22.5859 19.1172Z" fill="#10C08E"/>
<path d="M5.86301 5.02539H4.81641C4.39573 5.02539 4.05469 5.36644 4.05469 5.78711C4.05469 6.20778 4.39573 6.54883 4.81641 6.54883H5.10129V10.6139C5.10129 11.0345 5.44234 11.3756 5.86301 11.3756C6.28368 11.3756 6.62473 11.0345 6.62473 10.6139V5.78711C6.62473 5.36644 6.28368 5.02539 5.86301 5.02539Z" fill="#10C08E"/>
<path d="M9.9862 4.90723C8.78542 4.90723 7.80859 5.88416 7.80859 7.08483C7.80859 8.22416 8.68863 9.16036 9.8044 9.25329C9.49514 9.66279 9.21402 9.88348 9.187 9.9041C8.85225 10.1559 8.78339 10.631 9.03374 10.9675C9.18324 11.1685 9.41287 11.2746 9.64545 11.2746C9.80348 11.2746 9.96294 11.2256 10.0994 11.124C10.1714 11.0704 11.867 9.78385 12.1435 7.37733C12.1443 7.37063 12.1639 7.17735 12.1639 7.08483C12.1638 5.88416 11.187 4.90723 9.9862 4.90723ZM9.33203 7.08483C9.33203 6.72408 9.62555 6.43066 9.9862 6.43066C10.3468 6.43066 10.6404 6.72418 10.6404 7.08483C10.6404 7.44548 10.3468 7.73899 9.9862 7.73899C9.62555 7.73899 9.33203 7.44558 9.33203 7.08483Z" fill="#10C08E"/>
</g>
<defs>
<clipPath id="clip0_1633_601">
<rect width="52" height="52" fill="white"/>
</clipPath>
</defs>
</svg>
