<svg width="71" height="71" viewBox="0 0 71 71" fill="none" xmlns="http://www.w3.org/2000/svg">
<g id="quality-assurance_3891109" clip-path="url(#clip0_1740_1556)">
<g id="Layer_11">
<g id="Group">
<g id="Group_2">
<g id="Group_3">
<g id="Group_4">
<g id="Group_5">
<path id="Vector" d="M28.8389 67.2959C28.6764 67.2959 28.5144 67.2606 28.3636 67.1906C28.2884 67.1554 20.629 63.4624 13.318 55.4084C9.22249 50.8967 6.03668 45.9003 3.84894 40.5587C1.12718 33.9124 -0.0484142 26.7118 0.354566 19.1566C0.383216 18.6226 0.782909 18.182 1.31176 18.1022C8.33903 17.0403 14.8736 14.365 20.7333 10.1511C24.8913 7.16066 27.3214 4.35623 27.9672 3.56812C28.1814 3.30698 28.5012 3.15527 28.8394 3.15527C29.1771 3.15527 29.4974 3.30698 29.7116 3.56812L29.7566 3.62354C31.0351 5.19648 35.8666 10.6292 44.3724 14.4941C44.9393 14.7515 45.1897 15.4199 44.9323 15.9868C44.6749 16.5537 44.0066 16.8045 43.4397 16.5466C39.3897 14.7064 35.6694 12.3318 32.3812 9.48836C31.4198 8.65657 30.0962 7.43541 28.829 6.01089C27.6018 7.35651 25.3262 9.62457 22.0493 11.9809C19.3388 13.9301 16.4287 15.5937 13.4002 16.9247C9.93357 18.4483 6.29266 19.5431 2.56485 20.1828C2.09941 32.958 6.27575 44.2959 14.9873 53.8928C17.7875 56.9776 21.0968 59.8722 24.5573 62.2633C26.5676 63.6521 28.1067 64.5154 28.8408 64.9038C30.2939 64.1406 34.8648 61.5583 39.7865 56.9278C47.3699 49.7925 52.2043 41.3492 54.1543 31.8317C54.2793 31.2216 54.8758 30.8289 55.4849 30.9539C56.095 31.0788 56.4881 31.6744 56.3627 32.2845C55.2398 37.7646 53.16 42.986 50.1814 47.8034C47.7884 51.674 44.8106 55.2962 41.3313 58.5698C35.0334 64.4952 29.371 67.1639 29.3147 67.1902C29.1634 67.2606 29.0009 67.2959 28.8389 67.2959Z" fill="#003E71"/>
</g>
</g>
<g id="Group_6">
<g id="Group_7">
<path id="Vector_2" d="M28.8379 60.7044C28.6753 60.7044 28.5133 60.6692 28.3625 60.5992C28.3029 60.5715 22.2309 57.644 16.446 51.2705C13.2043 47.6991 10.6821 43.7435 8.94997 39.5141C6.79416 34.2505 5.86327 28.5486 6.18218 22.5678C6.21083 22.0338 6.61052 21.5932 7.13937 21.5134C12.6317 20.6835 17.739 18.5925 22.3192 15.2987C25.568 12.962 27.4631 10.7757 27.9661 10.1609C28.1803 9.89975 28.5002 9.74805 28.8383 9.74805C29.1765 9.74805 29.4963 9.89975 29.7105 10.1609L29.7565 10.2177C30.98 11.7287 35.6101 16.8852 43.8299 19.7981C44.4165 20.0062 44.7236 20.6501 44.516 21.2372C44.308 21.8238 43.6641 22.131 43.077 21.9234C39.1092 20.5172 35.4682 18.4713 32.2557 15.8416C31.3238 15.0788 30.0459 13.9493 28.8256 12.5962C27.8168 13.6802 26.0762 15.3743 23.6362 17.1294C21.4893 18.6733 19.1846 19.9907 16.786 21.0451C14.0995 22.2259 11.2814 23.0812 8.39575 23.5926C8.08107 33.5023 11.3486 42.3012 18.1161 49.7568C22.6828 54.7875 27.365 57.5214 28.8402 58.3119C30.1393 57.6205 33.9066 55.4488 37.8373 51.6256C44.0407 45.5926 47.7652 38.4372 48.9075 30.3588C48.9949 29.7425 49.565 29.3133 50.1813 29.4006C50.7975 29.4875 51.2267 30.0582 51.1394 30.6744C48.1814 51.5974 29.5024 60.5128 29.3141 60.6006C29.1624 60.6692 28.9999 60.7044 28.8379 60.7044Z" fill="#003E71"/>
</g>
</g>
</g>
<g id="Group_8">
<g id="Group_9">
<path id="Vector_3" d="M56.199 33.2197C52.468 33.2197 48.96 31.767 46.3218 29.1298C43.6832 26.4921 42.2305 22.985 42.2305 19.2549C42.2305 15.5247 43.6836 12.0177 46.3218 9.37996C48.96 6.74227 52.468 5.29004 56.199 5.29004C59.9301 5.29004 63.4381 6.74274 66.0763 9.37996C68.7149 12.0177 70.1676 15.5247 70.1676 19.2549C70.1676 22.985 68.7145 26.4921 66.0763 29.1298C63.4377 31.767 59.9301 33.2197 56.199 33.2197ZM56.199 7.54401C49.7396 7.54401 44.4849 12.7973 44.4849 19.2544C44.4849 25.7115 49.7401 30.9648 56.199 30.9648C62.658 30.9648 67.9132 25.7119 67.9132 19.2549C67.9132 12.7978 62.658 7.54401 56.199 7.54401Z" fill="#003E71"/>
</g>
</g>
<g id="Group_10">
<g id="Group_11">
<path id="Vector_4" d="M52.6538 24.709C52.3489 24.709 52.0455 24.586 51.8238 24.3446L48.8442 21.1038C48.4229 20.6454 48.453 19.9324 48.9109 19.5111C49.3689 19.0898 50.0823 19.1199 50.5036 19.5778L52.7453 22.0159L61.9848 14.0723C62.4568 13.6665 63.1684 13.7201 63.5742 14.1921C63.98 14.6641 63.9264 15.3757 63.4544 15.7819L53.3883 24.4366C53.1756 24.6188 52.914 24.709 52.6538 24.709Z" fill="#003E71"/>
</g>
</g>
</g>
<g id="Group_12">
<g id="Group_13">
<g id="Group_14">
<path id="Vector_5" d="M29.4487 41.3495C26.036 41.3495 23.2598 38.5732 23.2598 35.1606C23.2598 31.7479 26.036 28.9717 29.4487 28.9717C32.8613 28.9717 35.6376 31.7479 35.6376 35.1606C35.6376 38.5732 32.8608 41.3495 29.4487 41.3495ZM29.4487 31.2266C27.2792 31.2266 25.5142 32.9916 25.5142 35.161C25.5142 37.3305 27.2792 39.0955 29.4487 39.0955C31.6181 39.0955 33.3831 37.3305 33.3831 35.161C33.3831 32.9916 31.6176 31.2266 29.4487 31.2266Z" fill="#003E71"/>
</g>
</g>
<g id="Group_15">
<g id="Group_16">
<path id="Vector_6" d="M30.8695 48.8841H27.4404C26.8665 48.8841 26.3836 48.4525 26.3202 47.8819L26.0417 45.3865C25.3893 45.169 24.7604 44.89 24.1607 44.5514L22.2538 46.075C21.8052 46.4334 21.159 46.3977 20.7532 45.9914L18.3283 43.5665C17.9225 43.1607 17.8863 42.5144 18.2446 42.0659L19.8491 40.0585C19.5424 39.4587 19.2939 38.8336 19.1056 38.1873L16.6468 37.913C16.0762 37.8491 15.6445 37.3668 15.6445 36.7928V33.3638C15.6445 32.7893 16.0762 32.307 16.6468 32.2436L19.1568 31.9637C19.3611 31.3038 19.6288 30.6669 19.9566 30.0582L18.4537 28.1776C18.0953 27.7291 18.131 27.0828 18.5373 26.677L20.9622 24.2521C21.368 23.8458 22.0143 23.8101 22.4628 24.1685L24.3424 25.6705C24.9868 25.3225 25.6627 25.043 26.3634 24.834L26.6161 22.5706C26.68 22 27.1624 21.5684 27.7363 21.5684H31.1654C31.7393 21.5684 32.2222 22 32.2856 22.5706L32.5382 24.834C33.277 25.0543 33.9877 25.353 34.663 25.7273L36.352 24.3775C36.8005 24.0191 37.4468 24.0548 37.8526 24.4611L40.2775 26.886C40.6833 27.2918 40.7195 27.9386 40.3611 28.3866L38.977 30.1188C39.3466 30.8144 39.6364 31.5452 39.8445 32.3037L41.959 32.5395C42.5296 32.6034 42.9613 33.0857 42.9613 33.6597V37.0887C42.9613 37.6632 42.5296 38.1455 41.959 38.2089L39.713 38.4597C39.4781 39.1915 39.1663 39.8932 38.7802 40.5587L40.1521 42.2754C40.5105 42.7239 40.4748 43.3702 40.0685 43.776L37.6436 46.2009C37.2378 46.6067 36.5911 46.6429 36.143 46.2845L34.2812 44.7966C33.6302 45.1235 32.9506 45.3823 32.248 45.5706L31.9901 47.8823C31.9263 48.4525 31.4439 48.8841 30.8695 48.8841ZM28.4488 46.6297H29.8611L30.0959 44.5237C30.1509 44.0301 30.5229 43.6304 31.0113 43.5402C32.0052 43.3565 32.9501 42.9996 33.819 42.4797C34.2225 42.2383 34.734 42.2725 35.1017 42.5666L36.7625 43.8939L37.761 42.8953L36.5173 41.3388C36.2069 40.9504 36.1876 40.4042 36.4704 39.9946C37.0668 39.1304 37.4928 38.177 37.7371 37.1601C37.8479 36.6984 38.2363 36.3561 38.7079 36.3034L40.7063 36.0804V34.668L38.8023 34.4557C38.311 34.4008 37.9132 34.0326 37.8202 33.5474C37.6206 32.5047 37.2308 31.5189 36.662 30.6185C36.4055 30.2122 36.4347 29.6881 36.7343 29.3128L37.97 27.7666L36.9715 26.7681L35.4568 27.9789C35.0754 28.2838 34.5405 28.3082 34.1328 28.0395C33.2545 27.4609 32.2898 27.0546 31.2654 26.8329C30.7925 26.7305 30.4374 26.3374 30.3838 25.8565L30.157 23.8233H28.7447L28.5178 25.8565C28.4643 26.3374 28.1092 26.7305 27.6363 26.8329C26.6457 27.0476 25.7097 27.4351 24.8539 27.9841C24.4467 28.2452 23.9188 28.218 23.5412 27.916L21.8428 26.5586L20.8443 27.5572L22.2021 29.256C22.5037 29.6336 22.5314 30.1615 22.2707 30.5683C21.7414 31.3939 21.3619 32.2962 21.1435 33.2496C21.0364 33.717 20.6461 34.065 20.1698 34.1185L17.899 34.3721V35.7845L20.1327 36.0339C20.6165 36.0879 21.011 36.4462 21.1111 36.9225C21.3088 37.8646 21.6639 38.7608 22.1655 39.5851C22.4116 39.9895 22.3787 40.5047 22.0833 40.8748L20.6358 42.6863L21.6343 43.6848L23.3726 42.2956C23.7567 41.9884 24.2964 41.9658 24.705 42.2406C25.5176 42.7868 26.4095 43.1846 27.3549 43.4237C27.8105 43.5388 28.1468 43.9244 28.1989 44.3917L28.4488 46.6297Z" fill="#003E71"/>
</g>
</g>
</g>
</g>
</g>
</g>
<defs>
<clipPath id="clip0_1740_1556">
<rect width="70.4511" height="70.4511" fill="white"/>
</clipPath>
</defs>
</svg>
