<svg width="52" height="52" viewBox="0 0 52 52" fill="none" xmlns="http://www.w3.org/2000/svg">
<g id="workers_4037799" clip-path="url(#clip0_1710_442)">
<path id="Vector" d="M27.9 36C27.9 38.2612 29.7388 40.1 32 40.1C34.2612 40.1 36.1 38.2612 36.1 36C36.1 33.7388 34.2612 31.9 32 31.9C29.7388 31.9 27.9 33.7388 27.9 36ZM30.1 36C30.1 34.9532 30.9532 34.1 32 34.1C33.0468 34.1 33.9 34.9532 33.9 36C33.9 37.0468 33.0468 37.9 32 37.9C30.9532 37.9 30.1 37.0468 30.1 36Z" fill="#0873CB" stroke="#0873CB" stroke-width="0.2"/>
<path id="Vector_2" d="M37.9 49C37.9 49.6072 38.3928 50.1 39 50.1C39.6072 50.1 40.1 49.6072 40.1 49V47C40.1 44.1888 37.8112 41.9 35 41.9H29C26.1888 41.9 23.9 44.1888 23.9 47V49C23.9 49.6072 24.3928 50.1 25 50.1C25.6072 50.1 26.1 49.6072 26.1 49V47C26.1 45.4012 27.4012 44.1 29 44.1H35C36.5988 44.1 37.9 45.4012 37.9 47V49Z" fill="#0873CB" stroke="#0873CB" stroke-width="0.2"/>
<path id="Vector_3" d="M42.9 42C42.9 42.6072 43.3928 43.1 44 43.1C44.6072 43.1 45.1 42.6072 45.1 42V36C45.1 35.3928 44.6072 34.9 44 34.9C43.3928 34.9 42.9 35.3928 42.9 36V42Z" fill="#0873CB" stroke="#0873CB" stroke-width="0.2"/>
<path id="Vector_4" d="M41 40.1H47C47.6072 40.1 48.1 39.6072 48.1 39C48.1 38.3928 47.6072 37.9 47 37.9H41C40.3928 37.9 39.9 38.3928 39.9 39C39.9 39.6072 40.3928 40.1 41 40.1Z" fill="#0873CB" stroke="#0873CB" stroke-width="0.2"/>
<path id="Vector_5" d="M16.3027 14.147L16.3026 14.1471C16.0474 14.3562 15.9 14.6686 15.9 14.9985V40.9999C15.9 41.6072 16.3928 42.1 17 42.1H23C23.6072 42.1 24.1 41.6072 24.1 40.9999C24.1 40.3927 23.6072 39.8999 23 39.8999H18.1V16.3405L45.9 21.9008V32.9995C45.9 33.6067 46.3928 34.0996 47 34.0996C47.6072 34.0996 48.1 33.6067 48.1 32.9995V20.9988C48.1 20.475 47.7303 20.0243 47.2161 19.9188L47.2156 19.9187L17.2156 13.9184L17.2156 13.9184L17.2135 13.918C16.8948 13.8612 16.5568 13.9393 16.3027 14.147Z" fill="#0873CB" stroke="#0873CB" stroke-width="0.2"/>
<path id="Vector_6" d="M23 28.1H25C25.6072 28.1 26.1 27.6072 26.1 27V25C26.1 24.3928 25.6072 23.9 25 23.9H23C22.3928 23.9 21.9 24.3928 21.9 25V27C21.9 27.6072 22.3928 28.1 23 28.1Z" fill="#0873CB" stroke="#0873CB" stroke-width="0.2"/>
<path id="Vector_7" d="M31 28.1H33C33.6072 28.1 34.1 27.6072 34.1 27V25C34.1 24.3928 33.6072 23.9 33 23.9H31C30.3928 23.9 29.9 24.3928 29.9 25V27C29.9 27.6072 30.3928 28.1 31 28.1Z" fill="#0873CB" stroke="#0873CB" stroke-width="0.2"/>
<path id="Vector_8" d="M23 36.1H25C25.6072 36.1 26.1 35.6072 26.1 35V33C26.1 32.3928 25.6072 31.9 25 31.9H23C22.3928 31.9 21.9 32.3928 21.9 33V35C21.9 35.6072 22.3928 36.1 23 36.1Z" fill="#0873CB" stroke="#0873CB" stroke-width="0.2"/>
<path id="Vector_9" d="M39 28.1H41C41.6072 28.1 42.1 27.6072 42.1 27V25C42.1 24.3928 41.6072 23.9 41 23.9H39C38.3928 23.9 37.9 24.3928 37.9 25V27C37.9 27.6072 38.3928 28.1 39 28.1Z" fill="#0873CB" stroke="#0873CB" stroke-width="0.2"/>
<path id="Vector_10" d="M16.7654 24.9249L16.7652 24.9249L2.3393 27.9908C0.926943 28.2897 -0.1 29.5259 -0.1 30.935V39.0856C-0.1 40.7503 1.29352 42.1 3 42.1H17C17.6045 42.1 18.1 41.6227 18.1 41.0285C18.1 40.4344 17.6045 39.9571 17 39.9571H3C2.50048 39.9571 2.1 39.5639 2.1 39.0856V30.935C2.1 30.5295 2.39513 30.1705 2.80679 30.0828C2.8068 30.0828 2.80682 30.0828 2.80684 30.0828L17.2348 27.0168L17.2348 27.0168C17.8248 26.8911 18.2043 26.3224 18.0736 25.741C17.9449 25.1602 17.36 24.7996 16.7654 24.9249Z" fill="#0873CB" stroke="#0873CB" stroke-width="0.2"/>
<path id="Vector_11" d="M7 34.1H11C11.6072 34.1 12.1 33.6072 12.1 33C12.1 32.3928 11.6072 31.9 11 31.9H7C6.39277 31.9 5.9 32.3928 5.9 33C5.9 33.6072 6.39277 34.1 7 34.1Z" fill="#0873CB" stroke="#0873CB" stroke-width="0.2"/>
<path id="Vector_12" d="M7 38.1H11C11.6072 38.1 12.1 37.6072 12.1 37C12.1 36.3928 11.6072 35.9 11 35.9H7C6.39277 35.9 5.9 36.3928 5.9 37C5.9 37.6072 6.39277 38.1 7 38.1Z" fill="#0873CB" stroke="#0873CB" stroke-width="0.2"/>
<path id="Vector_13" d="M1.9033 28.8989L1.9033 28.8989L3.90638 2.92923L3.90638 2.92923C3.95124 2.34815 4.43988 1.9 5.02394 1.9H11.1433C11.7274 1.9 12.216 2.34815 12.2609 2.92923L14.0967 26.7263L14.0967 26.7263C14.1438 27.3403 13.6824 27.8779 13.0668 27.925C12.4434 27.9784 11.9106 27.5112 11.8636 26.8982C11.8636 26.8981 11.8636 26.8981 11.8636 26.8981L10.1063 4.13237H6.06094L4.13639 29.0707L4.13638 29.0708L1.9033 28.8989ZM1.9033 28.8989C1.85623 29.513 2.31778 30.0508 2.93367 30.0977L1.9033 28.8989Z" fill="#0873CB" stroke="#0873CB" stroke-width="0.2"/>
<path id="Vector_14" d="M3 4.1H13C13.6072 4.1 14.1 3.60723 14.1 3C14.1 2.39277 13.6072 1.9 13 1.9H3C2.39277 1.9 1.9 2.39277 1.9 3C1.9 3.60723 2.39277 4.1 3 4.1Z" fill="#0873CB" stroke="#0873CB" stroke-width="0.2"/>
</g>
<defs>
<clipPath id="clip0_1710_442">
<rect width="52" height="52" fill="white"/>
</clipPath>
</defs>
</svg>
